<svg xmlns="http://www.w3.org/2000/svg" viewBox="0 0 143.25 142.68"><defs><style>.cls-1{fill:#fff;}.cls-2{fill:#0d4be3;}</style></defs><g id="Capa_2" data-name="Capa 2"><g id="Capa_1-2" data-name="Capa 1"><g id="Grupo_358" data-name="Grupo 358"><ellipse id="Elipse_69" data-name="Elipse 69" class="cls-1" cx="71.62" cy="71.34" rx="71.62" ry="71.34"/><path id="Trazado_3192" data-name="Trazado 3192" class="cls-2" d="M105.38,67.72l-9.46-27h3.34a1.32,1.32,0,0,0,1.39-1.23v-.16A1.31,1.31,0,0,0,99.42,38H45.17a1.32,1.32,0,0,0-1.39,1.23v.16A1.32,1.32,0,0,0,45,40.75h3.5L38.92,67.86c-.14,0-.14.56-.14.56.14,5.56,5.28,9.87,11.68,9.87S61.86,74,62.14,68.42c0,0,0-.42-.14-.56L52.4,40.75H70.9v6h-.14a1.39,1.39,0,0,0-1.39,1.39L68.12,94.84H54.77a1.3,1.3,0,0,0-1.39,1.23v7.25a1.32,1.32,0,0,0,1.23,1.39H89.67a1.32,1.32,0,0,0,1.39-1.23V96.09a1.31,1.31,0,0,0-1.23-1.39.43.43,0,0,0-.16,0H76.32L75.21,48a1.49,1.49,0,0,0-1.39-1.39h-.28v-6H91.89l-9.6,27a2.68,2.68,0,0,1-.13.56C82.29,73.7,87.44,78,93.84,78c6.25,0,11.4-4.31,11.68-9.87C105.52,68.28,105.52,67.72,105.38,67.72Zm-17.1,34.21H56.16V97.48H88.28ZM70.9,94.7,72,49.37h.42L73.54,94.7Zm31.28-27.95H85.64l8.2-23.22ZM50.46,43.53l8.2,23.36H42.12Zm0,31.84c-4.17,0-7.65-2.5-8.62-5.7H59.08c-1,3.2-4.59,5.7-8.62,5.7Zm43.38-.14c-4.17,0-7.65-2.5-8.62-5.7h17.24c-.83,3.2-4.45,5.7-8.62,5.7Z"/></g></g></g></svg>