<svg xmlns="http://www.w3.org/2000/svg" viewBox="0 0 143.25 142.68"><defs><style>.cls-1{fill:#fff;}.cls-2{fill:#0d4be3;}</style></defs><g id="Capa_2" data-name="Capa 2"><g id="Capa_1-2" data-name="Capa 1"><g id="Grupo_359" data-name="Grupo 359"><ellipse id="Elipse_70" data-name="Elipse 70" class="cls-1" cx="71.62" cy="71.34" rx="71.62" ry="71.34"/><g id="Grupo_322" data-name="Grupo 322"><path id="Trazado_3193" data-name="Trazado 3193" class="cls-2" d="M83.28,97.5a1.84,1.84,0,0,0-1.84-1.84H63a1.84,1.84,0,0,0,0,3.68H81.44a1.84,1.84,0,0,0,1.84-1.84Z"/><path id="Trazado_3194" data-name="Trazado 3194" class="cls-2" d="M65.18,101.26c-.85,0-1.08.52-.52,1.16l3.08,3.52a.76.76,0,0,0,.51.23h8a.78.78,0,0,0,.51-.23l3.08-3.52c.56-.64.32-1.16-.53-1.16Z"/><path id="Trazado_3195" data-name="Trazado 3195" class="cls-2" d="M49.74,67.54h-9a1.32,1.32,0,0,0-1.32,1.32h0a1.33,1.33,0,0,0,1.32,1.33h9Z"/><path id="Trazado_3196" data-name="Trazado 3196" class="cls-2" d="M103.71,67.54h-9v2.65h9A1.32,1.32,0,0,0,105,68.87h0a1.32,1.32,0,0,0-1.32-1.32Z"/><path id="Trazado_3197" data-name="Trazado 3197" class="cls-2" d="M73.56,37.39a1.32,1.32,0,0,0-1.33-1.32h0a1.32,1.32,0,0,0-1.32,1.32v9h2.65Z"/><path id="Trazado_3198" data-name="Trazado 3198" class="cls-2" d="M74.33,59.72a9.36,9.36,0,0,1,7,7,1.18,1.18,0,0,0,1.15.91l.26,0a1.17,1.17,0,0,0,.88-1.4,11.76,11.76,0,0,0-8.82-8.82,1.16,1.16,0,0,0-1.4.88h0a1.16,1.16,0,0,0,.87,1.4Z"/><path id="Trazado_3199" data-name="Trazado 3199" class="cls-2" d="M53.19,68.86c0,5.13,2.43,9.13,4.78,13a34,34,0,0,1,4.12,8.46,1.81,1.81,0,0,0-.9,1.57A1.84,1.84,0,0,0,63,93.73H81.44a1.84,1.84,0,0,0,1.84-1.84h0a1.81,1.81,0,0,0-.9-1.57,33.63,33.63,0,0,1,4.12-8.46c2.35-3.87,4.78-7.87,4.78-13a19,19,0,0,0-38.09,0ZM72.24,53A15.89,15.89,0,0,1,88.11,68.86c0,4.24-2.1,7.69-4.32,11.35a34.77,34.77,0,0,0-4.61,9.84H65.3a35,35,0,0,0-4.61-9.84c-2.23-3.66-4.33-7.11-4.33-11.35A15.89,15.89,0,0,1,72.24,53Z"/><path id="Trazado_3200" data-name="Trazado 3200" class="cls-2" d="M49.05,92.05a1.32,1.32,0,0,0,1.87,0h0l6.35-6.35L55.4,83.83l-6.35,6.35a1.32,1.32,0,0,0,0,1.87Z"/><path id="Trazado_3201" data-name="Trazado 3201" class="cls-2" d="M95.42,45.68a1.3,1.3,0,0,0-1.86,0h0L87.21,52l1.87,1.87,6.34-6.34a1.32,1.32,0,0,0,0-1.87Z"/><path id="Trazado_3202" data-name="Trazado 3202" class="cls-2" d="M93.55,92.05a1.32,1.32,0,0,0,1.87,0h0a1.32,1.32,0,0,0,0-1.87h0l-6.35-6.35L87.21,85.7Z"/><path id="Trazado_3203" data-name="Trazado 3203" class="cls-2" d="M49.05,45.68a1.32,1.32,0,0,0,0,1.87l6.35,6.34L57.27,52l-6.35-6.34a1.32,1.32,0,0,0-1.87,0Z"/></g></g></g></g></svg>