<svg xmlns="http://www.w3.org/2000/svg" viewBox="0 0 143.25 142.68"><defs><style>.cls-1{fill:#fff;}.cls-2{fill:#0d4be3;}</style></defs><g id="Capa_2" data-name="Capa 2"><g id="Capa_1-2" data-name="Capa 1"><g id="Grupo_356" data-name="Grupo 356"><ellipse id="Elipse_67" data-name="Elipse 67" class="cls-1" cx="71.62" cy="71.34" rx="71.62" ry="71.34"/><g id="Grupo_320" data-name="Grupo 320"><path id="Trazado_3179" data-name="Trazado 3179" class="cls-2" d="M117.15,100.72l-7.31-8.13a5.39,5.39,0,0,0,1.89-3.15,5.87,5.87,0,0,0-2.61-6.06,6.71,6.71,0,0,0,2.75-6.1c-.26-3.67-3.8-6.46-8.63-7.3a1.37,1.37,0,0,0,.43-.71c.75-3.27-.84-6.79-4.47-9.92A32.24,32.24,0,0,0,85.58,52.9a32.19,32.19,0,0,0-15.08-.12c-3.78,1-6.43,2.86-7.68,5.28a10.05,10.05,0,0,0-6.2-3.23,17.84,17.84,0,0,0-10.36,1.74c-6.69,3.24-10.45,9.58-8.93,14.66a10,10,0,0,0-5.6,3.47,14.18,14.18,0,0,0-.16,17.37A9.67,9.67,0,0,0,39,95.87h0a1,1,0,0,0,.35-.07,9.05,9.05,0,0,0,2.74,4.44,14.5,14.5,0,0,0,8.09,3.54,15.19,15.19,0,0,0,1.91.12,12.47,12.47,0,0,0,9.58-4,7.41,7.41,0,0,0,3.49,4.22,13.56,13.56,0,0,0,6.59,1.33c.76,0,1.57,0,2.44-.09,3.46-.25,8.33-1.71,10.79-4.26a32.13,32.13,0,0,1,4.28-3,1.43,1.43,0,0,0,.82,0c4.1-1.47,14.91,4.37,20.82,8.43a2,2,0,0,0,1.23.48h.12a5.49,5.49,0,0,0,3.36-1.63,5.32,5.32,0,0,0,2-3.29A2,2,0,0,0,117.15,100.72Zm-3.36,2.66a4.28,4.28,0,0,1-1.35.87c-1.76-1.2-10.58-7-17.59-8.66a19.51,19.51,0,0,1,5.29-1.07,1.39,1.39,0,0,0,1.33-1.45h0A1.41,1.41,0,0,0,100,91.74c-8.88.44-16.5,7-16.91,7.39-1.71,1.77-5.53,3.25-9.08,3.5s-5.92,0-7.49-.91c-1-.56-2.42-1.69-2.66-5a1.39,1.39,0,0,0-.48-.95,1.3,1.3,0,0,0-.08-.34c-.06-4-4.31-7.73-10.22-8.66a1.39,1.39,0,1,0-.43,2.75c4.68.74,8.28,3.7,7.85,6.46a1.19,1.19,0,0,0,0,.42c-.87,3.16-5.16,5.21-10,4.63A11.62,11.62,0,0,1,44,98.2,5.57,5.57,0,0,1,42,93.51a1.37,1.37,0,0,0-.57-1.27,1.36,1.36,0,0,0,.49-1.33c-.58-2.88,1.84-5.8,5.39-6.52a1.39,1.39,0,1,0-.55-2.73c-5,1-8.45,5.42-7.56,9.8a1.4,1.4,0,0,0,.53.83,1.37,1.37,0,0,0-.47.84l-.18,0a6.94,6.94,0,0,1-5.32-2.77,11.37,11.37,0,0,1,.13-13.83,7.08,7.08,0,0,1,5.37-2.68,1.37,1.37,0,0,0,1.41-1.34v0a1.37,1.37,0,0,0-.24-.76,1.48,1.48,0,0,0-.13-.5c-1.86-3.85,1.37-9.28,7.2-12.1a14.92,14.92,0,0,1,8.71-1.5A7.92,7.92,0,0,1,60,59.15a9.45,9.45,0,0,0-4,1.38,7.51,7.51,0,0,0-3.37,4.69,1.4,1.4,0,0,0,1.06,1.66h0a1.53,1.53,0,0,0,.3,0,1.39,1.39,0,0,0,1.36-1.09,4.71,4.71,0,0,1,2.15-2.95A7.26,7.26,0,0,1,62.85,62a1.38,1.38,0,0,0,1.64-1,1.44,1.44,0,0,0,.39-.66c.5-2.21,2.76-4,6.34-4.92A29.47,29.47,0,0,1,85,55.61a29.4,29.4,0,0,1,12.43,5.84c2.81,2.43,4.08,5,3.57,7.2a1.39,1.39,0,0,0,.23,1.1,19,19,0,0,0-2.39,0,1.39,1.39,0,1,0,.2,2.77c5.25-.38,9.88,1.88,10.1,4.94a4.17,4.17,0,0,1-2.73,4.34,15.69,15.69,0,0,0-1.44,1.48A1.4,1.4,0,0,0,106,85c2,.47,3.42,2.2,3,3.85a2.45,2.45,0,0,1-1,1.69l-.93-1a1.38,1.38,0,0,0-2-.1h0a1.39,1.39,0,0,0-.1,2l9.78,10.87a4.39,4.39,0,0,1-1,1.17Z"/><path id="Trazado_3180" data-name="Trazado 3180" class="cls-2" d="M79.8,75.49c-4.17.84-7.21,4-7.64,7.53a15.06,15.06,0,0,0-7-.18,1.39,1.39,0,1,0,.55,2.72,12,12,0,0,1,6.63.4,4.35,4.35,0,0,1,3,2.94A1.38,1.38,0,0,0,76.67,90L77,90A1.39,1.39,0,0,0,78,88.35h0a6.42,6.42,0,0,0-3.12-4.19c-.17-2.69,2.12-5.28,5.43-6a1.38,1.38,0,0,0,1.09-1.63h0a1.39,1.39,0,0,0-1.64-1.08Z"/><path id="Trazado_3181" data-name="Trazado 3181" class="cls-2" d="M85.29,61.58A14.75,14.75,0,0,0,77.1,61,1.39,1.39,0,0,0,76,62.68h0a1.39,1.39,0,0,0,1.64,1.09,11.85,11.85,0,0,1,6.62.4,4.35,4.35,0,0,1,3,2.94,1.38,1.38,0,0,0,1.36,1.11l.28,0A1.4,1.4,0,0,0,90,66.56,7,7,0,0,0,85.29,61.58Z"/><path id="Trazado_3182" data-name="Trazado 3182" class="cls-2" d="M87.2,44.45a1.39,1.39,0,0,0,1.89-.56l6.69-12.46a1.38,1.38,0,0,0-.56-1.88,1.41,1.41,0,0,0-1.89.56h0L86.64,42.57A1.4,1.4,0,0,0,87.2,44.45Z"/><path id="Trazado_3183" data-name="Trazado 3183" class="cls-2" d="M52.67,45.87a1.37,1.37,0,0,0,1.14.6A1.4,1.4,0,0,0,55,44.28l-8.09-11.6a1.39,1.39,0,1,0-2.28,1.59Z"/><path id="Trazado_3184" data-name="Trazado 3184" class="cls-2" d="M68.69,42.45a1.4,1.4,0,0,0,1.4-1.39h0V25a1.39,1.39,0,0,0-1.39-1.39h0A1.39,1.39,0,0,0,67.3,25v16A1.39,1.39,0,0,0,68.69,42.45Z"/></g></g></g></g></svg>