<svg xmlns="http://www.w3.org/2000/svg" viewBox="0 0 254.99 370"><defs><style>.cls-1{fill:#fff;}</style></defs><g id="Capa_2" data-name="Capa 2"><g id="Capa_1-2" data-name="Capa 1"><g id="Componente_2_23" data-name="Componente 2 23"><g id="Grupo_6-3" data-name="Grupo 6-3"><path id="Trazado_7-3" data-name="Trazado 7-3" class="cls-1" d="M248.91,0V3.62h-3.62V6.07h3.62V9.69h2.46V6.07H255V3.62h-3.62V0Zm-22.3,0V3.62H223V6.07h3.63V9.69h2.46V6.07h3.63V3.62h-3.63V0ZM6.08,0V3.62H9.7V6.07H6.08V9.69H3.62V6.07H0V3.62H3.63V0ZM25.92,0V3.62H22.29V6.07h3.63V9.69h2.46V6.07H32V3.62H28.38V0Zm22.3,0V3.62H44.59V6.07h3.63V9.69h2.46V6.07H54.3V3.62H50.68V0Zm22.3,0V3.62H66.89V6.07h3.63V9.69H73V6.07H76.6V3.62H73V0Zm22.3,0V3.62H89.19V6.07h3.63V9.69h2.45V6.07H98.9V3.62H95.27V0Zm22.3,0V3.62h-3.63V6.07h3.63V9.69h2.45V6.07h3.63V3.62h-3.63V0Zm22.3,0V3.62h-3.63V6.07h3.63V9.69h2.46V6.07h3.62V3.62h-3.62V0Zm22.3,0V3.62h-3.63V6.07h3.63V9.69h2.45V6.07h3.63V3.62h-3.63V0ZM182,0V3.62h-3.63V6.07H182V9.69h2.45V6.07h3.63V3.62h-3.63V0Zm22.3,0V3.62h-3.63V6.07h3.63V9.69h2.45V6.07h3.63V3.62h-3.63V0Z"/><path id="Trazado_8-3" data-name="Trazado 8-3" class="cls-1" d="M248.91,30v3.62h-3.62V36.1h3.62v3.62h2.46V36.1H255V33.64h-3.62V30Zm-22.3,0v3.62H223V36.1h3.63v3.62h2.46V36.1h3.63V33.64h-3.63V30ZM6.08,30v3.62H9.7V36.1H6.08v3.62H3.62V36.1H0V33.64H3.63V30Zm19.84,0v3.62H22.29V36.1h3.63v3.62h2.46V36.1H32V33.64H28.38V30Zm22.3,0v3.62H44.59V36.1h3.63v3.62h2.46V36.1H54.3V33.64H50.68V30Zm22.3,0v3.62H66.89V36.1h3.63v3.62H73V36.1H76.6V33.64H73V30Zm22.3,0v3.62H89.19V36.1h3.63v3.62h2.45V36.1H98.9V33.64H95.27V30Zm22.3,0v3.62h-3.63V36.1h3.63v3.62h2.45V36.1h3.63V33.64h-3.63V30Zm22.3,0v3.62h-3.63V36.1h3.63v3.62h2.46V36.1h3.62V33.64h-3.62V30Zm22.3,0v3.62h-3.63V36.1h3.63v3.62h2.45V36.1h3.63V33.64h-3.63V30ZM182,30v3.62h-3.63V36.1H182v3.62h2.45V36.1h3.63V33.64h-3.63V30Zm22.3,0v3.62h-3.63V36.1h3.63v3.62h2.45V36.1h3.63V33.64h-3.63V30Z"/><path id="Trazado_9-3" data-name="Trazado 9-3" class="cls-1" d="M248.91,60.05v3.62h-3.62v2.45h3.62v3.62h2.46V66.12H255V63.67h-3.62V60.05Zm-22.3,0v3.62H223v2.45h3.63v3.62h2.46V66.12h3.63V63.67h-3.63V60.05Zm-220.53,0v3.62H9.7v2.45H6.08v3.62H3.62V66.12H0V63.67H3.63V60.05Zm19.84,0v3.62H22.29v2.45h3.63v3.62h2.46V66.12H32V63.67H28.38V60.05Zm22.3,0v3.62H44.59v2.45h3.63v3.62h2.46V66.12H54.3V63.67H50.68V60.05Zm22.3,0v3.62H66.89v2.45h3.63v3.62H73V66.12H76.6V63.67H73V60.05Zm22.3,0v3.62H89.19v2.45h3.63v3.62h2.45V66.12H98.9V63.67H95.27V60.05Zm22.3,0v3.62h-3.63v2.45h3.63v3.62h2.45V66.12h3.63V63.67h-3.63V60.05Zm22.3,0v3.62h-3.63v2.45h3.63v3.62h2.46V66.12h3.62V63.67h-3.62V60.05Zm22.3,0v3.62h-3.63v2.45h3.63v3.62h2.45V66.12h3.63V63.67h-3.63V60.05Zm22.3,0v3.62h-3.63v2.45H182v3.62h2.45V66.12h3.63V63.67h-3.63V60.05Zm22.3,0v3.62h-3.63v2.45h3.63v3.62h2.45V66.12h3.63V63.67h-3.63V60.05Z"/><path id="Trazado_10-3" data-name="Trazado 10-3" class="cls-1" d="M248.91,90.08V93.7h-3.62v2.45h3.62v3.62h2.46V96.15H255V93.69h-3.62V90.07Zm-22.3,0V93.7H223v2.45h3.63v3.62h2.46V96.15h3.63V93.69h-3.63V90.07Zm-220.53,0V93.7H9.7v2.45H6.08v3.62H3.62V96.15H0V93.69H3.63V90.07Zm19.84,0V93.7H22.29v2.45h3.63v3.62h2.46V96.15H32V93.69H28.38V90.07Zm22.3,0V93.7H44.59v2.45h3.63v3.62h2.46V96.15H54.3V93.69H50.68V90.07Zm22.3,0V93.7H66.89v2.45h3.63v3.62H73V96.15H76.6V93.69H73V90.07Zm22.3,0V93.7H89.19v2.45h3.63v3.62h2.45V96.15H98.9V93.69H95.27V90.07Zm22.3,0V93.7h-3.63v2.45h3.63v3.62h2.45V96.15h3.63V93.69h-3.63V90.07Zm22.3,0V93.7h-3.63v2.45h3.63v3.62h2.46V96.15h3.62V93.69h-3.62V90.07Zm22.3,0V93.7h-3.63v2.45h3.63v3.62h2.45V96.15h3.63V93.69h-3.63V90.07Zm22.3,0V93.7h-3.63v2.45H182v3.62h2.45V96.15h3.63V93.69h-3.63V90.07Zm22.3,0V93.7h-3.63v2.45h3.63v3.62h2.45V96.15h3.63V93.69h-3.63V90.07Z"/><path id="Trazado_11-3" data-name="Trazado 11-3" class="cls-1" d="M248.91,120.1v3.62h-3.62v2.45h3.62v3.62h2.46v-3.62H255v-2.45h-3.62V120.1Zm-22.3,0v3.62H223v2.45h3.63v3.62h2.46v-3.62h3.63v-2.45h-3.63V120.1Zm-220.53,0v3.62H9.7v2.45H6.08v3.62H3.62v-3.62H0v-2.45H3.63V120.1Zm19.84,0v3.62H22.29v2.45h3.63v3.62h2.46v-3.62H32v-2.45H28.38V120.1Zm22.3,0v3.62H44.59v2.45h3.63v3.62h2.46v-3.62H54.3v-2.45H50.68V120.1Zm22.3,0v3.62H66.89v2.45h3.63v3.62H73v-3.62H76.6v-2.45H73V120.1Zm22.3,0v3.62H89.19v2.45h3.63v3.62h2.45v-3.62H98.9v-2.45H95.27V120.1Zm22.3,0v3.62h-3.63v2.45h3.63v3.62h2.45v-3.62h3.63v-2.45h-3.63V120.1Zm22.3,0v3.62h-3.63v2.45h3.63v3.62h2.46v-3.62h3.62v-2.45h-3.62V120.1Zm22.3,0v3.62h-3.63v2.45h3.63v3.62h2.45v-3.62h3.63v-2.45h-3.63V120.1Zm22.3,0v3.62h-3.63v2.45H182v3.62h2.45v-3.62h3.63v-2.45h-3.63V120.1Zm22.3,0v3.62h-3.63v2.45h3.63v3.62h2.45v-3.62h3.63v-2.45h-3.63V120.1Z"/><path id="Trazado_12-3" data-name="Trazado 12-3" class="cls-1" d="M248.91,150.13v3.62h-3.62v2.45h3.62v3.62h2.46V156.2H255v-2.46h-3.62v-3.61Zm-22.3,0v3.62H223v2.45h3.63v3.62h2.46V156.2h3.63v-2.46h-3.63v-3.61Zm-220.53,0v3.62H9.7v2.45H6.08v3.62H3.62V156.2H0v-2.46H3.63v-3.61Zm19.84,0v3.62H22.29v2.45h3.63v3.62h2.46V156.2H32v-2.46H28.38v-3.61Zm22.3,0v3.62H44.59v2.45h3.63v3.62h2.46V156.2H54.3v-2.46H50.68v-3.61Zm22.3,0v3.62H66.89v2.45h3.63v3.62H73V156.2H76.6v-2.46H73v-3.61Zm22.3,0v3.62H89.19v2.45h3.63v3.62h2.45V156.2H98.9v-2.46H95.27v-3.61Zm22.3,0v3.62h-3.63v2.45h3.63v3.62h2.45V156.2h3.63v-2.46h-3.63v-3.61Zm22.3,0v3.62h-3.63v2.45h3.63v3.62h2.46V156.2h3.62v-2.46h-3.62v-3.61Zm22.3,0v3.62h-3.63v2.45h3.63v3.62h2.45V156.2h3.63v-2.46h-3.63v-3.61Zm22.3,0v3.62h-3.63v2.45H182v3.62h2.45V156.2h3.63v-2.46h-3.63v-3.61Zm22.3,0v3.62h-3.63v2.45h3.63v3.62h2.45V156.2h3.63v-2.46h-3.63v-3.61Z"/><path id="Trazado_13-3" data-name="Trazado 13-3" class="cls-1" d="M248.91,180.15v3.62h-3.62v2.46h3.62v3.62h2.46v-3.62H255v-2.46h-3.62v-3.62Zm-22.3,0v3.62H223v2.46h3.63v3.62h2.46v-3.62h3.63v-2.46h-3.63v-3.62Zm-220.53,0v3.62H9.7v2.46H6.08v3.62H3.62v-3.62H0v-2.46H3.63v-3.62Zm19.84,0v3.62H22.29v2.46h3.63v3.62h2.46v-3.62H32v-2.46H28.38v-3.62Zm22.3,0v3.62H44.59v2.46h3.63v3.62h2.46v-3.62H54.3v-2.46H50.68v-3.62Zm22.3,0v3.62H66.89v2.46h3.63v3.62H73v-3.62H76.6v-2.46H73v-3.62Zm22.3,0v3.62H89.19v2.46h3.63v3.62h2.45v-3.62H98.9v-2.46H95.27v-3.62Zm22.3,0v3.62h-3.63v2.46h3.63v3.62h2.45v-3.62h3.63v-2.46h-3.63v-3.62Zm22.3,0v3.62h-3.63v2.46h3.63v3.62h2.46v-3.62h3.62v-2.46h-3.62v-3.62Zm22.3,0v3.62h-3.63v2.46h3.63v3.62h2.45v-3.62h3.63v-2.46h-3.63v-3.62Zm22.3,0v3.62h-3.63v2.46H182v3.62h2.45v-3.62h3.63v-2.46h-3.63v-3.62Zm22.3,0v3.62h-3.63v2.46h3.63v3.62h2.45v-3.62h3.63v-2.46h-3.63v-3.62Z"/><path id="Trazado_14-3" data-name="Trazado 14-3" class="cls-1" d="M248.91,210.18v3.62h-3.62v2.45h3.62v3.62h2.46v-3.62H255V213.8h-3.62v-3.62Zm-22.3,0v3.62H223v2.45h3.63v3.62h2.46v-3.62h3.63V213.8h-3.63v-3.62Zm-220.53,0v3.62H9.7v2.45H6.08v3.62H3.62v-3.62H0V213.8H3.63v-3.62Zm19.84,0v3.62H22.29v2.45h3.63v3.62h2.46v-3.62H32V213.8H28.38v-3.62Zm22.3,0v3.62H44.59v2.45h3.63v3.62h2.46v-3.62H54.3V213.8H50.68v-3.62Zm22.3,0v3.62H66.89v2.45h3.63v3.62H73v-3.62H76.6V213.8H73v-3.62Zm22.3,0v3.62H89.19v2.45h3.63v3.62h2.45v-3.62H98.9V213.8H95.27v-3.62Zm22.3,0v3.62h-3.63v2.45h3.63v3.62h2.45v-3.62h3.63V213.8h-3.63v-3.62Zm22.3,0v3.62h-3.63v2.45h3.63v3.62h2.46v-3.62h3.62V213.8h-3.62v-3.62Zm22.3,0v3.62h-3.63v2.45h3.63v3.62h2.45v-3.62h3.63V213.8h-3.63v-3.62Zm22.3,0v3.62h-3.63v2.45H182v3.62h2.45v-3.62h3.63V213.8h-3.63v-3.62Zm22.3,0v3.62h-3.63v2.45h3.63v3.62h2.45v-3.62h3.63V213.8h-3.63v-3.62Z"/><path id="Trazado_15-3" data-name="Trazado 15-3" class="cls-1" d="M248.91,240.2v3.62h-3.62v2.46h3.62v3.62h2.46v-3.62H255v-2.46h-3.62V240.2Zm-22.3,0v3.62H223v2.46h3.63v3.62h2.46v-3.62h3.63v-2.46h-3.63V240.2Zm-220.53,0v3.62H9.7v2.46H6.08v3.62H3.62v-3.62H0v-2.46H3.63V240.2Zm19.84,0v3.62H22.29v2.46h3.63v3.62h2.46v-3.62H32v-2.46H28.38V240.2Zm22.3,0v3.62H44.59v2.46h3.63v3.62h2.46v-3.62H54.3v-2.46H50.68V240.2Zm22.3,0v3.62H66.89v2.46h3.63v3.62H73v-3.62H76.6v-2.46H73V240.2Zm22.3,0v3.62H89.19v2.46h3.63v3.62h2.45v-3.62H98.9v-2.46H95.27V240.2Zm22.3,0v3.62h-3.63v2.46h3.63v3.62h2.45v-3.62h3.63v-2.46h-3.63V240.2Zm22.3,0v3.62h-3.63v2.46h3.63v3.62h2.46v-3.62h3.62v-2.46h-3.62V240.2Zm22.3,0v3.62h-3.63v2.46h3.63v3.62h2.45v-3.62h3.63v-2.46h-3.63V240.2Zm22.3,0v3.62h-3.63v2.46H182v3.62h2.45v-3.62h3.63v-2.46h-3.63V240.2Zm22.3,0v3.62h-3.63v2.46h3.63v3.62h2.45v-3.62h3.63v-2.46h-3.63V240.2Z"/><path id="Trazado_16-3" data-name="Trazado 16-3" class="cls-1" d="M248.91,270.23v3.62h-3.62v2.45h3.62v3.62h2.46v-3.61H255v-2.46h-3.62v-3.62Zm-22.3,0v3.62H223v2.45h3.63v3.62h2.46v-3.61h3.63v-2.46h-3.63v-3.62Zm-220.53,0v3.62H9.7v2.45H6.08v3.62H3.62v-3.61H0v-2.46H3.63v-3.62Zm19.84,0v3.62H22.29v2.45h3.63v3.62h2.46v-3.61H32v-2.46H28.38v-3.62Zm22.3,0v3.62H44.59v2.45h3.63v3.62h2.46v-3.61H54.3v-2.46H50.68v-3.62Zm22.3,0v3.62H66.89v2.45h3.63v3.62H73v-3.61H76.6v-2.46H73v-3.62Zm22.3,0v3.62H89.19v2.45h3.63v3.62h2.45v-3.61H98.9v-2.46H95.27v-3.62Zm22.3,0v3.62h-3.63v2.45h3.63v3.62h2.45v-3.61h3.63v-2.46h-3.63v-3.62Zm22.3,0v3.62h-3.63v2.45h3.63v3.62h2.46v-3.61h3.62v-2.46h-3.62v-3.62Zm22.3,0v3.62h-3.63v2.45h3.63v3.62h2.45v-3.61h3.63v-2.46h-3.63v-3.62Zm22.3,0v3.62h-3.63v2.45H182v3.62h2.45v-3.61h3.63v-2.46h-3.63v-3.62Zm22.3,0v3.62h-3.63v2.45h3.63v3.62h2.45v-3.61h3.63v-2.46h-3.63v-3.62Z"/><path id="Trazado_17-3" data-name="Trazado 17-3" class="cls-1" d="M248.91,300.26v3.62h-3.62v2.45h3.62V310h2.46v-3.62H255v-2.45h-3.62v-3.62Zm-22.3,0v3.62H223v2.45h3.63V310h2.46v-3.62h3.63v-2.45h-3.63v-3.62Zm-220.53,0v3.62H9.7v2.45H6.08V310H3.62v-3.62H0v-2.45H3.63v-3.62Zm19.84,0v3.62H22.29v2.45h3.63V310h2.46v-3.62H32v-2.45H28.38v-3.62Zm22.3,0v3.62H44.59v2.45h3.63V310h2.46v-3.62H54.3v-2.45H50.68v-3.62Zm22.3,0v3.62H66.89v2.45h3.63V310H73v-3.62H76.6v-2.45H73v-3.62Zm22.3,0v3.62H89.19v2.45h3.63V310h2.45v-3.62H98.9v-2.45H95.27v-3.62Zm22.3,0v3.62h-3.63v2.45h3.63V310h2.45v-3.62h3.63v-2.45h-3.63v-3.62Zm22.3,0v3.62h-3.63v2.45h3.63V310h2.46v-3.62h3.62v-2.45h-3.62v-3.62Zm22.3,0v3.62h-3.63v2.45h3.63V310h2.45v-3.62h3.63v-2.45h-3.63v-3.62Zm22.3,0v3.62h-3.63v2.45H182V310h2.45v-3.62h3.63v-2.45h-3.63v-3.62Zm22.3,0v3.62h-3.63v2.45h3.63V310h2.45v-3.62h3.63v-2.45h-3.63v-3.62Z"/><path id="Trazado_18-3" data-name="Trazado 18-3" class="cls-1" d="M248.91,330.28v3.62h-3.62v2.46h3.62V340h2.46v-3.61H255V333.9h-3.62v-3.62Zm-22.3,0v3.62H223v2.46h3.63V340h2.46v-3.61h3.63V333.9h-3.63v-3.62Zm-220.53,0v3.62H9.7v2.46H6.08V340H3.62v-3.61H0V333.9H3.63v-3.62Zm19.84,0v3.62H22.29v2.46h3.63V340h2.46v-3.61H32V333.9H28.38v-3.62Zm22.3,0v3.62H44.59v2.46h3.63V340h2.46v-3.61H54.3V333.9H50.68v-3.62Zm22.3,0v3.62H66.89v2.46h3.63V340H73v-3.61H76.6V333.9H73v-3.62Zm22.3,0v3.62H89.19v2.46h3.63V340h2.45v-3.61H98.9V333.9H95.27v-3.62Zm22.3,0v3.62h-3.63v2.46h3.63V340h2.45v-3.61h3.63V333.9h-3.63v-3.62Zm22.3,0v3.62h-3.63v2.46h3.63V340h2.46v-3.61h3.62V333.9h-3.62v-3.62Zm22.3,0v3.62h-3.63v2.46h3.63V340h2.45v-3.61h3.63V333.9h-3.63v-3.62Zm22.3,0v3.62h-3.63v2.46H182V340h2.45v-3.61h3.63V333.9h-3.63v-3.62Zm22.3,0v3.62h-3.63v2.46h3.63V340h2.45v-3.61h3.63V333.9h-3.63v-3.62Z"/><path id="Trazado_19-3" data-name="Trazado 19-3" class="cls-1" d="M248.91,360.31v3.62h-3.62v2.45h3.62V370h2.46v-3.62H255v-2.45h-3.62v-3.62Zm-22.3,0v3.62H223v2.45h3.63V370h2.46v-3.62h3.63v-2.45h-3.63v-3.62Zm-220.53,0v3.62H9.7v2.45H6.08V370H3.62v-3.62H0v-2.45H3.63v-3.62Zm19.84,0v3.62H22.29v2.45h3.63V370h2.46v-3.62H32v-2.45H28.38v-3.62Zm22.3,0v3.62H44.59v2.45h3.63V370h2.46v-3.62H54.3v-2.45H50.68v-3.62Zm22.3,0v3.62H66.89v2.45h3.63V370H73v-3.62H76.6v-2.45H73v-3.62Zm22.3,0v3.62H89.19v2.45h3.63V370h2.45v-3.62H98.9v-2.45H95.27v-3.62Zm22.3,0v3.62h-3.63v2.45h3.63V370h2.45v-3.62h3.63v-2.45h-3.63v-3.62Zm22.3,0v3.62h-3.63v2.45h3.63V370h2.46v-3.62h3.62v-2.45h-3.62v-3.62Zm22.3,0v3.62h-3.63v2.45h3.63V370h2.45v-3.62h3.63v-2.45h-3.63v-3.62Zm22.3,0v3.62h-3.63v2.45H182V370h2.45v-3.62h3.63v-2.45h-3.63v-3.62Zm22.3,0v3.62h-3.63v2.45h3.63V370h2.45v-3.62h3.63v-2.45h-3.63v-3.62Z"/></g></g></g></g></svg>