<svg xmlns="http://www.w3.org/2000/svg" viewBox="0 0 137.93 48"><defs><style>.cls-1{fill:#ec4e20;}.cls-2{fill:#fff;}</style></defs><g id="Capa_2" data-name="Capa 2"><g id="Capa_12" data-name="Capa 12"><g id="Grupo_3" data-name="Grupo 3"><path id="Trazado_3" data-name="Trazado 3" class="cls-1" d="M4.72,0V4.72H0v3.2H4.72v4.73h3.2V7.93h4.72V4.73H7.92V0Z"/><g id="Grupo_2" data-name="Grupo 2"><path id="Trazado_4" data-name="Trazado 4" class="cls-2" d="M94.29,17a4.38,4.38,0,0,0-4.37-4.37H85.13V27.06h1.6V21.4h3.19l.37,0,2.6,5.68h1.76L91.85,21A4.39,4.39,0,0,0,94.29,17m-4.37,2.77H86.73V14.25h3.19a2.77,2.77,0,0,1,0,5.54M37.48,22.66c0,2.14-1.44,3-3.19,3s-3.2-.86-3.2-3v-10h-1.6v10c0,2.83,2,4.59,4.8,4.59s4.79-1.76,4.79-4.59v-10h-1.6Zm-15,1.1-2.13-11.1H18.39l-2.12,11.1-2-11.1H12.64l2.77,14.4H17.1l2.27-11.15,2.26,11.15h1.69l2.77-14.41H24.46Zm54.68,9.63H72.35V47.8H74V42.14h3.19a4.38,4.38,0,0,0,0-8.75m0,7.14H74V35h3.19a2.77,2.77,0,0,1,0,5.53M117.7,12.66l-4.6,14.4h1.67l1.06-3.31h5.46l1.06,3.31H124l-4.6-14.41Zm-1.35,9.49,2.21-6.94,2.22,6.94Zm-12.44,11a4.67,4.67,0,0,0-4.67,4.67v5.46a4.67,4.67,0,1,0,9.33,0V37.86a4.66,4.66,0,0,0-4.66-4.67M107,43.33a3.07,3.07,0,0,1-6.13,0V37.86a3.07,3.07,0,1,1,6.13,0ZM48.45,33.19a4.67,4.67,0,0,0-4.66,4.67v5.46a4.67,4.67,0,1,0,9.33,0V37.86a4.66,4.66,0,0,0-4.66-4.67m3.07,10.14a3.07,3.07,0,0,1-6.14,0V37.86a3.07,3.07,0,0,1,6.14,0Zm.14-19.58-6.51-11.1H43.64V27.06h1.6V16l6.51,11.1h1.52V12.65h-1.6Zm84.66-11.1v11.1l-6.52-11.1h-1.5V27.06h1.6V16l6.51,11.1h1.51V12.65ZM121.77,44.5l-6.51-11.11h-1.52V47.8h1.6V36.7l6.52,11.1h1.51V33.39h-1.6ZM67.31,22.4V17.33a4.68,4.68,0,0,0-4.67-4.67H57.86v14.4h4.78a4.67,4.67,0,0,0,4.67-4.67m-7.86-8.14h3.19a3.07,3.07,0,0,1,3.07,3.08h0v5.06a3.06,3.06,0,0,1-3.07,3.07H59.45ZM80.92,25.46H73.7V20.64h6.44V19H73.7V14.25h7.22v-1.6H72.11V27.06h8.81Zm23-5.7-3.59-7.11H98.65V27.06h1.6V16l3.14,6.35h1L107.56,16v11.1h1.6V12.65H107.5ZM13.42,35h5.15V47.8h1.6V35h5.14v-1.6H13.43Zm24,4.8H31.15V33.38h-1.6V47.79h1.6v-6.4h6.27v6.4H39V33.38h-1.6Zm53.54,0-2.29-.91c-1.55-.65-1.77-1.38-1.77-2a1.8,1.8,0,0,1,.66-1.43,3.46,3.46,0,0,1,2.22-.66,3.36,3.36,0,0,1,2.24.69,2.23,2.23,0,0,1,.71,1.75v.26h1.6v-.26c0-2.49-1.86-4-4.55-4s-4.48,1.53-4.48,3.7c0,1.93,1.37,3,3,3.61l2,.82c2,.77,2.55,1.33,2.55,2.51a2.32,2.32,0,0,1-.78,1.83,3.75,3.75,0,0,1-2.42.75,3.88,3.88,0,0,1-2.46-.73A2.17,2.17,0,0,1,86.5,44V43.6H84.91V44c0,2.49,2,4,4.81,4s4.79-1.64,4.79-4.18-1.88-3.35-3.56-4m-28.37.68L59,33.39H57.32V47.8h1.6V36.7L62.07,43h1l3.14-6.34V47.8h1.6V33.39H66.17Z"/></g></g></g></g></svg>