<svg xmlns="http://www.w3.org/2000/svg" viewBox="0 0 143.25 143.25"><defs><style>.cls-1{fill:#fff;}.cls-2{fill:#0d4be3;}</style></defs><g id="Capa_2" data-name="Capa 2"><g id="Capa_1-2" data-name="Capa 1"><g id="Grupo_355" data-name="Grupo 355"><circle id="Elipse_66" data-name="Elipse 66" class="cls-1" cx="71.62" cy="71.62" r="71.62"/><g id="Grupo_319" data-name="Grupo 319"><path id="Trazado_3172" data-name="Trazado 3172" class="cls-2" d="M72.86,49H71c-24.34,0-35.1,20.25-35.2,20.45a1.39,1.39,0,0,0,0,1.3c.11.2,10.78,19.55,34.81,20.69a4.72,4.72,0,0,0,1.3,0h.93a1.57,1.57,0,0,0,.37,0c24-1.14,34.71-20.49,34.82-20.69a1.39,1.39,0,0,0,0-1.3C108,69.28,97.2,49,72.86,49Zm-.92,3.07A15.49,15.49,0,1,1,56.45,67.59,15.51,15.51,0,0,1,71.94,52.1Zm0,36.63C51.17,88.3,40.73,73.42,38.66,70.11,40.29,67.4,47.3,57,60.7,53.22a18.27,18.27,0,1,0,22.47,0c13.4,3.8,20.41,14.18,22,16.89C103.15,73.42,92.7,88.3,71.93,88.73Z"/><circle id="Elipse_74" data-name="Elipse 74" class="cls-2" cx="71.94" cy="67.59" r="4.79"/><path id="Trazado_3173" data-name="Trazado 3173" class="cls-2" d="M45.7,48.69a1.38,1.38,0,0,0,1.19.67,1.42,1.42,0,0,0,.72-.2,1.39,1.39,0,0,0,.47-1.91h0L40.92,35.38A1.38,1.38,0,0,0,39,34.91h0a1.38,1.38,0,0,0-.47,1.91h0Z"/><path id="Trazado_3174" data-name="Trazado 3174" class="cls-2" d="M71.94,42.11a1.39,1.39,0,0,0,1.39-1.39h0V28.94a1.39,1.39,0,0,0-1.39-1.39h0a1.39,1.39,0,0,0-1.39,1.39V40.72a1.39,1.39,0,0,0,1.39,1.39Z"/><path id="Trazado_3175" data-name="Trazado 3175" class="cls-2" d="M96.76,49.16a1.39,1.39,0,0,0,1.91-.47l7.16-11.87a1.39,1.39,0,0,0-2.38-1.44h0L96.29,47.25a1.39,1.39,0,0,0,.46,1.91Z"/><path id="Trazado_3176" data-name="Trazado 3176" class="cls-2" d="M98.67,93.58a1.39,1.39,0,0,0-1.91-.47h0A1.38,1.38,0,0,0,96.29,95l7.16,11.87a1.38,1.38,0,0,0,1.19.67,1.42,1.42,0,0,0,.72-.2,1.4,1.4,0,0,0,.47-1.91Z"/><path id="Trazado_3177" data-name="Trazado 3177" class="cls-2" d="M72.43,100.15A1.39,1.39,0,0,0,71,101.54h0v11.79a1.39,1.39,0,1,0,2.78,0V101.54a1.39,1.39,0,0,0-1.39-1.39Z"/><path id="Trazado_3178" data-name="Trazado 3178" class="cls-2" d="M47.61,93.11a1.39,1.39,0,0,0-1.91.46h0l-7.16,11.87a1.39,1.39,0,0,0,.47,1.91,1.42,1.42,0,0,0,.72.2,1.38,1.38,0,0,0,1.19-.67L48.08,95a1.38,1.38,0,0,0-.47-1.91Z"/></g></g></g></g></svg>