<svg xmlns="http://www.w3.org/2000/svg" viewBox="0 0 143.25 142.68"><defs><style>.cls-1{fill:#fff;}.cls-2{fill:#0d4be3;}</style></defs><g id="Capa_2" data-name="Capa 2"><g id="Capa_1-2" data-name="Capa 1"><g id="Grupo_357" data-name="Grupo 357"><ellipse id="Elipse_68" data-name="Elipse 68" class="cls-1" cx="71.62" cy="71.34" rx="71.62" ry="71.34"/><g id="Grupo_321" data-name="Grupo 321"><path id="Trazado_3185" data-name="Trazado 3185" class="cls-2" d="M72.42,81.77A5.57,5.57,0,0,0,78,76.21H75.2a2.78,2.78,0,0,1-5.56,0H66.85A5.58,5.58,0,0,0,72.42,81.77Z"/><path id="Trazado_3186" data-name="Trazado 3186" class="cls-2" d="M96.35,93.84l-14.2-4.73v-3.9a15.3,15.3,0,0,0,5-7.7,6.92,6.92,0,0,0,6.13-6.87V59.52A21,21,0,0,0,81.36,40.67l-1.2,2.52A18.14,18.14,0,0,1,90.49,59.52v5.6a7,7,0,0,0-2.78-1.29V60.91H84.93v3.82A29.5,29.5,0,0,1,74.64,59.8l-1.33-1-.75,1.49a7.68,7.68,0,0,0-.72,4.5l-.69-.1a25.9,25.9,0,0,1-11.25-4.5V56.74H57.12v7.09a7,7,0,0,0-2.78,1.29v-5.6A18.17,18.17,0,0,1,64.67,43.19l-1.19-2.52A21,21,0,0,0,51.56,59.52V70.65a6.93,6.93,0,0,0,6.13,6.86,15.3,15.3,0,0,0,5,7.7v3.9l-14.2,4.73a9.71,9.71,0,0,0-6.65,9.24v10.67H103V103.08A9.74,9.74,0,0,0,96.35,93.84Zm-13-1.41L81.21,103l-6.65-4.75,6.57-6.57Zm7.16-21.79a4.16,4.16,0,0,1-2.84,3.94c0-.39.06-.77.06-1.16V66.73a4.15,4.15,0,0,1,2.78,3.91Zm-36.15,0a4.16,4.16,0,0,1,2.78-3.91v6.7c0,.39,0,.77.06,1.15a4.18,4.18,0,0,1-2.84-3.94Zm5.56,2.79V63.52a28.56,28.56,0,0,0,10.86,3.92l5.48.78-1.19-2.37a4.83,4.83,0,0,1-.48-2.7,32.11,32.11,0,0,0,10.36,4.41v5.87a12.52,12.52,0,0,1-25,0ZM72.42,88.72a15.29,15.29,0,0,0,7-1.68v2.5l-7,6.95-7-6.95V87a15.18,15.18,0,0,0,7,1.69Zm-8.72,3,6.57,6.57L63.62,103,61.5,92.43ZM100.22,111H91.88v-5.56H89.1V111H55.73v-5.56H53V111H44.61v-7.9a6.94,6.94,0,0,1,4.75-6.59l9.49-3.16,2.89,14.47,10.68-7.63,10.67,7.63L86,93.32l9.49,3.16a6.92,6.92,0,0,1,4.75,6.59Z"/><circle id="Elipse_75" data-name="Elipse 75" class="cls-2" cx="65.46" cy="69.25" r="1.39"/><circle id="Elipse_76" data-name="Elipse 76" class="cls-2" cx="79.37" cy="69.25" r="1.39"/><path id="Trazado_3187" data-name="Trazado 3187" class="cls-2" d="M108.57,27.54a7,7,0,0,0-6.95,7v2.78h2.78V34.49a4.17,4.17,0,0,1,8.34,0v.83a4.14,4.14,0,0,1-.92,2.61l-4.64,5.81V48.4H110V44.71l4-5a7,7,0,0,0,1.52-4.35v-.83A7,7,0,0,0,108.57,27.54Z"/><rect id="Rectángulo_494" data-name="Rectángulo 494" class="cls-2" x="107.18" y="51.18" width="2.78" height="2.78"/><path id="Trazado_3188" data-name="Trazado 3188" class="cls-2" d="M103,55.35a7,7,0,0,0-7,6.95v2.78h2.78V62.3a4.18,4.18,0,0,1,8.35,0v.83a4.19,4.19,0,0,1-.92,2.61l-4.64,5.81v4.66h2.78V72.52l4-5A7,7,0,0,0,110,63.13V62.3A7,7,0,0,0,103,55.35Z"/><rect id="Rectángulo_495" data-name="Rectángulo 495" class="cls-2" x="101.62" y="78.99" width="2.78" height="2.78"/><path id="Trazado_3189" data-name="Trazado 3189" class="cls-2" d="M68.25,34.49a4.17,4.17,0,1,1,8.34,0v.83a4.14,4.14,0,0,1-.92,2.61L71,43.74V48.4h2.78V44.71l4-5a7,7,0,0,0,1.52-4.35v-.83a7,7,0,0,0-13.9,0v2.78h2.78Z"/><rect id="Rectángulo_496" data-name="Rectángulo 496" class="cls-2" x="71.03" y="51.18" width="2.78" height="2.78"/><path id="Trazado_3190" data-name="Trazado 3190" class="cls-2" d="M37.66,34.49a4.17,4.17,0,1,1,8.34,0v.83a4.18,4.18,0,0,1-.91,2.61l-4.65,5.81V48.4h2.78V44.71l4-5a7,7,0,0,0,1.52-4.35v-.83a6.95,6.95,0,1,0-13.9,0v2.78h2.78Z"/><rect id="Rectángulo_497" data-name="Rectángulo 497" class="cls-2" x="40.44" y="51.18" width="2.78" height="2.78"/><path id="Trazado_3191" data-name="Trazado 3191" class="cls-2" d="M43.22,62.3a7,7,0,0,0-13.91,0v2.78h2.78V62.3a4.18,4.18,0,0,1,8.35,0v.83a4.14,4.14,0,0,1-.92,2.61l-4.64,5.81v4.66h2.78V72.52l4-5a7,7,0,0,0,1.53-4.35Z"/><rect id="Rectángulo_498" data-name="Rectángulo 498" class="cls-2" x="34.88" y="78.99" width="2.78" height="2.78"/></g></g></g></g></svg>