<svg xmlns="http://www.w3.org/2000/svg" viewBox="0 0 379.12 395.61"><defs><style>.cls-1{fill:none;}.cls-1,.cls-10,.cls-11,.cls-12,.cls-13,.cls-14,.cls-15,.cls-16,.cls-17,.cls-18,.cls-19,.cls-2,.cls-20,.cls-21,.cls-22,.cls-23,.cls-24,.cls-25,.cls-26,.cls-27,.cls-28,.cls-29,.cls-3,.cls-30,.cls-31,.cls-32,.cls-33,.cls-4,.cls-5,.cls-6,.cls-7,.cls-8,.cls-9{stroke:#fff;stroke-miterlimit:10;stroke-width:0.94px;stroke-dasharray:3.76;}.cls-2{fill:#f5d3d3;}.cls-3{fill:#eca9a8;}.cls-4{fill:#d53f40;}.cls-5{fill:#b53939;}.cls-6{fill:#f6e4d3;}.cls-7{fill:#ecc9a9;}.cls-8{fill:#e3b07f;}.cls-9{fill:#d58940;}.cls-10{fill:#f7f9e5;}.cls-11{fill:#f2f2c5;}.cls-12{fill:#e3e37f;}.cls-13{fill:#e4d47f;}.cls-14{fill:#d3f4d3;}.cls-15{fill:#a8eca9;}.cls-16{fill:#7fe280;}.cls-17{fill:#329c33;}.cls-18{fill:#cfe0cf;}.cls-19{fill:#9fc19f;}.cls-20{fill:#2f862e;}.cls-21{fill:#2a762b;}.cls-22{fill:#e0eef8;}.cls-23{fill:#bbdaf0;}.cls-24{fill:#83bce3;}.cls-25{fill:#3b8abd;}.cls-26{fill:#d4d2f5;}.cls-27{fill:#a9a9ec;}.cls-28{fill:#7c7ce2;}.cls-29{fill:#3737ab;}.cls-30{fill:#fae9fa;}.cls-31{fill:#f5d4f5;}.cls-32{fill:#e37fe3;}.cls-33{fill:#bb3bbb;}.cls-34{fill:#ffdd67;}.cls-35{fill:#664e27;}.cls-36{fill:#4c3526;}.cls-37{fill:#ff717f;}.cls-38{fill:#fff;}.cls-39{fill:#917524;}.cls-40{opacity:0.8;}.cls-41{fill:#f46767;}.cls-42{fill:#cccfd4;}.cls-43{fill:#65b1ef;}.cls-44{fill:#494949;}.cls-45{fill:#d8d8d8;}.cls-46{fill:#d8a941;}.cls-47{fill:#ef5350;}.cls-48{fill:#302424;}</style></defs><g id="Capa_2" data-name="Capa 2"><g id="Capa_1-2" data-name="Capa 1"><g id="Grupo_352" data-name="Grupo 352"><g id="Grupo_323" data-name="Grupo 323"><path id="Trazado_3255" data-name="Trazado 3255" class="cls-1" d="M49.21,219.7C18.59,211,.79,197.81.79,197.81c0,54.39,21.13,103.63,55.29,139.27,0,0,3.67-22.44,19.4-51.21A150.8,150.8,0,0,1,49.21,219.7Z"/><path id="Trazado_3256" data-name="Trazado 3256" class="cls-1" d="M168.58,51.36c8.37-31.95,21-50.52,21-50.52-52.13,0-99.32,22-133.48,57.69,0,0,21.5,3.83,49.08,20.25A138,138,0,0,1,168.58,51.36Z"/><path id="Trazado_3257" data-name="Trazado 3257" class="cls-1" d="M75.49,109.74C59.75,81,56.09,58.53,56.09,58.53,21.92,94.17.8,143.41.8,197.81c0,0,17.79-13.16,48.41-21.9A150.79,150.79,0,0,1,75.49,109.74Z"/><path id="Trazado_3258" data-name="Trazado 3258" class="cls-1" d="M105.16,316.84c-27.57,16.42-49.08,20.24-49.08,20.24,34.16,35.65,81.35,57.69,133.48,57.69,0,0-12.61-18.56-21-50.51A138.21,138.21,0,0,1,105.16,316.84Z"/><path id="Trazado_3259" data-name="Trazado 3259" class="cls-1" d="M274,78.78C301.54,62.36,323,58.53,323,58.53s-3.66,22.44-19.4,51.21a150.69,150.69,0,0,1,26.28,66.17c30.62,8.74,48.42,21.9,48.42,21.9h0C378.34,89,293.82.84,189.57.84c0,0,12.61,18.57,21,50.52A138,138,0,0,1,274,78.78Z"/><path id="Trazado_3260" data-name="Trazado 3260" class="cls-1" d="M210.54,344.26c-8.37,31.95-21,50.51-21,50.51,52.13,0,99.32-22,133.48-57.69,0,0-21.5-3.82-49.08-20.24A138.21,138.21,0,0,1,210.54,344.26Z"/><path id="Trazado_3261" data-name="Trazado 3261" class="cls-1" d="M303.64,285.87c15.74,28.77,19.4,51.21,19.4,51.21,34.16-35.64,55.29-84.88,55.29-139.27,0,0-17.79,13.15-48.42,21.89A150.68,150.68,0,0,1,303.64,285.87Z"/><path id="Trazado_3262" data-name="Trazado 3262" class="cls-1" d="M281.55,142.54A113,113,0,0,1,292.07,169a197.14,197.14,0,0,1,37.85,6.9,150.78,150.78,0,0,0-26.28-66.18A214.52,214.52,0,0,1,281.55,142.54Z"/><path id="Trazado_3263" data-name="Trazado 3263" class="cls-1" d="M97.57,142.54a215.19,215.19,0,0,1-22.08-32.8,150.69,150.69,0,0,0-26.28,66.17A197.77,197.77,0,0,1,87.06,169,112.62,112.62,0,0,1,97.57,142.54Z"/><path id="Trazado_3264" data-name="Trazado 3264" class="cls-1" d="M136.59,293.79a205.63,205.63,0,0,1-31.43,23,138.21,138.21,0,0,0,63.42,27.42,223.81,223.81,0,0,1-6.61-39.5A103.15,103.15,0,0,1,136.59,293.79Z"/><path id="Trazado_3265" data-name="Trazado 3265" class="cls-1" d="M162,90.85a222.94,222.94,0,0,1,6.61-39.49,138,138,0,0,0-63.42,27.42,205.08,205.08,0,0,1,31.43,23A103.15,103.15,0,0,1,162,90.85Z"/><path id="Trazado_3266" data-name="Trazado 3266" class="cls-1" d="M217.15,304.76a222,222,0,0,1-6.61,39.5A138.12,138.12,0,0,0,274,316.84a206.12,206.12,0,0,1-31.43-23A103,103,0,0,1,217.15,304.76Z"/><path id="Trazado_3267" data-name="Trazado 3267" class="cls-1" d="M242.53,101.82a206.06,206.06,0,0,1,31.43-23,137.91,137.91,0,0,0-63.42-27.42,222,222,0,0,1,6.61,39.49A103,103,0,0,1,242.53,101.82Z"/><path id="Trazado_3268" data-name="Trazado 3268" class="cls-1" d="M87.06,226.6a198.55,198.55,0,0,1-37.85-6.9,150.79,150.79,0,0,0,26.28,66.17,214.46,214.46,0,0,1,22.08-32.8A112.8,112.8,0,0,1,87.06,226.6Z"/><path id="Trazado_3269" data-name="Trazado 3269" class="cls-1" d="M281.55,253.07a215.5,215.5,0,0,1,22.09,32.8,150.93,150.93,0,0,0,26.28-66.17,197.14,197.14,0,0,1-37.85,6.9A112.91,112.91,0,0,1,281.55,253.07Z"/><path id="Trazado_3270" data-name="Trazado 3270" class="cls-1" d="M216.33,130.39l.57-1.44Z"/><path id="Trazado_3271" data-name="Trazado 3271" class="cls-1" d="M162.23,129a229.72,229.72,0,0,1-.26-38.1,103.15,103.15,0,0,0-25.38,11A217.1,217.1,0,0,1,162.23,129Z"/><path id="Trazado_3272" data-name="Trazado 3272" class="cls-1" d="M255.55,169.29l-1.38.59h0l1.38-.59a202.49,202.49,0,0,1,36.52-.27,113,113,0,0,0-10.52-26.48A217.58,217.58,0,0,1,255.55,169.29Z"/><path id="Trazado_3273" data-name="Trazado 3273" class="cls-1" d="M123.57,169.29a216.87,216.87,0,0,1-26-26.75A112.53,112.53,0,0,0,87.06,169,202.39,202.39,0,0,1,123.57,169.29Z"/><path id="Trazado_3274" data-name="Trazado 3274" class="cls-1" d="M123.57,226.33l1.38-.6h0Z"/><path id="Trazado_3275" data-name="Trazado 3275" class="cls-1" d="M255.55,226.33a216.79,216.79,0,0,1,26,26.74,112.65,112.65,0,0,0,10.52-26.47A204.34,204.34,0,0,1,255.55,226.33Z"/><path id="Trazado_3276" data-name="Trazado 3276" class="cls-1" d="M216.9,266.66a230.82,230.82,0,0,1,.25,38.1,103,103,0,0,0,25.38-11A217,217,0,0,1,216.9,266.66Z"/><path id="Trazado_3277" data-name="Trazado 3277" class="cls-1" d="M123.57,226.33l1.38-.6h0l-1.38.6a204.24,204.24,0,0,1-36.51.27,112.62,112.62,0,0,0,10.51,26.47A216.79,216.79,0,0,1,123.57,226.33Z"/><path id="Trazado_3278" data-name="Trazado 3278" class="cls-1" d="M162.23,266.66l.57-1.44h0l-.57,1.44a217.1,217.1,0,0,1-25.64,27.13,103.15,103.15,0,0,0,25.38,11A229.73,229.73,0,0,1,162.23,266.66Z"/><path id="Trazado_3279" data-name="Trazado 3279" class="cls-1" d="M216.9,129a217,217,0,0,1,25.63-27.13,103,103,0,0,0-25.38-11A230.81,230.81,0,0,1,216.9,129Z"/><path id="Trazado_3280" data-name="Trazado 3280" class="cls-1" d="M189.56,197.81h0l26.77-67.42h0Z"/><path id="Trazado_3282" data-name="Trazado 3282" class="cls-1" d="M189.56,197.81l64.61-27.93h0Z"/><path id="Trazado_3283" data-name="Trazado 3283" class="cls-1" d="M162.8,265.22h0l26.76-67.41Z"/><path id="Trazado_3284" data-name="Trazado 3284" class="cls-1" d="M189.56,197.81,125,225.73h0Z"/><path id="Trazado_3289" data-name="Trazado 3289" class="cls-1" d="M189.56,197.81,125,225.73h0Z"/><path id="Trazado_3290" data-name="Trazado 3290" class="cls-2" d="M47.66,197.81a155.83,155.83,0,0,1,1.55-21.9C18.59,184.65.79,197.81.79,197.81S18.59,211,49.21,219.7A155.68,155.68,0,0,1,47.66,197.81Z"/><path id="Trazado_3291" data-name="Trazado 3291" class="cls-3" d="M83.43,197.81A115,115,0,0,1,87.06,169a197,197,0,0,0-37.85,6.9,155.35,155.35,0,0,0,0,43.78,197,197,0,0,0,37.85,6.9A115.1,115.1,0,0,1,83.43,197.81Z"/><path id="Trazado_3292" data-name="Trazado 3292" class="cls-4" d="M123.57,226.33l1.38-.6a76.08,76.08,0,0,1,0-55.85l-1.38-.6A202.39,202.39,0,0,0,87.06,169a116,116,0,0,0,0,57.58A203.31,203.31,0,0,0,123.57,226.33Z"/><path id="Trazado_3293" data-name="Trazado 3293" class="cls-5" d="M125,169.88a76.08,76.08,0,0,0,0,55.85l64.61-27.92Z"/><path id="Trazado_3295" data-name="Trazado 3295" class="cls-6" d="M105.16,78.78C77.59,62.36,56.08,58.53,56.08,58.53h0S59.75,81,75.48,109.74A146,146,0,0,1,105.16,78.78Z"/><path id="Trazado_3296" data-name="Trazado 3296" class="cls-7" d="M136.59,101.82a205.08,205.08,0,0,0-31.43-23,145.72,145.72,0,0,0-29.67,31,215.19,215.19,0,0,0,22.08,32.8A109.16,109.16,0,0,1,136.59,101.82Z"/><path id="Trazado_3297" data-name="Trazado 3297" class="cls-8" d="M123.57,169.29l1.38.59a71.77,71.77,0,0,1,37.85-39.49l-.57-1.44a217.1,217.1,0,0,0-25.64-27.13,109.16,109.16,0,0,0-39,40.72A216.87,216.87,0,0,0,123.57,169.29Z"/><path id="Trazado_3298" data-name="Trazado 3298" class="cls-1" d="M123.57,169.29l1.38.6h0Z"/><path id="Trazado_3299" data-name="Trazado 3299" class="cls-9" d="M162.8,130.39A71.77,71.77,0,0,0,125,169.88l64.61,27.93Z"/><path id="Trazado_3300" data-name="Trazado 3300" class="cls-1" d="M189.56,197.81,125,169.88h0Z"/><path id="Trazado_3301" data-name="Trazado 3301" class="cls-10" d="M189.56,49.75a136.39,136.39,0,0,1,21,1.61c-8.37-31.95-21-50.52-21-50.52s-12.61,18.57-21,50.52A136.48,136.48,0,0,1,189.56,49.75Z"/><path id="Trazado_3302" data-name="Trazado 3302" class="cls-11" d="M189.56,87.06a102.09,102.09,0,0,1,27.59,3.79,222,222,0,0,0-6.61-39.49,137.5,137.5,0,0,0-42,0A222.94,222.94,0,0,0,162,90.85,102.14,102.14,0,0,1,189.56,87.06Z"/><path id="Trazado_3303" data-name="Trazado 3303" class="cls-12" d="M162.23,129l.57,1.44a67.42,67.42,0,0,1,53.53,0l.57-1.44a230.81,230.81,0,0,0,.25-38.1,102.32,102.32,0,0,0-55.18,0A229.72,229.72,0,0,0,162.23,129Z"/><path id="Trazado_3304" data-name="Trazado 3304" class="cls-13" d="M189.56,197.81l26.77-67.42a67.42,67.42,0,0,0-53.53,0Z"/><path id="Trazado_3306" data-name="Trazado 3306" class="cls-14" d="M303.64,109.74C319.38,81,323,58.53,323,58.53S301.54,62.36,274,78.78A145.77,145.77,0,0,1,303.64,109.74Z"/><path id="Trazado_3307" data-name="Trazado 3307" class="cls-15" d="M281.55,142.54a214.52,214.52,0,0,0,22.09-32.8,145.8,145.8,0,0,0-29.68-31,206.12,206.12,0,0,0-31.43,23A109.08,109.08,0,0,1,281.55,142.54Z"/><path id="Trazado_3308" data-name="Trazado 3308" class="cls-1" d="M255.55,169.29l-1.38.6h0Z"/><path id="Trazado_3309" data-name="Trazado 3309" class="cls-16" d="M242.53,101.82A217,217,0,0,0,216.9,129l-.57,1.44a71.75,71.75,0,0,1,37.84,39.49l1.38-.59a217.58,217.58,0,0,0,26-26.75A109.08,109.08,0,0,0,242.53,101.82Z"/><path id="Trazado_3310" data-name="Trazado 3310" class="cls-1" d="M189.56,197.81l64.61-27.93h0Z"/><path id="Trazado_3311" data-name="Trazado 3311" class="cls-17" d="M189.56,197.81l64.61-27.93a71.75,71.75,0,0,0-37.84-39.49l-26.77,67.42Z"/><path id="Trazado_3316" data-name="Trazado 3316" class="cls-18" d="M329.92,175.91a156.42,156.42,0,0,1,0,43.79c30.62-8.74,48.41-21.89,48.41-21.89h0S360.54,184.65,329.92,175.91Z"/><path id="Trazado_3317" data-name="Trazado 3317" class="cls-19" d="M295.7,197.81a116,116,0,0,1-3.63,28.79,198.69,198.69,0,0,0,37.85-6.9,156.42,156.42,0,0,0,0-43.79,197.91,197.91,0,0,0-37.85-6.9A116,116,0,0,1,295.7,197.81Z"/><path id="Trazado_3318" data-name="Trazado 3318" class="cls-20" d="M255.55,169.29l-1.38.59a76.08,76.08,0,0,1,0,55.85l1.38.6-1.38-.6h0l1.38.6a202.49,202.49,0,0,0,36.52.27,116,116,0,0,0,0-57.58A202.49,202.49,0,0,0,255.55,169.29Z"/><path id="Trazado_3319" data-name="Trazado 3319" class="cls-21" d="M254.17,225.73a76.08,76.08,0,0,0,0-55.85l-64.61,27.93Z"/><path id="Trazado_3320" data-name="Trazado 3320" class="cls-1" d="M189.56,197.81h0l64.61,27.92h0Z"/><path id="Trazado_3323" data-name="Trazado 3323" class="cls-22" d="M274,316.84C301.54,333.26,323,337.08,323,337.08h0s-3.66-22.44-19.4-51.21A145.8,145.8,0,0,1,274,316.84Z"/><path id="Trazado_3324" data-name="Trazado 3324" class="cls-23" d="M242.53,293.79a206.12,206.12,0,0,0,31.43,23,145.8,145.8,0,0,0,29.68-31,214.52,214.52,0,0,0-22.09-32.8A109.08,109.08,0,0,1,242.53,293.79Z"/><path id="Trazado_3325" data-name="Trazado 3325" class="cls-24" d="M255.55,226.33l-1.38-.6a71.75,71.75,0,0,1-37.84,39.49l.57,1.44-.57-1.44h0l.57,1.44a217,217,0,0,0,25.63,27.13,109.08,109.08,0,0,0,39-40.72A216.09,216.09,0,0,0,255.55,226.33Z"/><path id="Trazado_3326" data-name="Trazado 3326" class="cls-25" d="M216.33,265.22a71.72,71.72,0,0,0,37.84-39.49l-64.61-27.92Z"/><path id="Trazado_3327" data-name="Trazado 3327" class="cls-1" d="M189.56,197.81l26.77,67.41h0Z"/><path id="Trazado_3328" data-name="Trazado 3328" class="cls-26" d="M189.56,345.87a137.75,137.75,0,0,1-21-1.61c8.37,31.95,21,50.51,21,50.51h0s12.61-18.56,21-50.51A137.65,137.65,0,0,1,189.56,345.87Z"/><path id="Trazado_3329" data-name="Trazado 3329" class="cls-27" d="M189.56,308.55A102.14,102.14,0,0,1,162,304.76a223.81,223.81,0,0,0,6.61,39.5,137.5,137.5,0,0,0,42,0,222,222,0,0,0,6.61-39.5A102.09,102.09,0,0,1,189.56,308.55Z"/><path id="Trazado_3330" data-name="Trazado 3330" class="cls-28" d="M216.9,266.66l-.57-1.44a67.42,67.42,0,0,1-53.53,0l-.57,1.44a229.73,229.73,0,0,0-.26,38.1,102.32,102.32,0,0,0,55.18,0A230.82,230.82,0,0,0,216.9,266.66Z"/><path id="Trazado_3331" data-name="Trazado 3331" class="cls-29" d="M162.8,265.22a67.42,67.42,0,0,0,53.53,0l-26.77-67.41Z"/><path id="Trazado_3333" data-name="Trazado 3333" class="cls-30" d="M75.49,285.87c-15.74,28.77-19.4,51.21-19.4,51.21h0s21.5-3.82,49.08-20.24A145.8,145.8,0,0,1,75.49,285.87Z"/><path id="Trazado_3334" data-name="Trazado 3334" class="cls-31" d="M97.57,253.07a216.18,216.18,0,0,0-22.08,32.8,145.77,145.77,0,0,0,29.67,31,205.63,205.63,0,0,0,31.43-23A109.08,109.08,0,0,1,97.57,253.07Z"/><path id="Trazado_3335" data-name="Trazado 3335" class="cls-32" d="M162.23,266.66l.57-1.44h0l-.57,1.44.57-1.44A71.73,71.73,0,0,1,125,225.73l-1.38.6a216.17,216.17,0,0,0-26,26.75,109.16,109.16,0,0,0,39,40.72A217.18,217.18,0,0,0,162.23,266.66Z"/><path id="Trazado_3336" data-name="Trazado 3336" class="cls-1" d="M189.56,197.81,162.8,265.22h0Z"/><path id="Trazado_3337" data-name="Trazado 3337" class="cls-33" d="M125,225.73a71.73,71.73,0,0,0,37.85,39.49l26.76-67.41Z"/></g><g id="Grupo_351" data-name="Grupo 351"><g id="Grupo_324" data-name="Grupo 324"><path id="Trazado_3338" data-name="Trazado 3338" class="cls-34" d="M190.12,92.26a13.19,13.19,0,1,1-12.63,13.17A12.9,12.9,0,0,1,190.12,92.26Z"/><path id="Trazado_3339" data-name="Trazado 3339" class="cls-35" d="M197.56,106.5c-.17-.23-.47-.19-.8-.19H183.48c-.33,0-.64,0-.81.19-1.64,2.19.29,8.59,7.45,8.59S199.21,108.69,197.56,106.5Z"/><path id="Trazado_3340" data-name="Trazado 3340" class="cls-36" d="M190.89,109.71c-.24,0-.62.23-.48.86.07.32.5.7.5,1.22a.81.81,0,0,1-.89.7.79.79,0,0,1-.7-.7c0-.52.43-.9.5-1.22.14-.63-.24-.86-.48-.86a2,2,0,0,0-1.75,2,2.54,2.54,0,0,0,2.52,2.56h0a2.53,2.53,0,0,0,2.52-2.56A2,2,0,0,0,190.89,109.71Z"/><path id="Trazado_3341" data-name="Trazado 3341" class="cls-37" d="M186.87,113.63a8.19,8.19,0,0,0,6.49,0,7.58,7.58,0,0,0-6.49,0Z"/><path id="Trazado_3342" data-name="Trazado 3342" class="cls-38" d="M196.41,107.19H183.82c-.86,0-.86,1.76,0,1.76h12.63C197.27,109,197.27,107.19,196.41,107.19Z"/><path id="Trazado_3343" data-name="Trazado 3343" class="cls-35" d="M185.27,99.28a2.2,2.2,0,1,1-2.1,2.2A2.15,2.15,0,0,1,185.27,99.28Z"/><path id="Trazado_3344" data-name="Trazado 3344" class="cls-35" d="M195,99.28a2.2,2.2,0,0,1,0,4.4,2.2,2.2,0,0,1,0-4.4Z"/></g><g id="Grupo_325" data-name="Grupo 325"><path id="Trazado_3345" data-name="Trazado 3345" class="cls-34" d="M190.12,132.64a13.19,13.19,0,1,1-12.63,13.18A12.91,12.91,0,0,1,190.12,132.64Z"/><path id="Trazado_3346" data-name="Trazado 3346" class="cls-35" d="M198.39,140.27a.27.27,0,0,1,.11.36.26.26,0,0,1-.18.12,9.82,9.82,0,0,0-3.47,1,6.38,6.38,0,0,1,3.79,2.12c.16.21,0,.49-.23.42a13.82,13.82,0,0,0-6.67-.89c-.2,0-.38-.1-.34-.3A4.77,4.77,0,0,1,198.39,140.27Z"/><path id="Trazado_3347" data-name="Trazado 3347" class="cls-35" d="M181.84,140.27a.27.27,0,0,0-.11.36.26.26,0,0,0,.18.12,9.82,9.82,0,0,1,3.47,1,6.38,6.38,0,0,0-3.79,2.12c-.16.21,0,.49.23.42a13.82,13.82,0,0,1,6.67-.89c.21,0,.38-.1.34-.3A4.77,4.77,0,0,0,181.84,140.27Z"/><path id="Trazado_3348" data-name="Trazado 3348" class="cls-35" d="M197.56,146.89c-.17-.23-.47-.19-.8-.19H183.48c-.33,0-.64,0-.8.19-1.65,2.19.29,8.59,7.44,8.59S199.21,149.08,197.56,146.89Z"/><path id="Trazado_3349" data-name="Trazado 3349" class="cls-36" d="M190.89,150.1c-.24,0-.62.23-.48.85.07.32.5.7.5,1.22a.8.8,0,0,1-.89.7.79.79,0,0,1-.7-.7c0-.51.43-.9.5-1.22.14-.62-.24-.86-.48-.85a2,2,0,0,0-1.75,2,2.53,2.53,0,1,0,5,0A2,2,0,0,0,190.89,150.1Z"/><path id="Trazado_3350" data-name="Trazado 3350" class="cls-37" d="M186.87,154a8.19,8.19,0,0,0,6.49,0,7.58,7.58,0,0,0-6.49,0Z"/><path id="Trazado_3351" data-name="Trazado 3351" class="cls-38" d="M196.41,147.57H183.82c-.86,0-.86,1.76,0,1.76h12.63C197.27,149.33,197.27,147.57,196.41,147.57Z"/></g><g id="Grupo_326" data-name="Grupo 326"><path id="Trazado_3352" data-name="Trazado 3352" class="cls-34" d="M251.9,120.63a13.19,13.19,0,1,1-12.63,13.17A12.92,12.92,0,0,1,251.9,120.63Z"/><path id="Trazado_3353" data-name="Trazado 3353" class="cls-35" d="M247.8,131.43a2.2,2.2,0,1,1-2.1,2.2A2.16,2.16,0,0,1,247.8,131.43Z"/><path id="Trazado_3354" data-name="Trazado 3354" class="cls-39" d="M260,131.85a5.81,5.81,0,0,0-4.92-1.38c-.24.05-.46-.89-.16-.95a6.73,6.73,0,0,1,5.68,1.59C260.8,131.32,260.17,132,260,131.85Z"/><path id="Trazado_3355" data-name="Trazado 3355" class="cls-39" d="M248.74,128a5.81,5.81,0,0,0-4.92,1.38c-.19.17-.82-.53-.59-.74a6.68,6.68,0,0,1,5.68-1.58C249.2,127.12,249,128.06,248.74,128Z"/><path id="Trazado_3356" data-name="Trazado 3356" class="cls-35" d="M259.54,134.79a3,3,0,0,0-5.87,0c-.08.16.3.44.49.29a4.14,4.14,0,0,1,4.89,0C259.24,135.23,259.62,135,259.54,134.79Z"/><path id="Trazado_3357" data-name="Trazado 3357" class="cls-35" d="M257,138.29c-2.93,1.6-6.89,1.27-8.06,1.27-.31,0-.5.14-.42.41.84,3.06,7.16,3.06,8.89-1.2C257.62,138.29,257.27,138.14,257,138.29Z"/></g><g id="Grupo_329" data-name="Grupo 329"><path id="Trazado_3358" data-name="Trazado 3358" class="cls-34" d="M277.38,93.35a13.19,13.19,0,1,1-12.62,13.18A12.92,12.92,0,0,1,277.38,93.35Z"/><g id="Grupo_327" data-name="Grupo 327" class="cls-40"><path id="Trazado_3359" data-name="Trazado 3359" class="cls-37" d="M285.3,104.77a3.52,3.52,0,1,1-3.37,3.52A3.45,3.45,0,0,1,285.3,104.77Z"/></g><g id="Grupo_328" data-name="Grupo 328" class="cls-40"><ellipse id="Elipse_66" data-name="Elipse 66" class="cls-37" cx="269.47" cy="108.29" rx="3.37" ry="3.51"/></g><path id="Trazado_3360" data-name="Trazado 3360" class="cls-35" d="M282.68,110.17a8.49,8.49,0,0,1-10.59,0c-.41-.3-.78.21-.5.69a6.69,6.69,0,0,0,11.6,0C283.46,110.38,283.09,109.87,282.68,110.17Z"/><path id="Trazado_3361" data-name="Trazado 3361" class="cls-35" d="M275.92,104.27c-.78-2.24-2-3.37-3.14-3.37s-2.36,1.13-3.14,3.37c-.08.23.33.63.53.41a3.5,3.5,0,0,1,5.22,0C275.59,104.9,276,104.5,275.92,104.27Z"/><path id="Trazado_3362" data-name="Trazado 3362" class="cls-35" d="M285.13,104.27c-.79-2.24-2-3.37-3.14-3.37s-2.36,1.13-3.15,3.37c-.07.23.33.63.53.41a3.51,3.51,0,0,1,5.23,0C284.8,104.9,285.2,104.5,285.13,104.27Z"/></g><g id="Grupo_330" data-name="Grupo 330"><path id="Trazado_3363" data-name="Trazado 3363" class="cls-34" d="M237.15,161.33a12.64,12.64,0,1,1-12.63-13.18A12.9,12.9,0,0,1,237.15,161.33Z"/><path id="Trazado_3364" data-name="Trazado 3364" class="cls-41" d="M237.09,153.08a2.9,2.9,0,0,0-1.88-2.44,3,3,0,0,0-3.13,1.19,5.4,5.4,0,0,0-2.75-3.39,2.79,2.79,0,0,0-3.54.91c-.88,1.15-1.22,2.93-.29,5.26.88,2.18,4.8,6.59,4.92,6.72.15-.1,4.52-3,5.6-4.35A5,5,0,0,0,237.09,153.08Z"/><path id="Trazado_3365" data-name="Trazado 3365" class="cls-41" d="M223.26,149.35a2.8,2.8,0,0,0-3.55-.91,5.35,5.35,0,0,0-2.74,3.39,3.07,3.07,0,0,0-3.13-1.19,2.86,2.86,0,0,0-1.88,2.44A5,5,0,0,0,213,157c1.07,1.4,5.45,4.25,5.6,4.35.11-.13,4-4.54,4.92-6.72C224.48,152.28,224.13,150.5,223.26,149.35Z"/><path id="Trazado_3366" data-name="Trazado 3366" class="cls-35" d="M231.68,164a.89.89,0,0,0-.77-.91,31.8,31.8,0,0,0-6.39-.59h0a31.77,31.77,0,0,0-6.38.59.89.89,0,0,0-.77.91c0,3.19,2.36,6.4,7.15,6.4h0C229.32,170.39,231.68,167.18,231.68,164Z"/><path id="Trazado_3367" data-name="Trazado 3367" class="cls-38" d="M229.86,164.09a31.91,31.91,0,0,0-10.68,0c-.54.1-.58.32-.54.65s.06.43.11.68.11.41.54.36c.8-.1,9.66-.1,10.47,0,.42.05.47-.08.53-.36s.09-.49.12-.68S230.41,164.18,229.86,164.09Z"/></g><g id="Grupo_331" data-name="Grupo 331"><path id="Trazado_3368" data-name="Trazado 3368" class="cls-34" d="M190.12,57.12A13.19,13.19,0,1,1,177.49,70.3,12.92,12.92,0,0,1,190.12,57.12Z"/><path id="Trazado_3369" data-name="Trazado 3369" class="cls-35" d="M185.27,65.73a2.2,2.2,0,1,1-2.1,2.2A2.15,2.15,0,0,1,185.27,65.73Z"/><path id="Trazado_3370" data-name="Trazado 3370" class="cls-35" d="M195,65.73a2.16,2.16,0,0,1,2.1,2.2h0a2.1,2.1,0,1,1-2.1-2.2Z"/><path id="Trazado_3371" data-name="Trazado 3371" class="cls-35" d="M195.41,73.94a8.49,8.49,0,0,1-10.59,0c-.41-.3-.78.21-.5.69a6.69,6.69,0,0,0,11.6,0C196.19,74.15,195.82,73.64,195.41,73.94Z"/></g><g id="Grupo_332" data-name="Grupo 332"><path id="Trazado_3372" data-name="Trazado 3372" class="cls-34" d="M142.22,160.76A11.8,11.8,0,1,0,154,148.46,12,12,0,0,0,142.22,160.76Z"/><path id="Trazado_3373" data-name="Trazado 3373" class="cls-39" d="M146.5,152.84a5.39,5.39,0,0,1,4.74-.43c.22.08.56-.74.3-.85a6.22,6.22,0,0,0-5.46.5C145.83,152.21,146.31,153,146.5,152.84Z"/><path id="Trazado_3374" data-name="Trazado 3374" class="cls-39" d="M156.61,154.15a5.37,5.37,0,0,1,4.73-.43c.22.09.56-.74.3-.84a6.19,6.19,0,0,0-5.46.5C155.93,153.53,156.41,154.28,156.61,154.15Z"/><path id="Trazado_3375" data-name="Trazado 3375" class="cls-35" d="M150.7,162.83A7.58,7.58,0,0,1,157,164c.45.32-.4,1.51-.84,1.18a6.26,6.26,0,0,0-5.11-.91C150.54,164.38,150.13,163,150.7,162.83Z"/><path id="Trazado_3376" data-name="Trazado 3376" class="cls-38" d="M158.55,160.38a3.23,3.23,0,0,1-3.16-3.3,3.34,3.34,0,0,1,.64-2,8.43,8.43,0,0,1,2.34-.33,7.91,7.91,0,0,1,2.81.48,3.38,3.38,0,0,1,.54,1.83A3.24,3.24,0,0,1,158.55,160.38Z"/><path id="Trazado_3377" data-name="Trazado 3377" class="cls-35" d="M159,154.79a1.73,1.73,0,0,1,.28.94,1.58,1.58,0,1,1-3.16,0,1.69,1.69,0,0,1,.15-.7,8.35,8.35,0,0,1,2.11-.26C158.58,154.77,158.78,154.77,159,154.79Z"/><path id="Trazado_3378" data-name="Trazado 3378" class="cls-38" d="M149.45,160.38a3.23,3.23,0,0,1-3.16-3.3,3.34,3.34,0,0,1,.64-2,8.43,8.43,0,0,1,2.34-.33,7.91,7.91,0,0,1,2.81.48,3.38,3.38,0,0,1,.54,1.83A3.24,3.24,0,0,1,149.45,160.38Z"/><path id="Trazado_3379" data-name="Trazado 3379" class="cls-35" d="M149.89,154.79a1.65,1.65,0,0,1,.28.94,1.58,1.58,0,1,1-3.16,0,1.69,1.69,0,0,1,.15-.7,8.38,8.38,0,0,1,2.12-.26C149.48,154.77,149.69,154.77,149.89,154.79Z"/><path id="Trazado_3380" data-name="Trazado 3380" class="cls-38" d="M154.27,166.92c-1.77.45-6.25,1-7.08.14-.37-.39-.3-1-.18-2a2.19,2.19,0,0,0-1.48-2.17c-.81-.11-1.28.51-1,1.4.63,2-.57,2.59-.62,4.05a5.6,5.6,0,0,0,.93,4,5.2,5.2,0,0,0,4.61,2c1,0,1.39-.07,1.62-.53s.14-.64.24-.83c.23-.41.35-.36.45-.81s-.22-.78-.14-1c.17-.5.6-.43.17-1.64a8.89,8.89,0,0,0,3.22-1C156.55,167.7,155.21,166.68,154.27,166.92Z"/><path id="Trazado_3381" data-name="Trazado 3381" class="cls-42" d="M144.68,163.9a4,4,0,0,1-.14,3.15c-.73,1.61-1,6.07,3.48,6.92,2.75.52,3.16-.18,3-.93-.08-.48.31-.67.4-.83.29-.55-.14-.78-.15-1,0-.41.38-.4.45-.79.11-.72-.71-1,0-1a5.71,5.71,0,0,0,3.13-.93c.75-.55.23-1.62-.79-1.39-2.36.52-5.87,1.16-7.08,0-.55-.53-.11-1.13-.16-2.31C146.81,163.17,144.4,162.57,144.68,163.9Zm3.2,10.79h0a5,5,0,0,1-3.35-2.09,5.74,5.74,0,0,1-1-4,2.64,2.64,0,0,1,0-.29,4.13,4.13,0,0,1,.43-1.57,2.86,2.86,0,0,0,.21-2.34,1.52,1.52,0,0,1,.19-1.48,1.28,1.28,0,0,1,1.21-.41h.06a2.57,2.57,0,0,1,1.77,2.6c-.11,1-.15,1.42.08,1.66a1.19,1.19,0,0,0,.63.24,19.31,19.31,0,0,0,6.06-.49,1.7,1.7,0,0,1,.71,0,1.46,1.46,0,0,1,1.21,1c.06.3,0,.88-.86,1.4a8,8,0,0,1-2.92.94c.32.87-.47,1.2-.31,1.53a1,1,0,0,1-.31,1.35c-.34.33.07.7-.25,1.3s-1,.71-1.95.75a7.24,7.24,0,0,1-1.61-.12Z"/></g><g id="Grupo_333" data-name="Grupo 333"><path id="Trazado_3382" data-name="Trazado 3382" class="cls-34" d="M128.74,250.79A13.19,13.19,0,1,1,116.11,264,12.91,12.91,0,0,1,128.74,250.79Z"/><path id="Trazado_3383" data-name="Trazado 3383" class="cls-35" d="M123.9,259.83a2.2,2.2,0,0,1,0,4.4,2.2,2.2,0,0,1,0-4.4Z"/><path id="Trazado_3384" data-name="Trazado 3384" class="cls-35" d="M133.58,259.83a2.2,2.2,0,0,1,0,4.4,2.2,2.2,0,0,1,0-4.4Z"/><path id="Trazado_3385" data-name="Trazado 3385" class="cls-35" d="M131.63,271h-5.78c-.64,0-.64-1.75,0-1.75h5.78C132.26,269.24,132.26,271,131.63,271Z"/></g><g id="Grupo_334" data-name="Grupo 334"><path id="Trazado_3386" data-name="Trazado 3386" class="cls-34" d="M276.16,277.37a13.19,13.19,0,1,1-12.63,13.18A12.91,12.91,0,0,1,276.16,277.37Z"/><path id="Trazado_3387" data-name="Trazado 3387" class="cls-35" d="M271.32,286.8a2.2,2.2,0,1,1-2.1,2.2A2.16,2.16,0,0,1,271.32,286.8Z"/><path id="Trazado_3388" data-name="Trazado 3388" class="cls-35" d="M281,286.8a2.2,2.2,0,1,1-2.1,2.2A2.16,2.16,0,0,1,281,286.8Z"/></g><g id="Grupo_335" data-name="Grupo 335"><path id="Trazado_3389" data-name="Trazado 3389" class="cls-34" d="M100.78,276.21a13.19,13.19,0,1,1-12.62,13.18A12.91,12.91,0,0,1,100.78,276.21Z"/><path id="Trazado_3390" data-name="Trazado 3390" class="cls-38" d="M106.47,292.9a4.74,4.74,0,0,0,4.63-4.83,4.94,4.94,0,0,0-.43-2,10.25,10.25,0,0,0-8.4,0,4.94,4.94,0,0,0-.43,2A4.74,4.74,0,0,0,106.47,292.9Z"/><path id="Trazado_3391" data-name="Trazado 3391" class="cls-35" d="M106.68,285.16a2,2,0,0,0-.32,1.1,1.9,1.9,0,1,0,3.79,0h0a1.82,1.82,0,0,0-.06-.46A10.2,10.2,0,0,0,106.68,285.16Z"/><path id="Trazado_3392" data-name="Trazado 3392" class="cls-38" d="M95.1,292.9a4.73,4.73,0,0,0,4.63-4.83,4.93,4.93,0,0,0-.42-2,10.27,10.27,0,0,0-8.41,0,4.93,4.93,0,0,0-.42,2A4.73,4.73,0,0,0,95.1,292.9Z"/><path id="Trazado_3393" data-name="Trazado 3393" class="cls-35" d="M95.31,285.16a2,2,0,0,0-.32,1.1,1.9,1.9,0,1,0,3.79,0,1.82,1.82,0,0,0-.06-.46A10.15,10.15,0,0,0,95.31,285.16Z"/><path id="Trazado_3394" data-name="Trazado 3394" class="cls-35" d="M104.4,296.11a8.29,8.29,0,0,0-7.24,0c-.56.28.14,1.82.7,1.53a6.86,6.86,0,0,1,5.84,0C104.26,297.92,105,296.41,104.4,296.11Z"/></g><g id="Grupo_336" data-name="Grupo 336"><path id="Trazado_3395" data-name="Trazado 3395" class="cls-34" d="M300.06,197.81a12.64,12.64,0,1,0,12.62-13.18A12.9,12.9,0,0,0,300.06,197.81Z"/><path id="Trazado_3396" data-name="Trazado 3396" class="cls-43" d="M319.29,200.27c0,3.76,4.9,3.77,4.9,0,0-2.75-2.46-5.44-2.46-5.44S319.29,197.52,319.29,200.27Z"/><path id="Trazado_3397" data-name="Trazado 3397" class="cls-35" d="M315.42,196.93a2.2,2.2,0,1,1-2.1,2.2A2.15,2.15,0,0,1,315.42,196.93Z"/><path id="Trazado_3398" data-name="Trazado 3398" class="cls-35" d="M305.74,196.93a2.2,2.2,0,1,1-2.1,2.2A2.15,2.15,0,0,1,305.74,196.93Z"/><path id="Trazado_3399" data-name="Trazado 3399" class="cls-39" d="M307.88,192.49a5.8,5.8,0,0,1-4.93,1.38c-.24-.05-.45.89-.16.95a6.72,6.72,0,0,0,5.68-1.59C308.7,193,308.06,192.33,307.88,192.49Z"/><path id="Trazado_3400" data-name="Trazado 3400" class="cls-39" d="M318.2,193.8a5.81,5.81,0,0,1-4.92-1.37c-.18-.17-.82.53-.59.73a6.68,6.68,0,0,0,5.68,1.59C318.66,194.69,318.45,193.75,318.2,193.8Z"/><path id="Trazado_3401" data-name="Trazado 3401" class="cls-35" d="M315.24,204.54a8.26,8.26,0,0,0-7.12,1.32c-.51.38.44,1.77.94,1.39a6.81,6.81,0,0,1,5.75-1.07C315.41,206.34,315.88,204.73,315.24,204.54Z"/></g><g id="Grupo_337" data-name="Grupo 337"><path id="Trazado_3402" data-name="Trazado 3402" class="cls-34" d="M224.52,221.11a13.19,13.19,0,1,1-12.62,13.18A12.91,12.91,0,0,1,224.52,221.11Z"/><path id="Trazado_3403" data-name="Trazado 3403" class="cls-35" d="M224.52,237a3.08,3.08,0,1,1-2.94,3.07A3,3,0,0,1,224.52,237Z"/><path id="Trazado_3404" data-name="Trazado 3404" class="cls-35" d="M219.58,229.25a2,2,0,1,1-1.9,2A1.95,1.95,0,0,1,219.58,229.25Z"/><path id="Trazado_3405" data-name="Trazado 3405" class="cls-35" d="M229.05,229.25a2,2,0,1,1-1.9,2A1.94,1.94,0,0,1,229.05,229.25Z"/></g><g id="Grupo_339" data-name="Grupo 339"><path id="Trazado_3406" data-name="Trazado 3406" class="cls-34" d="M100.69,95.55a13.19,13.19,0,1,1-12.62,13.18A12.91,12.91,0,0,1,100.69,95.55Z"/><ellipse id="Elipse_67" data-name="Elipse 67" class="cls-38" cx="94.38" cy="107.85" rx="4.63" ry="4.83"/><path id="Trazado_3408" data-name="Trazado 3408" class="cls-38" d="M107,103a4.83,4.83,0,1,1-4.63,4.83A4.74,4.74,0,0,1,107,103Z"/><path id="Trazado_3409" data-name="Trazado 3409" class="cls-44" d="M102.38,106.53a3.43,3.43,0,0,0-3.37,0c-.48-.45-.36-.91-.84-1.36a4.25,4.25,0,0,1,5,0C102.73,105.62,102.86,106.08,102.38,106.53Z"/><path id="Trazado_3410" data-name="Trazado 3410" class="cls-44" d="M107,112.24a4.3,4.3,0,0,1-4.21-4.39h0a4.29,4.29,0,0,1,4.2-4.39h0a4.29,4.29,0,0,1,4.2,4.39h0a4.29,4.29,0,0,1-4.2,4.39Zm0-10.1a5.72,5.72,0,1,0,5.47,5.71,5.6,5.6,0,0,0-5.47-5.71Z"/><path id="Trazado_3411" data-name="Trazado 3411" class="cls-44" d="M94.38,112.24a4.3,4.3,0,0,1-4.21-4.39h0a4.29,4.29,0,0,1,4.21-4.39h0a4.3,4.3,0,0,1,4.21,4.39h0a4.3,4.3,0,0,1-4.21,4.39Zm0-10.1a5.72,5.72,0,1,0,5.47,5.71,5.59,5.59,0,0,0-5.47-5.71Z"/><path id="Trazado_3412" data-name="Trazado 3412" class="cls-35" d="M95.64,105.87a2.28,2.28,0,1,1-1.68,2.2A2,2,0,0,1,95.64,105.87Z"/><path id="Trazado_3413" data-name="Trazado 3413" class="cls-35" d="M105.74,105.87a2.28,2.28,0,1,1-1.68,2.2A2,2,0,0,1,105.74,105.87Z"/><path id="Trazado_3414" data-name="Trazado 3414" class="cls-35" d="M98.47,117.21a8.28,8.28,0,0,0,7.13-1.32c.51-.38-.45-1.77-.95-1.39a6.78,6.78,0,0,1-5.75,1.07C98.3,115.4,97.83,117,98.47,117.21Z"/><path id="Trazado_3415" data-name="Trazado 3415" class="cls-39" d="M109.62,101.57a5.81,5.81,0,0,0-4.92-1.38c-.25,0-.46-.89-.17-1a6.71,6.71,0,0,1,5.68,1.59C110.44,101,109.8,101.74,109.62,101.57Z"/><path id="Trazado_3416" data-name="Trazado 3416" class="cls-39" d="M96.69,100.13a5.8,5.8,0,0,0-4.92,1.37c-.19.17-.82-.53-.6-.73a6.7,6.7,0,0,1,5.68-1.59C97.15,99.24,96.93,100.17,96.69,100.13Z"/></g><g id="Grupo_340" data-name="Grupo 340"><path id="Trazado_3417" data-name="Trazado 3417" class="cls-34" d="M156.37,220.8A13.19,13.19,0,1,1,143.75,234,12.91,12.91,0,0,1,156.37,220.8Z"/><path id="Trazado_3418" data-name="Trazado 3418" class="cls-39" d="M152.41,227.91a5.81,5.81,0,0,1-4.92,1.38c-.25,0-.46.89-.16.94a6.66,6.66,0,0,0,5.67-1.58C153.23,228.44,152.59,227.74,152.41,227.91Z"/><path id="Trazado_3419" data-name="Trazado 3419" class="cls-39" d="M165.26,229.22a5.81,5.81,0,0,1-4.92-1.37c-.19-.17-.82.53-.6.73a6.69,6.69,0,0,0,5.68,1.59C165.72,230.11,165.5,229.17,165.26,229.22Z"/><path id="Trazado_3420" data-name="Trazado 3420" class="cls-35" d="M162.51,238.54a.72.72,0,0,0-.94-.13l-1.79,1.25a.86.86,0,0,1-1-.07l-1.93-1.73a.72.72,0,0,0-.95,0L154,239.59a.86.86,0,0,1-1,.06l-1.8-1.25a.7.7,0,0,0-.93.14l-1.88,2.3c-.23.28-.16.36.14.19l1.59-.92a.88.88,0,0,1,1,.14l2,2a.73.73,0,0,0,.95.06l1.88-1.5a.84.84,0,0,1,1,0l1.87,1.49a.74.74,0,0,0,1-.06l1.93-2a.88.88,0,0,1,1-.15l1.59.92c.3.17.37.09.15-.19Z"/><path id="Trazado_3421" data-name="Trazado 3421" class="cls-35" d="M164.65,232.26a.27.27,0,0,1,.11.36.26.26,0,0,1-.18.12,9.82,9.82,0,0,0-3.47,1,6.38,6.38,0,0,1,3.79,2.12c.16.21,0,.49-.23.42a13.82,13.82,0,0,0-6.67-.89c-.21,0-.38-.1-.34-.3a4.77,4.77,0,0,1,5.86-3.34A4.9,4.9,0,0,1,164.65,232.26Z"/><path id="Trazado_3422" data-name="Trazado 3422" class="cls-35" d="M148.1,232.26a.27.27,0,0,0-.11.36.26.26,0,0,0,.18.12,9.82,9.82,0,0,1,3.47,1,6.38,6.38,0,0,0-3.79,2.12c-.17.21,0,.49.23.42a13.8,13.8,0,0,1,6.67-.89c.2,0,.38-.1.34-.3a4.77,4.77,0,0,0-5.86-3.34A4.9,4.9,0,0,0,148.1,232.26Z"/></g><g id="Grupo_341" data-name="Grupo 341"><path id="Trazado_3423" data-name="Trazado 3423" class="cls-34" d="M115,197.81a12.64,12.64,0,1,1-12.63-13.18A12.91,12.91,0,0,1,115,197.81Z"/><path id="Trazado_3424" data-name="Trazado 3424" class="cls-39" d="M109.23,189.42a6,6,0,0,0-4.42,2.66c-.13.22-.92-.29-.75-.55a6.83,6.83,0,0,1,5.09-3.06C109.45,188.44,109.47,189.41,109.23,189.42Z"/><path id="Trazado_3425" data-name="Trazado 3425" class="cls-39" d="M99.83,192.08a6,6,0,0,0-4.41-2.66c-.25,0-.23-1,.07-.95a6.83,6.83,0,0,1,5.09,3.06C100.75,191.79,100,192.3,99.83,192.08Z"/><path id="Trazado_3426" data-name="Trazado 3426" class="cls-35" d="M97.78,201.28a7.33,7.33,0,0,1,9.08,0c.35.25.67-.18.43-.59a5.76,5.76,0,0,0-9.94,0C97.11,201.1,97.43,201.53,97.78,201.28Z"/><path id="Trazado_3427" data-name="Trazado 3427" class="cls-35" d="M104,193c1.77,3.49,5.34,3.49,7.11,0,.09-.18-.14-.25-.42-.45a5.24,5.24,0,0,1-6.27,0C104.11,192.74,103.88,192.81,104,193Z"/><path id="Trazado_3428" data-name="Trazado 3428" class="cls-35" d="M93.56,193c1.77,3.49,5.34,3.49,7.11,0,.09-.18-.14-.25-.42-.45a5.24,5.24,0,0,1-6.27,0C93.7,192.74,93.47,192.81,93.56,193Z"/><path id="Trazado_3429" data-name="Trazado 3429" class="cls-45" d="M114.83,204.55a2.58,2.58,0,0,0-3.09-1.33,2.35,2.35,0,0,0-1.44,1.06c-3.3-.65-6.32-6.74-6.32-6.74s.08,5,2.47,7.88a2.8,2.8,0,0,0-1.62,0,2,2,0,0,0-1.64,2.33,2.68,2.68,0,0,0,.07.27,2.57,2.57,0,0,0,3.09,1.32,1.14,1.14,0,0,0,.26-.09,3.64,3.64,0,0,0,4.2,1.62,2.8,2.8,0,0,0,2.28-3.25,2.49,2.49,0,0,0-.09-.37v0l.26,0a2,2,0,0,0,1.64-2.33A2.14,2.14,0,0,0,114.83,204.55Z"/><path id="Trazado_3430" data-name="Trazado 3430" class="cls-45" d="M89.81,204.55a2.58,2.58,0,0,1,3.09-1.33,2.39,2.39,0,0,1,1.45,1.06c3.29-.65,6.31-6.74,6.31-6.74s-.08,5-2.47,7.88a2.8,2.8,0,0,1,1.62,0,2,2,0,0,1,1.64,2.33,2.68,2.68,0,0,1-.07.27,2.57,2.57,0,0,1-3.09,1.32,1.34,1.34,0,0,1-.26-.09,3.63,3.63,0,0,1-4.2,1.62,2.79,2.79,0,0,1-2.28-3.24,2.34,2.34,0,0,1,.09-.38v0l-.27,0a2,2,0,0,1-1.63-2.34A2,2,0,0,1,89.81,204.55Z"/><path id="Trazado_3431" data-name="Trazado 3431" class="cls-38" d="M113.83,203.44A2.27,2.27,0,0,0,111,202a2.23,2.23,0,0,0-1.33,1.13c-3-.7-5.81-7.21-5.81-7.21s.07,5.31,2.27,8.43a2.24,2.24,0,0,0-1.49,0,2.19,2.19,0,0,0-1.46,2.73v0a2.28,2.28,0,0,0,2.85,1.41l.24-.1a3.15,3.15,0,0,0,3.86,1.73,3.05,3.05,0,0,0,2-3.82v0s0,0,0,0a2.1,2.1,0,0,0,.24-.06,2.2,2.2,0,0,0,1.46-2.75Z"/><path id="Trazado_3432" data-name="Trazado 3432" class="cls-38" d="M90.81,203.44A2.27,2.27,0,0,1,93.65,202,2.23,2.23,0,0,1,95,203.16c3-.7,5.81-7.21,5.81-7.21s-.07,5.31-2.27,8.43a2.24,2.24,0,0,1,1.49,0,2.19,2.19,0,0,1,1.46,2.73v0a2.28,2.28,0,0,1-2.85,1.41l-.24-.1a3.17,3.17,0,0,1-3.87,1.73,3.06,3.06,0,0,1-2-3.82v0s0,0,0,0a1.05,1.05,0,0,1-.24-.06,2.2,2.2,0,0,1-1.46-2.75Z"/></g><g id="Grupo_342" data-name="Grupo 342"><path id="Trazado_3433" data-name="Trazado 3433" class="cls-34" d="M190.12,276.21a13.19,13.19,0,1,1-12.63,13.18A12.91,12.91,0,0,1,190.12,276.21Z"/><path id="Trazado_3434" data-name="Trazado 3434" class="cls-35" d="M193.73,295.72a8.29,8.29,0,0,0-7.24,0c-.56.28.14,1.82.7,1.53a6.82,6.82,0,0,1,5.84,0C193.59,297.53,194.32,296,193.73,295.72Z"/><ellipse id="Elipse_68" data-name="Elipse 68" class="cls-38" cx="195.59" cy="288.95" rx="3.79" ry="3.95"/><path id="Trazado_3435" data-name="Trazado 3435" class="cls-35" d="M195.59,286.31a2.64,2.64,0,1,1-2.53,2.64A2.58,2.58,0,0,1,195.59,286.31Z"/><path id="Trazado_3436" data-name="Trazado 3436" class="cls-38" d="M196.24,289.48a1.46,1.46,0,1,1-1.18,1.43A1.31,1.31,0,0,1,196.24,289.48Z"/><path id="Trazado_3437" data-name="Trazado 3437" class="cls-38" d="M194.65,288.11a.78.78,0,0,1,.69.84.7.7,0,1,1-1.38,0A.78.78,0,0,1,194.65,288.11Z"/><ellipse id="Elipse_69" data-name="Elipse 69" class="cls-38" cx="184.64" cy="288.95" rx="3.79" ry="3.95"/><path id="Trazado_3438" data-name="Trazado 3438" class="cls-35" d="M184.64,286.31a2.64,2.64,0,1,1-2.52,2.64A2.58,2.58,0,0,1,184.64,286.31Z"/><path id="Trazado_3439" data-name="Trazado 3439" class="cls-38" d="M185.3,289.48a1.45,1.45,0,1,1-1.19,1.43A1.33,1.33,0,0,1,185.3,289.48Z"/><path id="Trazado_3440" data-name="Trazado 3440" class="cls-38" d="M183.71,288.11a.78.78,0,0,1,.69.84.7.7,0,1,1-1.38,0A.78.78,0,0,1,183.71,288.11Z"/><path id="Trazado_3441" data-name="Trazado 3441" class="cls-43" d="M196.43,291.14c-2.14,3-3.37,5.71-3.37,8a3.42,3.42,0,0,0,3.37,3.46h0a3.42,3.42,0,0,0,3.37-3.46C199.8,296.85,198.53,294.07,196.43,291.14Z"/><path id="Trazado_3442" data-name="Trazado 3442" class="cls-39" d="M199,284.42a5.84,5.84,0,0,0-4.92-1.38c-.24,0-.46-.88-.16-.94a6.69,6.69,0,0,1,5.68,1.59C199.86,283.89,199.23,284.59,199,284.42Z"/><path id="Trazado_3443" data-name="Trazado 3443" class="cls-39" d="M186.11,283a5.81,5.81,0,0,0-4.92,1.37c-.19.18-.82-.52-.59-.73a6.7,6.7,0,0,1,5.67-1.59C186.57,282.09,186.35,283,186.11,283Z"/></g><g id="Grupo_343" data-name="Grupo 343"><path id="Trazado_3444" data-name="Trazado 3444" class="cls-43" d="M184,260.91c2.9,0,5.25.3,5.25.65s-2.35.66-5.25.66-5.25-.3-5.25-.66S181.1,260.91,184,260.91Z"/><path id="Trazado_3445" data-name="Trazado 3445" class="cls-43" d="M195.14,260.91c4.2,0,7.6.35,7.6.79s-3.4.79-7.6.79-7.6-.36-7.6-.79S191,260.91,195.14,260.91Z"/><path id="Trazado_3446" data-name="Trazado 3446" class="cls-34" d="M190.12,236.14a13.19,13.19,0,1,1-12.63,13.17A12.9,12.9,0,0,1,190.12,236.14Z"/><path id="Trazado_3447" data-name="Trazado 3447" class="cls-35" d="M195.48,255.46c-.59-1.58-2-2.63-5.37-2.63s-4.77,1-5.36,2.63a4.22,4.22,0,0,0,.14,2.2c.56,1.7.48,2.2,5.23,2.2s4.66-.49,5.22-2.2A4.22,4.22,0,0,0,195.48,255.46Z"/><path id="Trazado_3448" data-name="Trazado 3448" class="cls-38" d="M193.89,255a.44.44,0,0,0-.07-.35s-.85-.95-3.71-.95-3.7.95-3.7.95a.44.44,0,0,0-.07.35l.06.25a.28.28,0,0,0,.22.21h7a.28.28,0,0,0,.22-.21Z"/><path id="Trazado_3449" data-name="Trazado 3449" class="cls-43" d="M195.37,261.82h2.87c3.46-4.36-.65-8.8.38-13.09-1,0-1.92,1.12-2.87,1.12C194.42,254,198.82,257.46,195.37,261.82Z"/><path id="Trazado_3450" data-name="Trazado 3450" class="cls-43" d="M184.86,261.82H182c-3.46-4.36.65-8.8-.38-13.09,1,0,1.92,1.12,2.87,1.12C185.81,254,181.41,257.46,184.86,261.82Z"/><path id="Trazado_3451" data-name="Trazado 3451" class="cls-39" d="M193.76,243.3a5.87,5.87,0,0,0,4.79,1.82c.25,0,.38.92.08,1a6.77,6.77,0,0,1-5.52-2.1C192.9,243.75,193.59,243.11,193.76,243.3Z"/><path id="Trazado_3452" data-name="Trazado 3452" class="cls-39" d="M181.68,245.11a5.87,5.87,0,0,0,4.79-1.82c.17-.18.86.46.65.68a6.75,6.75,0,0,1-5.53,2.1C181.3,246,181.43,245.09,181.68,245.11Z"/><path id="Trazado_3453" data-name="Trazado 3453" class="cls-35" d="M191.76,248.56c1.78,3.49,5.35,3.49,7.12,0,.09-.18-.14-.26-.43-.46a5.22,5.22,0,0,1-6.26,0C191.91,248.3,191.68,248.38,191.76,248.56Z"/><path id="Trazado_3454" data-name="Trazado 3454" class="cls-35" d="M181.35,248.56c1.77,3.49,5.34,3.49,7.12,0,.09-.18-.14-.26-.43-.46a5.22,5.22,0,0,1-6.26,0C181.49,248.3,181.26,248.38,181.35,248.56Z"/></g><g id="Grupo_344" data-name="Grupo 344"><path id="Trazado_3455" data-name="Trazado 3455" class="cls-34" d="M277.51,184.63a13.19,13.19,0,1,1-12.62,13.18A12.9,12.9,0,0,1,277.51,184.63Z"/><path id="Trazado_3456" data-name="Trazado 3456" class="cls-38" d="M272.25,190.25a4.3,4.3,0,0,1,4.21,4.38h0a4.3,4.3,0,0,1-4.21,4.39h0a4.31,4.31,0,0,1-4.21-4.39h0a4.29,4.29,0,0,1,4.21-4.39Z"/><path id="Trazado_3457" data-name="Trazado 3457" class="cls-35" d="M272.25,193.1a1.54,1.54,0,1,1-1.47,1.54A1.51,1.51,0,0,1,272.25,193.1Z"/><path id="Trazado_3458" data-name="Trazado 3458" class="cls-38" d="M282.77,190.25a4.29,4.29,0,0,1,4.21,4.38h0a4.3,4.3,0,0,1-4.2,4.39h0a4.31,4.31,0,0,1-4.21-4.39h0a4.3,4.3,0,0,1,4.21-4.39Z"/><path id="Trazado_3459" data-name="Trazado 3459" class="cls-35" d="M282.77,193.1a1.54,1.54,0,0,1,0,3.07,1.54,1.54,0,0,1,0-3.07Z"/><path id="Trazado_3460" data-name="Trazado 3460" class="cls-35" d="M284.11,203.08c-.72-1.58-2.48-2.64-6.6-2.64s-5.88,1.06-6.6,2.64a3.46,3.46,0,0,0,.16,2.2c.69,1.7.6,2.2,6.44,2.2s5.74-.5,6.43-2.2A3.4,3.4,0,0,0,284.11,203.08Z"/><path id="Trazado_3461" data-name="Trazado 3461" class="cls-38" d="M282.29,202.62a.35.35,0,0,0-.09-.35s-1.07-1-4.69-1-4.69,1-4.69,1a.35.35,0,0,0-.09.35l.08.25a.31.31,0,0,0,.28.21h8.84a.31.31,0,0,0,.28-.21Z"/><path id="Trazado_3462" data-name="Trazado 3462" class="cls-39" d="M285.17,189.66a5.8,5.8,0,0,0-4.92-1.37c-.24.05-.46-.89-.16-.95a6.69,6.69,0,0,1,5.68,1.59C286,189.13,285.36,189.83,285.17,189.66Z"/><path id="Trazado_3463" data-name="Trazado 3463" class="cls-39" d="M274.77,188.22a5.78,5.78,0,0,0-4.92,1.38c-.19.17-.82-.53-.59-.74a6.7,6.7,0,0,1,5.67-1.59C275.23,187.33,275,188.27,274.77,188.22Z"/></g><g id="Grupo_345" data-name="Grupo 345"><path id="Trazado_3464" data-name="Trazado 3464" class="cls-34" d="M190.12,312.44c7.33,0,13.27,6.2,13.27,13.85s-5.94,13.85-13.27,13.85-13.28-6.2-13.28-13.85S182.78,312.44,190.12,312.44Z"/><path id="Trazado_3465" data-name="Trazado 3465" class="cls-39" d="M193.4,319.93a6.11,6.11,0,0,0,5.18,1.45c.25-.05.48.94.17,1a7.08,7.08,0,0,1-6-1.67C192.54,320.49,193.2,319.76,193.4,319.93Z"/><path id="Trazado_3466" data-name="Trazado 3466" class="cls-39" d="M181.66,321.31a6.1,6.1,0,0,0,5.17-1.44c.2-.18.87.55.63.77a7.09,7.09,0,0,1-6,1.67C181.17,322.25,181.4,321.26,181.66,321.31Z"/><path id="Trazado_3467" data-name="Trazado 3467" class="cls-35" d="M191.81,323c.89,4.05,4.52,5.06,7.23,2,.14-.15-.07-.3-.31-.58a5.53,5.53,0,0,1-6.36-1.78C192,322.74,191.77,322.76,191.81,323Z"/><path id="Trazado_3468" data-name="Trazado 3468" class="cls-35" d="M181.19,325c2.71,3,6.34,2,7.23-2,0-.2-.22-.22-.55-.34a5.55,5.55,0,0,1-6.37,1.78C181.27,324.68,181.05,324.83,181.19,325Z"/><path id="Trazado_3469" data-name="Trazado 3469" class="cls-35" d="M197.05,331.83c-.76-1.66-2.6-2.77-6.93-2.77s-6.18,1.11-6.94,2.77a3.59,3.59,0,0,0,.17,2.31c.73,1.79.63,2.31,6.77,2.31s6-.52,6.76-2.31A3.59,3.59,0,0,0,197.05,331.83Z"/><path id="Trazado_3470" data-name="Trazado 3470" class="cls-38" d="M195.14,331.35a.35.35,0,0,0-.1-.36s-1.12-1-4.93-1-4.93,1-4.93,1a.35.35,0,0,0-.1.36l.08.26a.34.34,0,0,0,.3.22h9.3a.33.33,0,0,0,.29-.22Z"/></g><g id="Grupo_346" data-name="Grupo 346"><ellipse id="Elipse_70" data-name="Elipse 70" class="cls-34" cx="127.62" cy="133.8" rx="12.63" ry="13.18"/><path id="Trazado_3471" data-name="Trazado 3471" class="cls-35" d="M136.25,137.31c-.94-1.58-3.24-2.63-8.63-2.63s-7.69,1-8.64,2.63c-.5.85.22,2.2.22,2.2.9,1.71.78,2.2,8.42,2.2s7.51-.49,8.42-2.2C136,139.51,136.76,138.16,136.25,137.31Z"/><path id="Trazado_3472" data-name="Trazado 3472" class="cls-35" d="M122.78,128.31a2.2,2.2,0,1,1-2.1,2.2A2.17,2.17,0,0,1,122.78,128.31Z"/><path id="Trazado_3473" data-name="Trazado 3473" class="cls-35" d="M132.46,128.31a2.2,2.2,0,1,1-2.1,2.2A2.16,2.16,0,0,1,132.46,128.31Z"/><path id="Trazado_3474" data-name="Trazado 3474" class="cls-38" d="M134.34,137.31a.7.7,0,0,0-.26-.66s-1.64-1.09-6.46-1.09-6.47,1.09-6.47,1.09a.7.7,0,0,0-.26.66l.08.45a.51.51,0,0,0,.47.43h12.35a.51.51,0,0,0,.47-.43Z"/><path id="Trazado_3475" data-name="Trazado 3475" class="cls-38" d="M127.62,140.83c2.64,0,6.41,0,6.31-.9a2.66,2.66,0,0,0-.12-.56c-.06-.23-.12-.3-.57-.3H122c-.46,0-.51.07-.57.3a2.66,2.66,0,0,0-.12.56C121.21,140.83,125,140.83,127.62,140.83Z"/></g><g id="Grupo_347" data-name="Grupo 347"><path id="Trazado_3476" data-name="Trazado 3476" class="cls-34" d="M239.92,184.63c-6.95,0-12.62,5.9-12.62,13.18,0,2.13,6.63,10,9.68,12.1a6,6,0,0,0,2.94,1.07,5.88,5.88,0,0,0,3-1.07c3.05-2.06,9.66-10,9.66-12.1a12.91,12.91,0,0,0-12.62-13.18Z"/><path id="Trazado_3477" data-name="Trazado 3477" class="cls-38" d="M239.31,194.6a4.21,4.21,0,1,1-8.42,0h0a4.3,4.3,0,0,1,4.18-4.4h0A4.32,4.32,0,0,1,239.31,194.6Z"/><path id="Trazado_3478" data-name="Trazado 3478" class="cls-35" d="M236.56,194.6a1.5,1.5,0,0,1-1.46,1.53h0a1.54,1.54,0,0,1,0-3.07,1.49,1.49,0,0,1,1.47,1.53Z"/><path id="Trazado_3479" data-name="Trazado 3479" class="cls-38" d="M249,194.6a4.21,4.21,0,1,1-4.2-4.4A4.31,4.31,0,0,1,249,194.6Z"/><path id="Trazado_3480" data-name="Trazado 3480" class="cls-35" d="M246.24,194.6a1.47,1.47,0,1,1-2.94,0h0a1.5,1.5,0,0,1,1.48-1.54h0A1.5,1.5,0,0,1,246.24,194.6Z"/><path id="Trazado_3481" data-name="Trazado 3481" class="cls-35" d="M243.44,204c0,2.92-1.58,5.28-3.52,5.28s-3.5-2.36-3.5-5.28,1.58-5.28,3.5-5.28S243.44,201.07,243.44,204Z"/><path id="Trazado_3482" data-name="Trazado 3482" class="cls-36" d="M240.76,201.91c-.27,0-.67.27-.52,1,.07.37.54.81.54,1.4a.85.85,0,1,1-1.7.12v-.12c0-.59.47-1,.54-1.4.15-.72-.27-1-.51-1a2.28,2.28,0,0,0-1.88,2.33,2.71,2.71,0,1,0,5.4,0A2.27,2.27,0,0,0,240.76,201.91Z"/><path id="Trazado_3483" data-name="Trazado 3483" class="cls-37" d="M239.92,206.53c-1.63,0-2.07.5-2.07.5a2.37,2.37,0,0,0,2.07,1.57A2.39,2.39,0,0,0,242,207S241.54,206.53,239.92,206.53Z"/><path id="Trazado_3484" data-name="Trazado 3484" class="cls-39" d="M236,187.13a5.88,5.88,0,0,1-4.41,2.66c-.25,0-.22,1,.1,1a6.83,6.83,0,0,0,5.07-3.07C236.94,187.42,236.15,186.92,236,187.13Z"/><path id="Trazado_3485" data-name="Trazado 3485" class="cls-39" d="M248.25,189.73a6,6,0,0,1-4.41-2.66c-.12-.22-.91.29-.74.55a6.79,6.79,0,0,0,5.08,3.06C248.47,190.71,248.5,189.74,248.25,189.73Z"/><path id="Trazado_3486" data-name="Trazado 3486" class="cls-46" d="M246.8,203.82c1.7-1.27,2-3.94,4.19-4.78,2.71-1.06,1.13.52.84,3-.42,3.4-2.91,5.35-3.28,8.14a7.23,7.23,0,0,0,0,.82h-5.77a10.42,10.42,0,0,0,0-1.58C242.61,208.15,243.49,206.3,246.8,203.82Z"/><path id="Trazado_3487" data-name="Trazado 3487" class="cls-46" d="M233.07,203.82c-1.7-1.27-2-3.94-4.2-4.78-2.71-1.06-1.13.52-.83,3,.41,3.4,2.91,5.35,3.28,8.14,0,.2,0,.82,0,.82h5.74s-.05-1.19,0-1.58C237.26,208.15,236.37,206.3,233.07,203.82Z"/></g><g id="Grupo_348" data-name="Grupo 348"><path id="Trazado_3488" data-name="Trazado 3488" class="cls-34" d="M250.85,252.05a13.19,13.19,0,1,1-12.63,13.17A12.9,12.9,0,0,1,250.85,252.05Z"/><path id="Trazado_3489" data-name="Trazado 3489" class="cls-37" d="M259.61,264a3.51,3.51,0,1,1-3.37,3.51A3.43,3.43,0,0,1,259.61,264Z"/><path id="Trazado_3490" data-name="Trazado 3490" class="cls-37" d="M242.09,264a3.51,3.51,0,1,1-3.37,3.51A3.43,3.43,0,0,1,242.09,264Z"/><path id="Trazado_3491" data-name="Trazado 3491" class="cls-39" d="M260.38,260.23a5.92,5.92,0,0,0-4.62-2.25c-.25,0-.3-1,0-1a6.8,6.8,0,0,1,5.33,2.59C261.28,259.86,260.53,260.43,260.38,260.23Z"/><path id="Trazado_3492" data-name="Trazado 3492" class="cls-39" d="M245.93,257.91a5.92,5.92,0,0,0-4.62,2.25c-.15.2-.9-.37-.7-.62a6.79,6.79,0,0,1,5.33-2.59C246.24,257,246.18,257.92,245.93,257.91Z"/><path id="Trazado_3493" data-name="Trazado 3493" class="cls-35" d="M250.85,270.92a2,2,0,1,1-1.9,2h0a1.93,1.93,0,0,1,1.89-2Z"/><path id="Trazado_3494" data-name="Trazado 3494" class="cls-38" d="M249.79,264a3.79,3.79,0,1,1-3.78-4A3.87,3.87,0,0,1,249.79,264Z"/><path id="Trazado_3495" data-name="Trazado 3495" class="cls-35" d="M246,262a2,2,0,1,1-1.9,2h0a1.93,1.93,0,0,1,1.89-2Z"/><path id="Trazado_3496" data-name="Trazado 3496" class="cls-38" d="M259.47,264a3.79,3.79,0,1,1-3.78-4A3.87,3.87,0,0,1,259.47,264Z"/><path id="Trazado_3497" data-name="Trazado 3497" class="cls-35" d="M255.69,262a2,2,0,1,1-1.9,2A1.93,1.93,0,0,1,255.69,262Z"/></g><g id="Grupo_349" data-name="Grupo 349"><ellipse id="Elipse_71" data-name="Elipse 71" class="cls-47" cx="142.12" cy="197.81" rx="12.63" ry="13.18"/><path id="Trazado_3498" data-name="Trazado 3498" class="cls-48" d="M145.9,205.56a5.32,5.32,0,0,0-7.53,0l0,0c-.29.26-.56-.18-.36-.58a4.43,4.43,0,0,1,8.28,0C146.46,205.38,146.2,205.81,145.9,205.56Z"/><path id="Trazado_3499" data-name="Trazado 3499" class="cls-38" d="M132.93,194.7a4.45,4.45,0,0,0,2.22,5.33,4.1,4.1,0,0,0,5.33-1.65l-2.9-3.39Z"/><path id="Trazado_3500" data-name="Trazado 3500" class="cls-48" d="M134.64,195.07a2.61,2.61,0,0,0,1.19,3.4,2.39,2.39,0,0,0,3.21-1.14.93.93,0,0,0,.05-.1C139.45,196.42,135,194.26,134.64,195.07Z"/><path id="Trazado_3501" data-name="Trazado 3501" class="cls-48" d="M132.93,194.7a4,4,0,0,1,2.27-.64,5.8,5.8,0,0,1,4.29,2.08,4.31,4.31,0,0,1,1,2.24,12.36,12.36,0,0,0-1.67-1.48,10.51,10.51,0,0,0-1.79-1.08,11,11,0,0,0-1.94-.73A13.11,13.11,0,0,0,132.93,194.7Z"/><path id="Trazado_3502" data-name="Trazado 3502" class="cls-38" d="M151.31,194.7a4.45,4.45,0,0,1-2.22,5.33,4.1,4.1,0,0,1-5.33-1.65l2.9-3.39Z"/><path id="Trazado_3503" data-name="Trazado 3503" class="cls-48" d="M149.6,195.07a2.61,2.61,0,0,1-1.19,3.4,2.41,2.41,0,0,1-3.21-1.14l0-.1C144.79,196.42,149.23,194.26,149.6,195.07Z"/><path id="Trazado_3504" data-name="Trazado 3504" class="cls-48" d="M151.31,194.7a4,4,0,0,0-2.27-.64,5.65,5.65,0,0,0-2.35.57,5.48,5.48,0,0,0-1.93,1.51,4.24,4.24,0,0,0-1,2.24,12.36,12.36,0,0,1,1.67-1.48,10.51,10.51,0,0,1,1.79-1.08,11.35,11.35,0,0,1,1.94-.73A13.3,13.3,0,0,1,151.31,194.7Z"/></g><g id="Grupo_350" data-name="Grupo 350"><path id="Trazado_3505" data-name="Trazado 3505" class="cls-34" d="M65.21,184.63a13.19,13.19,0,1,1-12.62,13.18A12.91,12.91,0,0,1,65.21,184.63Z"/><path id="Trazado_3506" data-name="Trazado 3506" class="cls-35" d="M69,205.56a5.34,5.34,0,0,0-7.54,0l0,0c-.29.26-.56-.18-.36-.58a4.43,4.43,0,0,1,8.28,0C69.55,205.38,69.29,205.81,69,205.56Z"/><path id="Trazado_3507" data-name="Trazado 3507" class="cls-38" d="M56,194.7A4.45,4.45,0,0,0,58.24,200a4.1,4.1,0,0,0,5.33-1.65L60.67,195Z"/><path id="Trazado_3508" data-name="Trazado 3508" class="cls-35" d="M57.74,195.07a2.6,2.6,0,0,0,1.19,3.4,2.4,2.4,0,0,0,3.21-1.14l0-.1C62.54,196.42,58.1,194.26,57.74,195.07Z"/><path id="Trazado_3509" data-name="Trazado 3509" class="cls-35" d="M56,194.7a4.07,4.07,0,0,1,2.27-.64,5.8,5.8,0,0,1,4.29,2.08,4.32,4.32,0,0,1,1,2.24,12.36,12.36,0,0,0-1.67-1.48,10.92,10.92,0,0,0-1.79-1.08,11.46,11.46,0,0,0-1.95-.73A12.92,12.92,0,0,0,56,194.7Z"/><path id="Trazado_3510" data-name="Trazado 3510" class="cls-38" d="M74.4,194.7A4.45,4.45,0,0,1,72.18,200a4.1,4.1,0,0,1-5.33-1.65l2.9-3.39Z"/><path id="Trazado_3511" data-name="Trazado 3511" class="cls-35" d="M72.69,195.07a2.61,2.61,0,0,1-1.19,3.4,2.39,2.39,0,0,1-3.21-1.14.93.93,0,0,1-.05-.1C67.88,196.42,72.32,194.26,72.69,195.07Z"/><path id="Trazado_3512" data-name="Trazado 3512" class="cls-35" d="M74.4,194.7a4,4,0,0,0-2.27-.64,5.76,5.76,0,0,0-4.28,2.08,4.24,4.24,0,0,0-1,2.24,12.36,12.36,0,0,1,1.67-1.48,10.51,10.51,0,0,1,1.79-1.08,11,11,0,0,1,1.94-.73A13.3,13.3,0,0,1,74.4,194.7Z"/></g></g></g></g></g></svg>