<svg xmlns="http://www.w3.org/2000/svg" viewBox="0 0 379.12 395.61"><defs><style>.cls-1{fill:none;}.cls-1,.cls-10,.cls-11,.cls-12,.cls-13,.cls-14,.cls-15,.cls-16,.cls-17,.cls-18,.cls-19,.cls-2,.cls-20,.cls-21,.cls-22,.cls-23,.cls-24,.cls-25,.cls-26,.cls-27,.cls-28,.cls-29,.cls-3,.cls-30,.cls-31,.cls-32,.cls-33,.cls-4,.cls-5,.cls-6,.cls-7,.cls-8,.cls-9{stroke:#fff;stroke-miterlimit:10;stroke-width:0.94px;stroke-dasharray:3.76;}.cls-2{fill:#f5d3d3;}.cls-3{fill:#eca9a8;}.cls-4{fill:#d53f40;}.cls-5{fill:#b53939;}.cls-6{fill:#f6e4d3;}.cls-7{fill:#ecc9a9;}.cls-8{fill:#e3b07f;}.cls-9{fill:#d58940;}.cls-10{fill:#f7f9e5;}.cls-11{fill:#f2f2c5;}.cls-12{fill:#e3e37f;}.cls-13{fill:#e4d47f;}.cls-14{fill:#d3f4d3;}.cls-15{fill:#a8eca9;}.cls-16{fill:#7fe280;}.cls-17{fill:#329c33;}.cls-18{fill:#cfe0cf;}.cls-19{fill:#9fc19f;}.cls-20{fill:#2f862e;}.cls-21{fill:#2a762b;}.cls-22{fill:#e0eef8;}.cls-23{fill:#bbdaf0;}.cls-24{fill:#83bce3;}.cls-25{fill:#3b8abd;}.cls-26{fill:#d4d2f5;}.cls-27{fill:#a9a9ec;}.cls-28{fill:#7c7ce2;}.cls-29{fill:#3737ab;}.cls-30{fill:#fae9fa;}.cls-31{fill:#f5d4f5;}.cls-32{fill:#e37fe3;}.cls-33{fill:#bb3bbb;}.cls-34,.cls-35,.cls-36,.cls-40{isolation:isolate;}.cls-35,.cls-36,.cls-40{font-size:7.69px;fill:#fff;font-family:SegoeUI, Segoe UI;}.cls-36{letter-spacing:-0.02em;}.cls-37{letter-spacing:0em;}.cls-38{letter-spacing:-0.1em;}.cls-39{letter-spacing:-0.04em;}.cls-40{letter-spacing:-0.09em;}.cls-41{letter-spacing:-0.03em;}</style></defs><g id="Capa_2" data-name="Capa 2"><g id="Capa_1-2" data-name="Capa 1"><g id="Grupo_322" data-name="Grupo 322"><g id="Grupo_320" data-name="Grupo 320"><path id="Trazado_3172" data-name="Trazado 3172" class="cls-1" d="M49.21,219.7C18.59,211,.79,197.81.79,197.81c0,54.39,21.13,103.63,55.29,139.27,0,0,3.67-22.44,19.41-51.21A150.69,150.69,0,0,1,49.21,219.7Z"/><path id="Trazado_3173" data-name="Trazado 3173" class="cls-1" d="M168.58,51.36c8.37-31.95,21-50.52,21-50.52-52.13,0-99.32,22-133.48,57.69,0,0,21.5,3.83,49.08,20.25A138,138,0,0,1,168.58,51.36Z"/><path id="Trazado_3174" data-name="Trazado 3174" class="cls-1" d="M75.49,109.74C59.75,81,56.08,58.53,56.08,58.53,21.92,94.17.79,143.41.79,197.81c0,0,17.8-13.16,48.42-21.9A150.69,150.69,0,0,1,75.49,109.74Z"/><path id="Trazado_3175" data-name="Trazado 3175" class="cls-1" d="M105.17,316.84c-27.58,16.42-49.08,20.24-49.09,20.24,34.17,35.65,81.36,57.69,133.49,57.69,0,0-12.61-18.56-21-50.51A138.13,138.13,0,0,1,105.17,316.84Z"/><path id="Trazado_3176" data-name="Trazado 3176" class="cls-1" d="M274,78.78c27.57-16.42,49.08-20.25,49.08-20.25s-3.67,22.44-19.4,51.21a150.89,150.89,0,0,1,26.27,66.17c30.63,8.74,48.42,21.9,48.42,21.9h0C378.34,89,293.82.84,189.57.84c0,0,12.61,18.57,21,50.52A138.11,138.11,0,0,1,274,78.78Z"/><path id="Trazado_3177" data-name="Trazado 3177" class="cls-1" d="M210.54,344.26c-8.37,31.95-21,50.51-21,50.51,52.13,0,99.32-22,133.48-57.69,0,0-21.5-3.82-49.08-20.24A138.12,138.12,0,0,1,210.54,344.26Z"/><path id="Trazado_3178" data-name="Trazado 3178" class="cls-1" d="M303.64,285.87c15.73,28.77,19.4,51.21,19.4,51.21,34.16-35.64,55.29-84.88,55.29-139.27,0,0-17.8,13.15-48.42,21.89A150.8,150.8,0,0,1,303.64,285.87Z"/><path id="Trazado_3179" data-name="Trazado 3179" class="cls-1" d="M281.55,142.54A113.09,113.09,0,0,1,292.07,169a198.69,198.69,0,0,1,37.85,6.9,150.69,150.69,0,0,0-26.28-66.17A214.52,214.52,0,0,1,281.55,142.54Z"/><path id="Trazado_3180" data-name="Trazado 3180" class="cls-1" d="M97.57,142.54a214.46,214.46,0,0,1-22.08-32.8,150.69,150.69,0,0,0-26.28,66.17A197.77,197.77,0,0,1,87.06,169,112.62,112.62,0,0,1,97.57,142.54Z"/><path id="Trazado_3181" data-name="Trazado 3181" class="cls-1" d="M136.59,293.79a205.63,205.63,0,0,1-31.43,23,138.21,138.21,0,0,0,63.42,27.42,222.89,222.89,0,0,1-6.61-39.5A103.15,103.15,0,0,1,136.59,293.79Z"/><path id="Trazado_3182" data-name="Trazado 3182" class="cls-1" d="M162,90.85a222,222,0,0,1,6.61-39.49,137.91,137.91,0,0,0-63.42,27.42,205.57,205.57,0,0,1,31.43,23A103,103,0,0,1,162,90.85Z"/><path id="Trazado_3183" data-name="Trazado 3183" class="cls-1" d="M217.15,304.76a222,222,0,0,1-6.61,39.5A138.12,138.12,0,0,0,274,316.84a205.63,205.63,0,0,1-31.43-23A103,103,0,0,1,217.15,304.76Z"/><path id="Trazado_3184" data-name="Trazado 3184" class="cls-1" d="M242.53,101.82a205.57,205.57,0,0,1,31.43-23,137.91,137.91,0,0,0-63.42-27.42,222,222,0,0,1,6.61,39.49A103,103,0,0,1,242.53,101.82Z"/><path id="Trazado_3185" data-name="Trazado 3185" class="cls-1" d="M87.06,226.6a198.55,198.55,0,0,1-37.85-6.9,150.79,150.79,0,0,0,26.28,66.17,214.46,214.46,0,0,1,22.08-32.8A112.8,112.8,0,0,1,87.06,226.6Z"/><path id="Trazado_3186" data-name="Trazado 3186" class="cls-1" d="M281.55,253.07a215.5,215.5,0,0,1,22.09,32.8,150.93,150.93,0,0,0,26.28-66.17,197.1,197.1,0,0,1-37.86,6.9A112.45,112.45,0,0,1,281.55,253.07Z"/><path id="Trazado_3187" data-name="Trazado 3187" class="cls-1" d="M216.32,130.39l.58-1.44Z"/><path id="Trazado_3188" data-name="Trazado 3188" class="cls-1" d="M162.23,129a229.72,229.72,0,0,1-.26-38.1,103.15,103.15,0,0,0-25.38,11A217.1,217.1,0,0,1,162.23,129Z"/><path id="Trazado_3189" data-name="Trazado 3189" class="cls-1" d="M255.55,169.29l-1.38.59h0l1.38-.59a202.39,202.39,0,0,1,36.51-.27,112.53,112.53,0,0,0-10.51-26.48A216.87,216.87,0,0,1,255.55,169.29Z"/><path id="Trazado_3190" data-name="Trazado 3190" class="cls-1" d="M123.57,169.29a216.87,216.87,0,0,1-26-26.75A112.53,112.53,0,0,0,87.06,169,202.39,202.39,0,0,1,123.57,169.29Z"/><path id="Trazado_3191" data-name="Trazado 3191" class="cls-1" d="M123.57,226.33l1.38-.6h0Z"/><path id="Trazado_3192" data-name="Trazado 3192" class="cls-1" d="M255.55,226.33a216.79,216.79,0,0,1,26,26.74,113.09,113.09,0,0,0,10.52-26.47A204.34,204.34,0,0,1,255.55,226.33Z"/><path id="Trazado_3193" data-name="Trazado 3193" class="cls-1" d="M216.9,266.66a230.82,230.82,0,0,1,.25,38.1,103,103,0,0,0,25.38-11A216.29,216.29,0,0,1,216.9,266.66Z"/><path id="Trazado_3194" data-name="Trazado 3194" class="cls-1" d="M123.57,226.33l1.38-.6h0l-1.38.6a204.24,204.24,0,0,1-36.51.27,112.62,112.62,0,0,0,10.51,26.47A216.79,216.79,0,0,1,123.57,226.33Z"/><path id="Trazado_3195" data-name="Trazado 3195" class="cls-1" d="M162.23,266.66l.57-1.44h0l-.57,1.44a217.1,217.1,0,0,1-25.64,27.13,103.15,103.15,0,0,0,25.38,11A229.73,229.73,0,0,1,162.23,266.66Z"/><path id="Trazado_3196" data-name="Trazado 3196" class="cls-1" d="M216.9,129a216.29,216.29,0,0,1,25.63-27.13,103,103,0,0,0-25.38-11A230.81,230.81,0,0,1,216.9,129Z"/><path id="Trazado_3197" data-name="Trazado 3197" class="cls-1" d="M189.57,197.81h0l26.76-67.42h0Z"/><path id="Trazado_3199" data-name="Trazado 3199" class="cls-1" d="M189.57,197.81l64.61-27.93h0Z"/><path id="Trazado_3200" data-name="Trazado 3200" class="cls-1" d="M162.8,265.22h0l26.76-67.41Z"/><path id="Trazado_3201" data-name="Trazado 3201" class="cls-1" d="M189.57,197.81,125,225.73h0Z"/><path id="Trazado_3206" data-name="Trazado 3206" class="cls-1" d="M189.57,197.81,125,225.73h0Z"/><path id="Trazado_3207" data-name="Trazado 3207" class="cls-2" d="M47.67,197.81a154.33,154.33,0,0,1,1.54-21.9C18.59,184.65.79,197.81.79,197.81S18.59,211,49.21,219.7A154.19,154.19,0,0,1,47.67,197.81Z"/><path id="Trazado_3208" data-name="Trazado 3208" class="cls-3" d="M83.43,197.81A115,115,0,0,1,87.06,169a197,197,0,0,0-37.85,6.9,155.35,155.35,0,0,0,0,43.78,197,197,0,0,0,37.85,6.9A115.1,115.1,0,0,1,83.43,197.81Z"/><path id="Trazado_3209" data-name="Trazado 3209" class="cls-4" d="M123.57,226.33l1.38-.6a76.08,76.08,0,0,1,0-55.85l-1.38-.6A202.39,202.39,0,0,0,87.06,169a116,116,0,0,0,0,57.58A203.31,203.31,0,0,0,123.57,226.33Z"/><path id="Trazado_3210" data-name="Trazado 3210" class="cls-5" d="M125,169.88a76.08,76.08,0,0,0,0,55.85l64.61-27.92Z"/><path id="Trazado_3212" data-name="Trazado 3212" class="cls-6" d="M105.17,78.78C77.59,62.36,56.09,58.53,56.08,58.53h0S59.75,81,75.49,109.74A145.52,145.52,0,0,1,105.17,78.78Z"/><path id="Trazado_3213" data-name="Trazado 3213" class="cls-7" d="M136.59,101.82a205.57,205.57,0,0,0-31.43-23,145.72,145.72,0,0,0-29.67,31,214.46,214.46,0,0,0,22.08,32.8A109.16,109.16,0,0,1,136.59,101.82Z"/><path id="Trazado_3214" data-name="Trazado 3214" class="cls-8" d="M123.57,169.29l1.38.59a71.77,71.77,0,0,1,37.85-39.49l-.57-1.44a217.1,217.1,0,0,0-25.64-27.13,109.16,109.16,0,0,0-39,40.72A216.87,216.87,0,0,0,123.57,169.29Z"/><path id="Trazado_3215" data-name="Trazado 3215" class="cls-1" d="M123.57,169.29l1.38.6h0Z"/><path id="Trazado_3216" data-name="Trazado 3216" class="cls-9" d="M162.8,130.39A71.77,71.77,0,0,0,125,169.88l64.61,27.93Z"/><path id="Trazado_3217" data-name="Trazado 3217" class="cls-1" d="M189.57,197.81,125,169.88h0Z"/><path id="Trazado_3218" data-name="Trazado 3218" class="cls-10" d="M189.57,49.75a136.48,136.48,0,0,1,21,1.61c-8.38-31.95-21-50.52-21-50.52s-12.61,18.57-21,50.52A136.61,136.61,0,0,1,189.57,49.75Z"/><path id="Trazado_3219" data-name="Trazado 3219" class="cls-11" d="M189.57,87.06a102.14,102.14,0,0,1,27.59,3.79,223.85,223.85,0,0,0-6.61-39.49,137.57,137.57,0,0,0-42,0A223.85,223.85,0,0,0,162,90.85,102.22,102.22,0,0,1,189.57,87.06Z"/><path id="Trazado_3220" data-name="Trazado 3220" class="cls-12" d="M162.23,129l.57,1.44a67.4,67.4,0,0,1,53.52,0l.58-1.44a230.81,230.81,0,0,0,.25-38.1,102.32,102.32,0,0,0-55.18,0A229.72,229.72,0,0,0,162.23,129Z"/><path id="Trazado_3221" data-name="Trazado 3221" class="cls-13" d="M189.57,197.81l26.76-67.42a67.42,67.42,0,0,0-53.53,0Z"/><path id="Trazado_3223" data-name="Trazado 3223" class="cls-14" d="M303.64,109.74C319.38,81,323,58.53,323,58.53S301.54,62.36,274,78.78A146,146,0,0,1,303.64,109.74Z"/><path id="Trazado_3224" data-name="Trazado 3224" class="cls-15" d="M281.55,142.54a214.52,214.52,0,0,0,22.09-32.8,146.3,146.3,0,0,0-29.68-31,205.63,205.63,0,0,0-31.43,23A109.08,109.08,0,0,1,281.55,142.54Z"/><path id="Trazado_3225" data-name="Trazado 3225" class="cls-1" d="M255.55,169.29l-1.38.6h0Z"/><path id="Trazado_3226" data-name="Trazado 3226" class="cls-16" d="M242.53,101.82A216.29,216.29,0,0,0,216.9,129l-.57,1.44a71.75,71.75,0,0,1,37.84,39.49l1.38-.59a216.87,216.87,0,0,0,26-26.75A109.08,109.08,0,0,0,242.53,101.82Z"/><path id="Trazado_3227" data-name="Trazado 3227" class="cls-1" d="M189.57,197.81l64.61-27.93h0Z"/><path id="Trazado_3228" data-name="Trazado 3228" class="cls-17" d="M189.57,197.81l64.61-27.93a71.8,71.8,0,0,0-37.85-39.49l-26.76,67.42Z"/><path id="Trazado_3233" data-name="Trazado 3233" class="cls-18" d="M329.92,175.91a156.42,156.42,0,0,1,0,43.79c30.62-8.74,48.41-21.89,48.41-21.89h0S360.54,184.65,329.92,175.91Z"/><path id="Trazado_3234" data-name="Trazado 3234" class="cls-19" d="M295.7,197.81a115.57,115.57,0,0,1-3.64,28.79,198.65,198.65,0,0,0,37.86-6.9,157.33,157.33,0,0,0,1.54-21.9,155.67,155.67,0,0,0-1.54-21.89,197.87,197.87,0,0,0-37.86-6.9A115.59,115.59,0,0,1,295.7,197.81Z"/><path id="Trazado_3235" data-name="Trazado 3235" class="cls-20" d="M255.55,169.29l-1.38.59a76.08,76.08,0,0,1,0,55.85l1.38.6-1.38-.6h0l1.38.6a202.39,202.39,0,0,0,36.51.27,115.67,115.67,0,0,0,0-57.58A202.39,202.39,0,0,0,255.55,169.29Z"/><path id="Trazado_3236" data-name="Trazado 3236" class="cls-21" d="M254.17,225.73a76.08,76.08,0,0,0,0-55.85l-64.61,27.93Z"/><path id="Trazado_3237" data-name="Trazado 3237" class="cls-1" d="M189.57,197.81h0l64.61,27.92h0Z"/><path id="Trazado_3240" data-name="Trazado 3240" class="cls-22" d="M274,316.84c27.57,16.42,49.08,20.24,49.08,20.24h0s-3.67-22.44-19.4-51.21A146.3,146.3,0,0,1,274,316.84Z"/><path id="Trazado_3241" data-name="Trazado 3241" class="cls-23" d="M242.53,293.79a205.63,205.63,0,0,0,31.43,23,146.3,146.3,0,0,0,29.68-31,214.52,214.52,0,0,0-22.09-32.8A109.08,109.08,0,0,1,242.53,293.79Z"/><path id="Trazado_3242" data-name="Trazado 3242" class="cls-24" d="M255.55,226.33l-1.38-.6a71.73,71.73,0,0,1-37.85,39.49l.58,1.44-.58-1.44h0l.58,1.44a216.29,216.29,0,0,0,25.63,27.13,109.08,109.08,0,0,0,39-40.72A216.09,216.09,0,0,0,255.55,226.33Z"/><path id="Trazado_3243" data-name="Trazado 3243" class="cls-25" d="M216.32,265.22a71.7,71.7,0,0,0,37.85-39.49l-64.61-27.92Z"/><path id="Trazado_3244" data-name="Trazado 3244" class="cls-1" d="M189.57,197.81l26.76,67.41h0Z"/><path id="Trazado_3245" data-name="Trazado 3245" class="cls-26" d="M189.57,345.87a137.88,137.88,0,0,1-21-1.61c8.38,31.95,21,50.51,21,50.51h0s12.61-18.56,21-50.51A137.75,137.75,0,0,1,189.57,345.87Z"/><path id="Trazado_3246" data-name="Trazado 3246" class="cls-27" d="M189.57,308.55a102.22,102.22,0,0,1-27.6-3.79,223.81,223.81,0,0,0,6.61,39.5,137.57,137.57,0,0,0,42,0,223.81,223.81,0,0,0,6.61-39.5A102.14,102.14,0,0,1,189.57,308.55Z"/><path id="Trazado_3247" data-name="Trazado 3247" class="cls-28" d="M216.9,266.66l-.58-1.44a67.4,67.4,0,0,1-53.52,0l-.57,1.44a229.73,229.73,0,0,0-.26,38.1,102.32,102.32,0,0,0,55.18,0A230.82,230.82,0,0,0,216.9,266.66Z"/><path id="Trazado_3248" data-name="Trazado 3248" class="cls-29" d="M162.8,265.22a67.42,67.42,0,0,0,53.53,0l-26.77-67.41Z"/><path id="Trazado_3250" data-name="Trazado 3250" class="cls-30" d="M75.49,285.87c-15.74,28.77-19.41,51.21-19.41,51.21h0s21.51-3.82,49.08-20.24A146,146,0,0,1,75.49,285.87Z"/><path id="Trazado_3251" data-name="Trazado 3251" class="cls-31" d="M97.57,253.07a215.44,215.44,0,0,0-22.08,32.8,145.77,145.77,0,0,0,29.67,31,205.63,205.63,0,0,0,31.43-23A109.08,109.08,0,0,1,97.57,253.07Z"/><path id="Trazado_3252" data-name="Trazado 3252" class="cls-32" d="M162.23,266.66l.57-1.44h0l-.57,1.44.57-1.44A71.73,71.73,0,0,1,125,225.73l-1.38.6a216.17,216.17,0,0,0-26,26.75,109.08,109.08,0,0,0,39,40.72A217.18,217.18,0,0,0,162.23,266.66Z"/><path id="Trazado_3253" data-name="Trazado 3253" class="cls-1" d="M189.57,197.81,162.8,265.22h0Z"/><path id="Trazado_3254" data-name="Trazado 3254" class="cls-33" d="M125,225.73a71.73,71.73,0,0,0,37.85,39.49l26.76-67.41Z"/></g><g id="Grupo_321" data-name="Grupo 321"><g id="Optimismo" class="cls-34"><text class="cls-35" transform="translate(100.06 44.49)">Optimismo</text></g><g id="Serenidad" class="cls-34"><text class="cls-35" transform="translate(172.57 70.3)">Serenidad</text></g><g id="Interés" class="cls-34"><text class="cls-35" transform="translate(91.44 108.72)">Interés</text></g><g id="Aprobación" class="cls-34"><text class="cls-35" transform="translate(256.47 108.72)">Aprobación</text></g><g id="Confianza" class="cls-34"><text class="cls-35" transform="translate(229.1 131.35)">Confianza</text></g><g id="Anticipación" class="cls-34"><text class="cls-35" transform="translate(112.31 131.35)">Anticipación</text></g><g id="Aversión" class="cls-34"><text class="cls-36" transform="translate(118.67 268.84)">A<tspan class="cls-37" x="4.81" y="0">versión</tspan></text></g><g id="Tedio" class="cls-34"><text class="cls-35" transform="translate(91.69 290.54)"><tspan class="cls-38">T</tspan><tspan x="3.28" y="0">edio</tspan></text></g><g id="Distracción" class="cls-34"><text class="cls-35" transform="translate(258.62 290.54)">Distracción</text></g><g id="Sorpresa" class="cls-34"><text class="cls-35" transform="translate(234.11 268.84)">Sorpresa</text></g><g id="Alegría" class="cls-34"><text class="cls-35" transform="translate(177.65 108.72)">Alegría</text></g><g id="Extasis" class="cls-34"><text class="cls-35" transform="translate(178.4 147.49)">Extasis</text></g><g id="Pena" class="cls-34"><text class="cls-35" transform="translate(181.41 252.78)"><tspan class="cls-39">P</tspan><tspan x="4.02" y="0">ena</tspan></text></g><g id="Tristeza" class="cls-34"><text class="cls-40" transform="translate(176.97 290.54)">T<tspan class="cls-37" x="3.36" y="0">risteza</tspan></text></g><g id="Melancolía" class="cls-34"><text class="cls-35" transform="translate(171.19 328.51)">Melancolía</text></g><g id="Vigilancia" class="cls-34"><text class="cls-35" transform="translate(136.83 168.58)">Vigilancia</text></g><g id="Odio" class="cls-34"><text class="cls-35" transform="translate(144.73 234.28)">Odio</text></g><g id="Asombro" class="cls-34"><text class="cls-35" transform="translate(211.81 234.28)">Asombro</text></g><g id="Furia" class="cls-34"><text class="cls-35" transform="translate(135.23 200.12)">Furia</text></g><g id="Terror" class="cls-34"><text class="cls-35" transform="translate(220.41 200.12)"><tspan class="cls-38">T</tspan><tspan x="3.28" y="0">error</tspan></text></g><g id="Miedo" class="cls-34"><text class="cls-35" transform="translate(266.55 200.12)">Miedo</text></g><g id="Temor" class="cls-34"><text class="cls-35" transform="translate(303.67 200.12)"><tspan class="cls-38">T</tspan><tspan x="3.28" y="0">emor</tspan></text></g><g id="Ira" class="cls-34"><text class="cls-35" transform="translate(98 200.12)">Ira</text></g><g id="Enfado" class="cls-34"><text class="cls-35" transform="translate(53.41 200.12)">Enfado</text></g><g id="Admiración" class="cls-34"><text class="cls-35" transform="translate(207.84 168.58)">Admiración</text></g><g id="Alevosía" class="cls-34"><text class="cls-35" transform="translate(20.89 142.53)">Alevosía</text></g><g id="Desprecio" class="cls-34"><text class="cls-35" transform="translate(20.13 265.22)">Desprecio</text></g><g id="Remordimiento" class="cls-34"><text class="cls-35" transform="translate(96.54 355.8)"><tspan class="cls-41">R</tspan><tspan x="4.37" y="0">emordimiento</tspan></text></g><g id="Decepción" class="cls-34"><text class="cls-35" transform="translate(241.59 355.8)">Decepción</text></g><g id="Susto" class="cls-34"><text class="cls-35" transform="translate(332.2 265.22)">Susto</text></g><g id="Sumisión" class="cls-34"><text class="cls-35" transform="translate(328.44 142.53)">Sumisión</text></g><g id="Amor" class="cls-34"><text class="cls-35" transform="translate(244.51 44.49)">Amor</text></g></g></g></g></g></svg>