<svg xmlns="http://www.w3.org/2000/svg" viewBox="0 0 1024 768"><defs><style>.cls-1{fill:#391393;}.cls-2{fill:none;}.cls-10,.cls-11,.cls-12,.cls-13,.cls-14,.cls-15,.cls-16,.cls-17,.cls-18,.cls-19,.cls-2,.cls-20,.cls-21,.cls-22,.cls-23,.cls-24,.cls-25,.cls-26,.cls-27,.cls-28,.cls-29,.cls-3,.cls-30,.cls-31,.cls-32,.cls-33,.cls-34,.cls-4,.cls-5,.cls-6,.cls-7,.cls-8,.cls-9{stroke:#fff;stroke-miterlimit:10;stroke-width:0.94px;stroke-dasharray:3.76;}.cls-3{fill:#f5d3d3;}.cls-4{fill:#eca9a8;}.cls-5{fill:#d53f40;}.cls-6{fill:#b53939;}.cls-7{fill:#f6e4d3;}.cls-8{fill:#ecc9a9;}.cls-9{fill:#e3b07f;}.cls-10{fill:#d58940;}.cls-11{fill:#f7f9e5;}.cls-12{fill:#f2f2c5;}.cls-13{fill:#e3e37f;}.cls-14{fill:#e4d47f;}.cls-15{fill:#d3f4d3;}.cls-16{fill:#a8eca9;}.cls-17{fill:#7fe280;}.cls-18{fill:#329c33;}.cls-19{fill:#cfe0cf;}.cls-20{fill:#9fc19f;}.cls-21{fill:#2f862e;}.cls-22{fill:#2a762b;}.cls-23{fill:#e0eef8;}.cls-24{fill:#bbdaf0;}.cls-25{fill:#83bce3;}.cls-26{fill:#3b8abd;}.cls-27{fill:#d4d2f5;}.cls-28{fill:#a9a9ec;}.cls-29{fill:#7c7ce2;}.cls-30{fill:#3737ab;}.cls-31{fill:#fae9fa;}.cls-32{fill:#f5d4f5;}.cls-33{fill:#e37fe3;}.cls-34{fill:#bb3bbb;}.cls-35,.cls-36,.cls-37,.cls-41{isolation:isolate;}.cls-36,.cls-37,.cls-41{font-size:7.69px;font-family:SegoeUI, Segoe UI;}.cls-36,.cls-37,.cls-41,.cls-47{fill:#fff;}.cls-37{letter-spacing:-0.02em;}.cls-38{letter-spacing:0em;}.cls-39{letter-spacing:-0.1em;}.cls-40{letter-spacing:-0.04em;}.cls-41{letter-spacing:-0.09em;}.cls-42{letter-spacing:-0.03em;}.cls-43{fill:#ffdd67;}.cls-44{fill:#664e27;}.cls-45{fill:#4c3526;}.cls-46{fill:#ff717f;}.cls-48{fill:#917524;}.cls-49{opacity:0.8;}.cls-50{fill:#f46767;}.cls-51{fill:#cccfd4;}.cls-52{fill:#65b1ef;}.cls-53{fill:#494949;}.cls-54{fill:#d8d8d8;}.cls-55{fill:#d8a941;}.cls-56{fill:#ef5350;}.cls-57{fill:#302424;}</style></defs><g id="Capa_2" data-name="Capa 2"><g id="Capa_1-2" data-name="Capa 1"><g id="Grupo_354" data-name="Grupo 354"><rect id="Rectángulo_488" data-name="Rectángulo 488" class="cls-1" width="1024" height="768"/><g id="Grupo_353" data-name="Grupo 353"><g id="Grupo_322" data-name="Grupo 322"><g id="Grupo_320" data-name="Grupo 320"><path id="Trazado_3172" data-name="Trazado 3172" class="cls-2" d="M146.53,405.89C115.91,397.16,98.12,384,98.12,384c0,54.39,21.12,103.63,55.29,139.28,0,0,3.66-22.44,19.4-51.22A150.81,150.81,0,0,1,146.53,405.89Z"/><path id="Trazado_3173" data-name="Trazado 3173" class="cls-2" d="M265.9,237.55c8.38-32,21-50.52,21-50.52-52.13,0-99.32,22.05-133.48,57.69,0,0,21.5,3.83,49.08,20.25A138,138,0,0,1,265.9,237.55Z"/><path id="Trazado_3174" data-name="Trazado 3174" class="cls-2" d="M172.81,295.93c-15.74-28.77-19.4-51.21-19.4-51.21C119.25,280.37,98.12,329.61,98.12,384c0,0,17.8-13.16,48.41-21.89A150.9,150.9,0,0,1,172.81,295.93Z"/><path id="Trazado_3175" data-name="Trazado 3175" class="cls-2" d="M202.49,503c-27.58,16.42-49.08,20.25-49.08,20.25C187.57,558.92,234.76,581,286.89,581c0,0-12.61-18.57-21-50.52A138.06,138.06,0,0,1,202.49,503Z"/><path id="Trazado_3176" data-name="Trazado 3176" class="cls-2" d="M371.29,265c27.58-16.42,49.08-20.25,49.08-20.25s-3.66,22.44-19.4,51.22a150.69,150.69,0,0,1,26.28,66.17c30.62,8.73,48.42,21.89,48.42,21.89h0c0-108.78-84.52-197-188.77-197,0,0,12.6,18.57,21,50.52A138,138,0,0,1,371.29,265Z"/><path id="Trazado_3177" data-name="Trazado 3177" class="cls-2" d="M307.87,530.45c-8.37,31.95-21,50.52-21,50.52,52.13,0,99.32-22.05,133.48-57.69,0,0-21.5-3.83-49.08-20.25A138.11,138.11,0,0,1,307.87,530.45Z"/><path id="Trazado_3178" data-name="Trazado 3178" class="cls-2" d="M401,472.06c15.74,28.78,19.4,51.22,19.4,51.22,34.16-35.65,55.29-84.89,55.29-139.28,0,0-17.79,13.16-48.41,21.89A150.69,150.69,0,0,1,401,472.06Z"/><path id="Trazado_3179" data-name="Trazado 3179" class="cls-2" d="M378.88,328.73a112.7,112.7,0,0,1,10.51,26.48,197,197,0,0,1,37.85,6.9A150.88,150.88,0,0,0,401,295.93,215.25,215.25,0,0,1,378.88,328.73Z"/><path id="Trazado_3180" data-name="Trazado 3180" class="cls-2" d="M194.9,328.73a214.52,214.52,0,0,1-22.09-32.8,150.81,150.81,0,0,0-26.28,66.17,198.69,198.69,0,0,1,37.85-6.9A113.09,113.09,0,0,1,194.9,328.73Z"/><path id="Trazado_3181" data-name="Trazado 3181" class="cls-2" d="M233.92,480a206.12,206.12,0,0,1-31.43,23,138,138,0,0,0,63.41,27.42,223.81,223.81,0,0,1-6.61-39.5A103.08,103.08,0,0,1,233.92,480Z"/><path id="Trazado_3182" data-name="Trazado 3182" class="cls-2" d="M259.29,277a223.85,223.85,0,0,1,6.61-39.49A138.11,138.11,0,0,0,202.48,265a205.72,205.72,0,0,1,31.44,23A103.33,103.33,0,0,1,259.29,277Z"/><path id="Trazado_3183" data-name="Trazado 3183" class="cls-2" d="M314.48,491a223.81,223.81,0,0,1-6.61,39.5A138.11,138.11,0,0,0,371.29,503a205.72,205.72,0,0,1-31.44-23A102.92,102.92,0,0,1,314.48,491Z"/><path id="Trazado_3184" data-name="Trazado 3184" class="cls-2" d="M339.85,288a205.72,205.72,0,0,1,31.44-23,138.11,138.11,0,0,0-63.42-27.42,223.81,223.81,0,0,1,6.61,39.5A102.92,102.92,0,0,1,339.85,288Z"/><path id="Trazado_3185" data-name="Trazado 3185" class="cls-2" d="M184.38,412.79a198.69,198.69,0,0,1-37.85-6.9,150.81,150.81,0,0,0,26.28,66.17,214.52,214.52,0,0,1,22.09-32.8A113.09,113.09,0,0,1,184.38,412.79Z"/><path id="Trazado_3186" data-name="Trazado 3186" class="cls-2" d="M378.88,439.27A215.19,215.19,0,0,1,401,472.07a150.74,150.74,0,0,0,26.28-66.17,198.55,198.55,0,0,1-37.85,6.9A112.8,112.8,0,0,1,378.88,439.27Z"/><path id="Trazado_3187" data-name="Trazado 3187" class="cls-2" d="M313.65,316.58l.57-1.44Z"/><path id="Trazado_3188" data-name="Trazado 3188" class="cls-2" d="M259.55,315.14a231.91,231.91,0,0,1-.26-38.1,103.84,103.84,0,0,0-25.37,11A217,217,0,0,1,259.55,315.14Z"/><path id="Trazado_3189" data-name="Trazado 3189" class="cls-2" d="M352.88,355.48l-1.38.59h0l1.38-.59a202.39,202.39,0,0,1,36.51-.27,112.7,112.7,0,0,0-10.51-26.48A216.17,216.17,0,0,1,352.88,355.48Z"/><path id="Trazado_3190" data-name="Trazado 3190" class="cls-2" d="M220.9,355.48a216.17,216.17,0,0,1-26-26.75,112.73,112.73,0,0,0-10.52,26.48A202.49,202.49,0,0,1,220.9,355.48Z"/><path id="Trazado_3191" data-name="Trazado 3191" class="cls-2" d="M220.9,412.52l1.37-.6h0Z"/><path id="Trazado_3192" data-name="Trazado 3192" class="cls-2" d="M352.88,412.52a216.17,216.17,0,0,1,26,26.75,112.87,112.87,0,0,0,10.51-26.48A202.39,202.39,0,0,1,352.88,412.52Z"/><path id="Trazado_3193" data-name="Trazado 3193" class="cls-2" d="M314.22,452.85a230.82,230.82,0,0,1,.26,38.1,102.92,102.92,0,0,0,25.37-11A216.37,216.37,0,0,1,314.22,452.85Z"/><path id="Trazado_3194" data-name="Trazado 3194" class="cls-2" d="M220.9,412.52l1.37-.6h0l-1.37.6a202.49,202.49,0,0,1-36.52.27,112.9,112.9,0,0,0,10.52,26.48A216.17,216.17,0,0,1,220.9,412.52Z"/><path id="Trazado_3195" data-name="Trazado 3195" class="cls-2" d="M259.55,452.85l.57-1.43h0l-.57,1.43A216.33,216.33,0,0,1,233.92,480a103.08,103.08,0,0,0,25.37,11A231.92,231.92,0,0,1,259.55,452.85Z"/><path id="Trazado_3196" data-name="Trazado 3196" class="cls-2" d="M314.22,315.14A217,217,0,0,1,339.85,288a103.33,103.33,0,0,0-25.37-11A230.81,230.81,0,0,1,314.22,315.14Z"/><path id="Trazado_3197" data-name="Trazado 3197" class="cls-2" d="M286.89,384h0l26.76-67.42h0Z"/><path id="Trazado_3199" data-name="Trazado 3199" class="cls-2" d="M286.89,384l64.61-27.93h0Z"/><path id="Trazado_3200" data-name="Trazado 3200" class="cls-2" d="M260.12,451.42h0L286.89,384Z"/><path id="Trazado_3201" data-name="Trazado 3201" class="cls-2" d="M286.89,384l-64.61,27.93h0Z"/><path id="Trazado_3206" data-name="Trazado 3206" class="cls-2" d="M286.89,384l-64.61,27.93h0Z"/><path id="Trazado_3207" data-name="Trazado 3207" class="cls-3" d="M145,384a155.67,155.67,0,0,1,1.54-21.89C115.91,370.84,98.12,384,98.12,384s17.8,13.16,48.41,21.89A155.67,155.67,0,0,1,145,384Z"/><path id="Trazado_3208" data-name="Trazado 3208" class="cls-4" d="M180.75,384a116,116,0,0,1,3.63-28.79,198.69,198.69,0,0,0-37.85,6.9,156.42,156.42,0,0,0,0,43.79,198.69,198.69,0,0,0,37.85,6.9A116.11,116.11,0,0,1,180.75,384Z"/><path id="Trazado_3209" data-name="Trazado 3209" class="cls-5" d="M220.9,412.52l1.37-.6a76.22,76.22,0,0,1,0-55.85l-1.37-.6a204.34,204.34,0,0,0-36.52-.27,116,116,0,0,0,0,57.58A203.41,203.41,0,0,0,220.9,412.52Z"/><path id="Trazado_3210" data-name="Trazado 3210" class="cls-6" d="M222.27,356.07a76.24,76.24,0,0,0,0,55.86L286.89,384Z"/><path id="Trazado_3212" data-name="Trazado 3212" class="cls-7" d="M202.49,265c-27.58-16.42-49.08-20.25-49.08-20.25h0s3.67,22.44,19.4,51.22A146.06,146.06,0,0,1,202.49,265Z"/><path id="Trazado_3213" data-name="Trazado 3213" class="cls-8" d="M233.92,288a206.12,206.12,0,0,0-31.43-23,145.76,145.76,0,0,0-29.68,31,214.52,214.52,0,0,0,22.09,32.8A109.05,109.05,0,0,1,233.92,288Z"/><path id="Trazado_3214" data-name="Trazado 3214" class="cls-9" d="M220.9,355.48l1.37.59a71.8,71.8,0,0,1,37.85-39.49l-.57-1.44A216.24,216.24,0,0,0,233.92,288a109,109,0,0,0-39,40.71A216.17,216.17,0,0,0,220.9,355.48Z"/><path id="Trazado_3215" data-name="Trazado 3215" class="cls-2" d="M220.9,355.48l1.37.6h0Z"/><path id="Trazado_3216" data-name="Trazado 3216" class="cls-10" d="M260.12,316.58a71.8,71.8,0,0,0-37.85,39.49L286.89,384Z"/><path id="Trazado_3217" data-name="Trazado 3217" class="cls-2" d="M286.89,384l-64.61-27.93h0Z"/><path id="Trazado_3218" data-name="Trazado 3218" class="cls-11" d="M286.89,235.94a137.65,137.65,0,0,1,21,1.61c-8.37-32-21-50.52-21-50.52s-12.61,18.57-21,50.52A137.75,137.75,0,0,1,286.89,235.94Z"/><path id="Trazado_3219" data-name="Trazado 3219" class="cls-12" d="M286.89,273.26A102.08,102.08,0,0,1,314.48,277a222,222,0,0,0-6.61-39.49,137.5,137.5,0,0,0-42,0A222.94,222.94,0,0,0,259.3,277,102.08,102.08,0,0,1,286.89,273.26Z"/><path id="Trazado_3220" data-name="Trazado 3220" class="cls-13" d="M259.55,315.14l.57,1.44a67.42,67.42,0,0,1,53.53,0l.57-1.44a230.81,230.81,0,0,0,.26-38.1,102.62,102.62,0,0,0-55.19,0A231.91,231.91,0,0,0,259.55,315.14Z"/><path id="Trazado_3221" data-name="Trazado 3221" class="cls-14" d="M286.89,384l26.76-67.42a67.4,67.4,0,0,0-53.52,0Z"/><path id="Trazado_3223" data-name="Trazado 3223" class="cls-15" d="M401,295.93c15.74-28.77,19.4-51.21,19.4-51.21s-21.5,3.83-49.08,20.25A145.76,145.76,0,0,1,401,295.93Z"/><path id="Trazado_3224" data-name="Trazado 3224" class="cls-16" d="M378.88,328.73A215.19,215.19,0,0,0,401,295.93a146,146,0,0,0-29.67-31A206.39,206.39,0,0,0,339.85,288,109.11,109.11,0,0,1,378.88,328.73Z"/><path id="Trazado_3225" data-name="Trazado 3225" class="cls-2" d="M352.88,355.48l-1.38.6h0Z"/><path id="Trazado_3226" data-name="Trazado 3226" class="cls-17" d="M339.85,288a217,217,0,0,0-25.63,27.12l-.57,1.44a71.77,71.77,0,0,1,37.85,39.49l1.38-.59a216.17,216.17,0,0,0,26-26.75A109,109,0,0,0,339.85,288Z"/><path id="Trazado_3227" data-name="Trazado 3227" class="cls-2" d="M286.89,384l64.61-27.93h0Z"/><path id="Trazado_3228" data-name="Trazado 3228" class="cls-18" d="M286.89,384l64.61-27.93a71.73,71.73,0,0,0-37.85-39.49L286.89,384Z"/><path id="Trazado_3233" data-name="Trazado 3233" class="cls-19" d="M427.24,362.11a156.35,156.35,0,0,1,0,43.78c30.62-8.73,48.42-21.89,48.42-21.89h0S457.86,370.84,427.24,362.11Z"/><path id="Trazado_3234" data-name="Trazado 3234" class="cls-20" d="M393,384a115.1,115.1,0,0,1-3.63,28.79,198.55,198.55,0,0,0,37.85-6.9,156.42,156.42,0,0,0,0-43.79,198.55,198.55,0,0,0-37.85-6.9A115.17,115.17,0,0,1,393,384Z"/><path id="Trazado_3235" data-name="Trazado 3235" class="cls-21" d="M352.88,355.48l-1.38.59a76.11,76.11,0,0,1,0,55.86l1.38.6-1.38-.6h0l1.38.6a203.31,203.31,0,0,0,36.51.26,115.94,115.94,0,0,0,0-57.57A202.39,202.39,0,0,0,352.88,355.48Z"/><path id="Trazado_3236" data-name="Trazado 3236" class="cls-22" d="M351.5,411.92a76.08,76.08,0,0,0,0-55.85L286.89,384Z"/><path id="Trazado_3237" data-name="Trazado 3237" class="cls-2" d="M286.89,384h0l64.61,27.93h0Z"/><path id="Trazado_3240" data-name="Trazado 3240" class="cls-23" d="M371.29,503c27.58,16.42,49.08,20.25,49.08,20.25h0s-3.67-22.44-19.4-51.22A145.57,145.57,0,0,1,371.29,503Z"/><path id="Trazado_3241" data-name="Trazado 3241" class="cls-24" d="M339.85,480a205.72,205.72,0,0,0,31.44,23,145.77,145.77,0,0,0,29.67-31,216.18,216.18,0,0,0-22.08-32.8A109,109,0,0,1,339.85,480Z"/><path id="Trazado_3242" data-name="Trazado 3242" class="cls-25" d="M352.88,412.52l-1.38-.6a71.73,71.73,0,0,1-37.85,39.49l.57,1.44-.57-1.44h0l.57,1.44A217.75,217.75,0,0,0,339.85,480a109.11,109.11,0,0,0,39-40.72A216.79,216.79,0,0,0,352.88,412.52Z"/><path id="Trazado_3243" data-name="Trazado 3243" class="cls-26" d="M313.65,451.42a71.77,71.77,0,0,0,37.85-39.49L286.89,384Z"/><path id="Trazado_3244" data-name="Trazado 3244" class="cls-2" d="M286.89,384l26.76,67.42h0Z"/><path id="Trazado_3245" data-name="Trazado 3245" class="cls-27" d="M286.89,532.06a137.75,137.75,0,0,1-21-1.61c8.37,31.95,21,50.52,21,50.52h0s12.61-18.57,21-50.52A137.65,137.65,0,0,1,286.89,532.06Z"/><path id="Trazado_3246" data-name="Trazado 3246" class="cls-28" d="M286.89,494.74A101.7,101.7,0,0,1,259.3,491a222.89,222.89,0,0,0,6.61,39.5,137.5,137.5,0,0,0,42,0,222,222,0,0,0,6.61-39.5A101.7,101.7,0,0,1,286.89,494.74Z"/><path id="Trazado_3247" data-name="Trazado 3247" class="cls-29" d="M314.22,452.85l-.57-1.43a67.42,67.42,0,0,1-53.53,0l-.57,1.43a231.92,231.92,0,0,0-.26,38.1,102.35,102.35,0,0,0,55.19,0A230.82,230.82,0,0,0,314.22,452.85Z"/><path id="Trazado_3248" data-name="Trazado 3248" class="cls-30" d="M260.12,451.42a67.42,67.42,0,0,0,53.53,0L286.89,384Z"/><path id="Trazado_3250" data-name="Trazado 3250" class="cls-31" d="M172.81,472.06c-15.74,28.78-19.4,51.22-19.4,51.22h0s21.5-3.83,49.08-20.25A145.57,145.57,0,0,1,172.81,472.06Z"/><path id="Trazado_3251" data-name="Trazado 3251" class="cls-32" d="M194.9,439.27a214.52,214.52,0,0,0-22.09,32.8,145.76,145.76,0,0,0,29.68,31,206.06,206.06,0,0,0,31.43-23A109.08,109.08,0,0,1,194.9,439.27Z"/><path id="Trazado_3252" data-name="Trazado 3252" class="cls-33" d="M259.55,452.85l.57-1.43h0l-.57,1.43.57-1.43a71.8,71.8,0,0,1-37.85-39.49l-1.37.6a216.79,216.79,0,0,0-26,26.74,109.08,109.08,0,0,0,39,40.72A216.41,216.41,0,0,0,259.55,452.85Z"/><path id="Trazado_3253" data-name="Trazado 3253" class="cls-2" d="M286.89,384l-26.76,67.42h0Z"/><path id="Trazado_3254" data-name="Trazado 3254" class="cls-34" d="M222.27,411.92a71.79,71.79,0,0,0,37.85,39.5L286.89,384Z"/></g><g id="Grupo_321" data-name="Grupo 321"><g id="Optimismo" class="cls-35"><text class="cls-36" transform="translate(197.39 230.69)">Optimismo</text></g><g id="Serenidad" class="cls-35"><text class="cls-36" transform="translate(269.89 256.49)">Serenidad</text></g><g id="Interés" class="cls-35"><text class="cls-36" transform="translate(188.77 294.92)">Interés</text></g><g id="Aprobación" class="cls-35"><text class="cls-36" transform="translate(353.8 294.92)">Aprobación</text></g><g id="Confianza" class="cls-35"><text class="cls-36" transform="translate(326.42 317.54)">Confianza</text></g><g id="Anticipación" class="cls-35"><text class="cls-36" transform="translate(209.63 317.54)">Anticipación</text></g><g id="Aversión" class="cls-35"><text class="cls-37" transform="translate(216 455.03)">A<tspan class="cls-38" x="4.81" y="0">versión</tspan></text></g><g id="Tedio" class="cls-35"><text class="cls-36" transform="translate(189.01 476.74)"><tspan class="cls-39">T</tspan><tspan x="3.28" y="0">edio</tspan></text></g><g id="Distracción" class="cls-35"><text class="cls-36" transform="translate(355.94 476.74)">Distracción</text></g><g id="Sorpresa" class="cls-35"><text class="cls-36" transform="translate(331.44 455.03)">Sorpresa</text></g><g id="Alegría" class="cls-35"><text class="cls-36" transform="translate(274.98 294.92)">Alegría</text></g><g id="Extasis" class="cls-35"><text class="cls-36" transform="translate(275.72 333.69)">Extasis</text></g><g id="Pena" class="cls-35"><text class="cls-36" transform="translate(278.73 438.97)"><tspan class="cls-40">P</tspan><tspan x="4.02" y="0">ena</tspan></text></g><g id="Tristeza" class="cls-35"><text class="cls-41" transform="translate(274.3 476.74)">T<tspan class="cls-38" x="3.36" y="0">risteza</tspan></text></g><g id="Melancolía" class="cls-35"><text class="cls-36" transform="translate(268.51 514.7)">Melancolía</text></g><g id="Vigilancia" class="cls-35"><text class="cls-36" transform="translate(234.16 354.77)">Vigilancia</text></g><g id="Odio" class="cls-35"><text class="cls-36" transform="translate(242.05 420.48)">Odio</text></g><g id="Asombro" class="cls-35"><text class="cls-36" transform="translate(309.14 420.48)">Asombro</text></g><g id="Furia" class="cls-35"><text class="cls-36" transform="translate(232.56 386.31)">Furia</text></g><g id="Terror" class="cls-35"><text class="cls-36" transform="translate(317.74 386.31)"><tspan class="cls-39">T</tspan><tspan x="3.28" y="0">error</tspan></text></g><g id="Miedo" class="cls-35"><text class="cls-36" transform="translate(363.88 386.31)">Miedo</text></g><g id="Temor" class="cls-35"><text class="cls-36" transform="translate(400.99 386.31)"><tspan class="cls-39">T</tspan><tspan x="3.28" y="0">emor</tspan></text></g><g id="Ira" class="cls-35"><text class="cls-36" transform="translate(195.33 386.31)">Ira</text></g><g id="Enfado" class="cls-35"><text class="cls-36" transform="translate(150.74 386.31)">Enfado</text></g><g id="Admiración" class="cls-35"><text class="cls-36" transform="translate(305.17 354.77)">Admiración</text></g><g id="Alevosía" class="cls-35"><text class="cls-36" transform="translate(118.22 328.73)">Alevosía</text></g><g id="Desprecio" class="cls-35"><text class="cls-36" transform="translate(117.45 451.42)">Desprecio</text></g><g id="Remordimiento" class="cls-35"><text class="cls-36" transform="translate(193.87 542)"><tspan class="cls-42">R</tspan><tspan x="4.37" y="0">emordimiento</tspan></text></g><g id="Decepción" class="cls-35"><text class="cls-36" transform="translate(338.92 542)">Decepción</text></g><g id="Susto" class="cls-35"><text class="cls-36" transform="translate(429.53 451.42)">Susto</text></g><g id="Sumisión" class="cls-35"><text class="cls-36" transform="translate(425.76 328.73)">Sumisión</text></g><g id="Amor" class="cls-35"><text class="cls-36" transform="translate(341.83 230.69)">Amor</text></g></g></g><g id="Grupo_352" data-name="Grupo 352"><g id="Grupo_323" data-name="Grupo 323"><path id="Trazado_3255" data-name="Trazado 3255" class="cls-2" d="M596.76,405.89C566.14,397.16,548.34,384,548.34,384c0,54.39,21.13,103.63,55.29,139.28,0,0,3.67-22.44,19.4-51.22A150.8,150.8,0,0,1,596.76,405.89Z"/><path id="Trazado_3256" data-name="Trazado 3256" class="cls-2" d="M716.13,237.55c8.37-32,21-50.52,21-50.52-52.13,0-99.32,22.05-133.48,57.69,0,0,21.5,3.83,49.08,20.25A138.11,138.11,0,0,1,716.13,237.55Z"/><path id="Trazado_3257" data-name="Trazado 3257" class="cls-2" d="M623,295.93c-15.74-28.77-19.4-51.21-19.4-51.21-34.17,35.65-55.29,84.89-55.29,139.28,0,0,17.79-13.16,48.41-21.89A150.78,150.78,0,0,1,623,295.93Z"/><path id="Trazado_3258" data-name="Trazado 3258" class="cls-2" d="M652.71,503c-27.58,16.42-49.08,20.25-49.08,20.25C637.79,558.92,685,581,737.11,581c0,0-12.61-18.57-21-50.52A138.11,138.11,0,0,1,652.71,503Z"/><path id="Trazado_3259" data-name="Trazado 3259" class="cls-2" d="M821.51,265c27.58-16.42,49.08-20.25,49.08-20.25s-3.66,22.44-19.4,51.22a150.69,150.69,0,0,1,26.28,66.17c30.62,8.73,48.42,21.89,48.42,21.89h0c0-108.78-84.52-197-188.77-197,0,0,12.61,18.57,21,50.52A138,138,0,0,1,821.51,265Z"/><path id="Trazado_3260" data-name="Trazado 3260" class="cls-2" d="M758.09,530.45c-8.37,31.95-21,50.52-21,50.52,52.13,0,99.32-22.05,133.48-57.69,0,0-21.5-3.83-49.08-20.25A138.11,138.11,0,0,1,758.09,530.45Z"/><path id="Trazado_3261" data-name="Trazado 3261" class="cls-2" d="M851.19,472.06c15.74,28.78,19.4,51.22,19.4,51.22,34.16-35.65,55.29-84.89,55.29-139.28,0,0-17.79,13.16-48.42,21.89A150.8,150.8,0,0,1,851.19,472.06Z"/><path id="Trazado_3262" data-name="Trazado 3262" class="cls-2" d="M829.1,328.73a113.16,113.16,0,0,1,10.52,26.48,198.69,198.69,0,0,1,37.85,6.9,150.81,150.81,0,0,0-26.28-66.17A214.92,214.92,0,0,1,829.1,328.73Z"/><path id="Trazado_3263" data-name="Trazado 3263" class="cls-2" d="M645.12,328.73A214.46,214.46,0,0,1,623,295.93a150.69,150.69,0,0,0-26.28,66.17,198.55,198.55,0,0,1,37.85-6.9A112.8,112.8,0,0,1,645.12,328.73Z"/><path id="Trazado_3264" data-name="Trazado 3264" class="cls-2" d="M684.14,480a205.63,205.63,0,0,1-31.43,23,138.11,138.11,0,0,0,63.42,27.42,222.89,222.89,0,0,1-6.61-39.5A103.15,103.15,0,0,1,684.14,480Z"/><path id="Trazado_3265" data-name="Trazado 3265" class="cls-2" d="M709.52,277a222.94,222.94,0,0,1,6.61-39.49A138.11,138.11,0,0,0,652.71,265a205.63,205.63,0,0,1,31.43,23A103.56,103.56,0,0,1,709.52,277Z"/><path id="Trazado_3266" data-name="Trazado 3266" class="cls-2" d="M764.7,491a222,222,0,0,1-6.61,39.5A138,138,0,0,0,821.51,503a206.12,206.12,0,0,1-31.43-23A103,103,0,0,1,764.7,491Z"/><path id="Trazado_3267" data-name="Trazado 3267" class="cls-2" d="M790.08,288a205.63,205.63,0,0,1,31.43-23,138,138,0,0,0-63.42-27.42,222,222,0,0,1,6.61,39.5A103,103,0,0,1,790.08,288Z"/><path id="Trazado_3268" data-name="Trazado 3268" class="cls-2" d="M634.61,412.79a198.55,198.55,0,0,1-37.85-6.9A150.8,150.8,0,0,0,623,472.06a215.25,215.25,0,0,1,22.09-32.8A112.62,112.62,0,0,1,634.61,412.79Z"/><path id="Trazado_3269" data-name="Trazado 3269" class="cls-2" d="M829.1,439.27a214.52,214.52,0,0,1,22.09,32.8,151,151,0,0,0,26.28-66.17,198.65,198.65,0,0,1-37.86,6.9A112.8,112.8,0,0,1,829.1,439.27Z"/><path id="Trazado_3270" data-name="Trazado 3270" class="cls-2" d="M763.88,316.58l.57-1.44Z"/><path id="Trazado_3271" data-name="Trazado 3271" class="cls-2" d="M709.78,315.14a229.72,229.72,0,0,1-.26-38.1,103.91,103.91,0,0,0-25.38,11A217.1,217.1,0,0,1,709.78,315.14Z"/><path id="Trazado_3272" data-name="Trazado 3272" class="cls-2" d="M803.1,355.48l-1.38.59h0l1.38-.59a202.49,202.49,0,0,1,36.52-.27,113.16,113.16,0,0,0-10.52-26.48A216.17,216.17,0,0,1,803.1,355.48Z"/><path id="Trazado_3273" data-name="Trazado 3273" class="cls-2" d="M671.12,355.48a216.17,216.17,0,0,1-26-26.75,112.7,112.7,0,0,0-10.51,26.48A202.39,202.39,0,0,1,671.12,355.48Z"/><path id="Trazado_3274" data-name="Trazado 3274" class="cls-2" d="M671.12,412.52l1.38-.6h0Z"/><path id="Trazado_3275" data-name="Trazado 3275" class="cls-2" d="M803.1,412.52a216.17,216.17,0,0,1,26,26.75,112.9,112.9,0,0,0,10.52-26.48A202.49,202.49,0,0,1,803.1,412.52Z"/><path id="Trazado_3276" data-name="Trazado 3276" class="cls-2" d="M764.45,452.85a230.82,230.82,0,0,1,.25,38.1,103,103,0,0,0,25.38-11A214.92,214.92,0,0,1,764.45,452.85Z"/><path id="Trazado_3277" data-name="Trazado 3277" class="cls-2" d="M671.12,412.52l1.38-.6h0l-1.38.6a202.39,202.39,0,0,1-36.51.27,112.87,112.87,0,0,0,10.51,26.48A216.17,216.17,0,0,1,671.12,412.52Z"/><path id="Trazado_3278" data-name="Trazado 3278" class="cls-2" d="M709.78,452.85l.57-1.43h0l-.57,1.43A216.41,216.41,0,0,1,684.14,480a103.15,103.15,0,0,0,25.38,11A229.73,229.73,0,0,1,709.78,452.85Z"/><path id="Trazado_3279" data-name="Trazado 3279" class="cls-2" d="M764.45,315.14A215.52,215.52,0,0,1,790.08,288a103.39,103.39,0,0,0-25.38-11A230.81,230.81,0,0,1,764.45,315.14Z"/><path id="Trazado_3280" data-name="Trazado 3280" class="cls-2" d="M737.11,384h0l26.77-67.42h0Z"/><path id="Trazado_3282" data-name="Trazado 3282" class="cls-2" d="M737.11,384l64.61-27.93h0Z"/><path id="Trazado_3283" data-name="Trazado 3283" class="cls-2" d="M710.35,451.42h0L737.11,384Z"/><path id="Trazado_3284" data-name="Trazado 3284" class="cls-2" d="M737.11,384,672.5,411.93h0Z"/><path id="Trazado_3289" data-name="Trazado 3289" class="cls-2" d="M737.11,384,672.5,411.93h0Z"/><path id="Trazado_3290" data-name="Trazado 3290" class="cls-3" d="M595.21,384a155.68,155.68,0,0,1,1.55-21.89C566.14,370.84,548.34,384,548.34,384s17.8,13.16,48.42,21.89A155.68,155.68,0,0,1,595.21,384Z"/><path id="Trazado_3291" data-name="Trazado 3291" class="cls-4" d="M631,384a115.1,115.1,0,0,1,3.63-28.79,198.55,198.55,0,0,0-37.85,6.9,155.42,155.42,0,0,0,0,43.79,198.55,198.55,0,0,0,37.85,6.9A115.17,115.17,0,0,1,631,384Z"/><path id="Trazado_3292" data-name="Trazado 3292" class="cls-5" d="M671.12,412.52l1.38-.6a76.08,76.08,0,0,1,0-55.85l-1.38-.6a204.24,204.24,0,0,0-36.51-.27,116,116,0,0,0,0,57.58A203.31,203.31,0,0,0,671.12,412.52Z"/><path id="Trazado_3293" data-name="Trazado 3293" class="cls-6" d="M672.5,356.07a76.11,76.11,0,0,0,0,55.86L737.11,384Z"/><path id="Trazado_3295" data-name="Trazado 3295" class="cls-7" d="M652.71,265c-27.58-16.42-49.08-20.25-49.08-20.25h0s3.67,22.44,19.4,51.22A146.06,146.06,0,0,1,652.71,265Z"/><path id="Trazado_3296" data-name="Trazado 3296" class="cls-8" d="M684.14,288a205.63,205.63,0,0,0-31.43-23,146,146,0,0,0-29.67,31,214.46,214.46,0,0,0,22.08,32.8A109.05,109.05,0,0,1,684.14,288Z"/><path id="Trazado_3297" data-name="Trazado 3297" class="cls-9" d="M671.12,355.48l1.38.59a71.77,71.77,0,0,1,37.85-39.49l-.57-1.44A216.32,216.32,0,0,0,684.14,288a109.06,109.06,0,0,0-39,40.71A216.17,216.17,0,0,0,671.12,355.48Z"/><path id="Trazado_3298" data-name="Trazado 3298" class="cls-2" d="M671.12,355.48l1.38.6h0Z"/><path id="Trazado_3299" data-name="Trazado 3299" class="cls-10" d="M710.35,316.58a71.77,71.77,0,0,0-37.85,39.49L737.11,384Z"/><path id="Trazado_3300" data-name="Trazado 3300" class="cls-2" d="M737.11,384,672.5,356.07h0Z"/><path id="Trazado_3301" data-name="Trazado 3301" class="cls-11" d="M737.11,235.94a137.65,137.65,0,0,1,21,1.61c-8.37-32-21-50.52-21-50.52s-12.61,18.57-21,50.52A137.75,137.75,0,0,1,737.11,235.94Z"/><path id="Trazado_3302" data-name="Trazado 3302" class="cls-12" d="M737.11,273.26A102.08,102.08,0,0,1,764.7,277a222,222,0,0,0-6.61-39.49,137.5,137.5,0,0,0-42,0A222.94,222.94,0,0,0,709.52,277,102.08,102.08,0,0,1,737.11,273.26Z"/><path id="Trazado_3303" data-name="Trazado 3303" class="cls-13" d="M709.78,315.14l.57,1.44a67.42,67.42,0,0,1,53.53,0l.57-1.44a230.81,230.81,0,0,0,.25-38.1,102.58,102.58,0,0,0-55.18,0A229.72,229.72,0,0,0,709.78,315.14Z"/><path id="Trazado_3304" data-name="Trazado 3304" class="cls-14" d="M737.11,384l26.77-67.42a67.42,67.42,0,0,0-53.53,0Z"/><path id="Trazado_3306" data-name="Trazado 3306" class="cls-15" d="M851.19,295.93c15.74-28.77,19.4-51.21,19.4-51.21s-21.5,3.83-49.08,20.25A146,146,0,0,1,851.19,295.93Z"/><path id="Trazado_3307" data-name="Trazado 3307" class="cls-16" d="M829.1,328.73a214.52,214.52,0,0,0,22.09-32.8,146.3,146.3,0,0,0-29.68-31A206.3,206.3,0,0,0,790.08,288,109.08,109.08,0,0,1,829.1,328.73Z"/><path id="Trazado_3308" data-name="Trazado 3308" class="cls-2" d="M803.1,355.48l-1.38.6h0Z"/><path id="Trazado_3309" data-name="Trazado 3309" class="cls-17" d="M790.08,288a216.24,216.24,0,0,0-25.63,27.12l-.57,1.44a71.75,71.75,0,0,1,37.84,39.49l1.38-.59a216.17,216.17,0,0,0,26-26.75A109,109,0,0,0,790.08,288Z"/><path id="Trazado_3310" data-name="Trazado 3310" class="cls-2" d="M737.11,384l64.61-27.93h0Z"/><path id="Trazado_3311" data-name="Trazado 3311" class="cls-18" d="M737.11,384l64.61-27.93a71.73,71.73,0,0,0-37.85-39.49L737.11,384Z"/><path id="Trazado_3316" data-name="Trazado 3316" class="cls-19" d="M877.47,362.11A155.57,155.57,0,0,1,879,384a157.19,157.19,0,0,1-1.54,21.89c30.62-8.73,48.41-21.89,48.41-21.89h0S908.09,370.84,877.47,362.11Z"/><path id="Trazado_3317" data-name="Trazado 3317" class="cls-20" d="M843.25,384a116,116,0,0,1-3.63,28.79,198.69,198.69,0,0,0,37.85-6.9,156.42,156.42,0,0,0,0-43.79,198.69,198.69,0,0,0-37.85-6.9A116.11,116.11,0,0,1,843.25,384Z"/><path id="Trazado_3318" data-name="Trazado 3318" class="cls-21" d="M803.1,355.48l-1.38.59a76.11,76.11,0,0,1,0,55.86l1.38.6-1.38-.6h0l1.38.6a203.41,203.41,0,0,0,36.52.26,115.94,115.94,0,0,0,0-57.57A202.49,202.49,0,0,0,803.1,355.48Z"/><path id="Trazado_3319" data-name="Trazado 3319" class="cls-22" d="M801.72,411.92a76.08,76.08,0,0,0,0-55.85L737.11,384Z"/><path id="Trazado_3320" data-name="Trazado 3320" class="cls-2" d="M737.11,384h0l64.61,27.93h0Z"/><path id="Trazado_3323" data-name="Trazado 3323" class="cls-23" d="M821.51,503c27.58,16.42,49.08,20.25,49.08,20.25h0s-3.67-22.44-19.4-51.22A145.57,145.57,0,0,1,821.51,503Z"/><path id="Trazado_3324" data-name="Trazado 3324" class="cls-24" d="M790.08,480a206.12,206.12,0,0,0,31.43,23,146.06,146.06,0,0,0,29.68-31,215.5,215.5,0,0,0-22.09-32.8A109,109,0,0,1,790.08,480Z"/><path id="Trazado_3325" data-name="Trazado 3325" class="cls-25" d="M803.1,412.52l-1.38-.6a71.72,71.72,0,0,1-37.84,39.49l.57,1.44-.57-1.44h0l.57,1.44A216.29,216.29,0,0,0,790.08,480a109.08,109.08,0,0,0,39-40.72A216.79,216.79,0,0,0,803.1,412.52Z"/><path id="Trazado_3326" data-name="Trazado 3326" class="cls-26" d="M763.88,451.42a71.75,71.75,0,0,0,37.84-39.49L737.11,384Z"/><path id="Trazado_3327" data-name="Trazado 3327" class="cls-2" d="M737.11,384l26.77,67.42h0Z"/><path id="Trazado_3328" data-name="Trazado 3328" class="cls-27" d="M737.11,532.06a137.75,137.75,0,0,1-21-1.61c8.37,31.95,21,50.52,21,50.52h0s12.61-18.57,21-50.52A137.65,137.65,0,0,1,737.11,532.06Z"/><path id="Trazado_3329" data-name="Trazado 3329" class="cls-28" d="M737.11,494.74A101.7,101.7,0,0,1,709.52,491a222.89,222.89,0,0,0,6.61,39.5,137.5,137.5,0,0,0,42,0A222,222,0,0,0,764.7,491,101.7,101.7,0,0,1,737.11,494.74Z"/><path id="Trazado_3330" data-name="Trazado 3330" class="cls-29" d="M764.45,452.85l-.57-1.43a67.42,67.42,0,0,1-53.53,0l-.57,1.43a229.73,229.73,0,0,0-.26,38.1,102.32,102.32,0,0,0,55.18,0A230.82,230.82,0,0,0,764.45,452.85Z"/><path id="Trazado_3331" data-name="Trazado 3331" class="cls-30" d="M710.35,451.42a67.42,67.42,0,0,0,53.53,0L737.11,384Z"/><path id="Trazado_3333" data-name="Trazado 3333" class="cls-31" d="M623,472.06c-15.74,28.78-19.4,51.22-19.4,51.22h0s21.5-3.83,49.08-20.25A145.57,145.57,0,0,1,623,472.06Z"/><path id="Trazado_3334" data-name="Trazado 3334" class="cls-32" d="M645.12,439.27A214.46,214.46,0,0,0,623,472.07a146,146,0,0,0,29.67,31,205.57,205.57,0,0,0,31.43-23A109.16,109.16,0,0,1,645.12,439.27Z"/><path id="Trazado_3335" data-name="Trazado 3335" class="cls-33" d="M709.78,452.85l.57-1.43h0l-.57,1.43.57-1.43a71.77,71.77,0,0,1-37.85-39.49l-1.38.6a216.79,216.79,0,0,0-26,26.74,109.16,109.16,0,0,0,39,40.72A216.49,216.49,0,0,0,709.78,452.85Z"/><path id="Trazado_3336" data-name="Trazado 3336" class="cls-2" d="M737.11,384l-26.76,67.42h0Z"/><path id="Trazado_3337" data-name="Trazado 3337" class="cls-34" d="M672.5,411.92a71.75,71.75,0,0,0,37.85,39.5L737.11,384Z"/></g><g id="Grupo_351" data-name="Grupo 351"><g id="Grupo_324" data-name="Grupo 324"><path id="Trazado_3338" data-name="Trazado 3338" class="cls-43" d="M737.67,278.45A13.19,13.19,0,1,1,725,291.63,12.9,12.9,0,0,1,737.67,278.45Z"/><path id="Trazado_3339" data-name="Trazado 3339" class="cls-44" d="M745.11,292.69c-.17-.22-.47-.18-.8-.18H731c-.33,0-.63,0-.8.18-1.65,2.19.29,8.6,7.45,8.6S746.76,294.89,745.11,292.69Z"/><path id="Trazado_3340" data-name="Trazado 3340" class="cls-45" d="M738.44,295.91c-.24,0-.62.23-.48.86.07.31.5.7.5,1.21a.8.8,0,0,1-.89.7.79.79,0,0,1-.7-.7c0-.51.43-.9.5-1.21.14-.63-.24-.87-.48-.86a2,2,0,0,0-1.75,2,2.54,2.54,0,0,0,2.52,2.56h0a2.53,2.53,0,0,0,2.52-2.56A2,2,0,0,0,738.44,295.91Z"/><path id="Trazado_3341" data-name="Trazado 3341" class="cls-46" d="M734.42,299.82a8.19,8.19,0,0,0,6.49,0,7.58,7.58,0,0,0-6.49,0Z"/><path id="Trazado_3342" data-name="Trazado 3342" class="cls-47" d="M744,293.38H731.37c-.86,0-.86,1.76,0,1.76H744C744.82,295.14,744.82,293.38,744,293.38Z"/><path id="Trazado_3343" data-name="Trazado 3343" class="cls-44" d="M732.82,285.48a2.2,2.2,0,1,1-2.1,2.2A2.15,2.15,0,0,1,732.82,285.48Z"/><path id="Trazado_3344" data-name="Trazado 3344" class="cls-44" d="M742.5,285.48a2.2,2.2,0,1,1-2.1,2.2A2.15,2.15,0,0,1,742.5,285.48Z"/></g><g id="Grupo_325" data-name="Grupo 325"><path id="Trazado_3345" data-name="Trazado 3345" class="cls-43" d="M737.67,318.84A13.19,13.19,0,1,1,725,332,12.9,12.9,0,0,1,737.67,318.84Z"/><path id="Trazado_3346" data-name="Trazado 3346" class="cls-44" d="M745.94,326.47a.26.26,0,0,1,.11.35.3.3,0,0,1-.18.13,9.6,9.6,0,0,0-3.47,1,6.38,6.38,0,0,1,3.79,2.12c.16.21,0,.49-.23.42a13.82,13.82,0,0,0-6.67-.89c-.21,0-.38-.1-.34-.3A4.76,4.76,0,0,1,745.94,326.47Z"/><path id="Trazado_3347" data-name="Trazado 3347" class="cls-44" d="M729.39,326.47a.25.25,0,0,0-.11.35.3.3,0,0,0,.18.13,9.6,9.6,0,0,1,3.47,1,6.38,6.38,0,0,0-3.79,2.12c-.17.21,0,.49.23.42a13.8,13.8,0,0,1,6.67-.89c.2,0,.38-.1.34-.3A4.77,4.77,0,0,0,729.39,326.47Z"/><path id="Trazado_3348" data-name="Trazado 3348" class="cls-44" d="M745.11,333.08c-.17-.23-.47-.19-.8-.19H731c-.33,0-.64,0-.8.19-1.65,2.19.29,8.59,7.44,8.59S746.76,335.27,745.11,333.08Z"/><path id="Trazado_3349" data-name="Trazado 3349" class="cls-45" d="M738.44,336.29c-.24,0-.62.23-.48.86.07.32.5.7.5,1.21a.8.8,0,0,1-.89.7.79.79,0,0,1-.7-.7c0-.51.43-.9.5-1.21.14-.63-.24-.87-.48-.86a2,2,0,0,0-1.75,2,2.53,2.53,0,1,0,5.05,0A2,2,0,0,0,738.44,336.29Z"/><path id="Trazado_3350" data-name="Trazado 3350" class="cls-46" d="M734.42,340.21a8.31,8.31,0,0,0,6.49,0,7.48,7.48,0,0,0-6.49,0Z"/><path id="Trazado_3351" data-name="Trazado 3351" class="cls-47" d="M744,333.77H731.37c-.86,0-.86,1.75,0,1.75H744C744.82,335.52,744.82,333.77,744,333.77Z"/></g><g id="Grupo_326" data-name="Grupo 326"><path id="Trazado_3352" data-name="Trazado 3352" class="cls-43" d="M799.45,306.82A13.19,13.19,0,1,1,786.82,320,12.92,12.92,0,0,1,799.45,306.82Z"/><path id="Trazado_3353" data-name="Trazado 3353" class="cls-44" d="M795.35,317.62a2.2,2.2,0,1,1-2.1,2.2A2.16,2.16,0,0,1,795.35,317.62Z"/><path id="Trazado_3354" data-name="Trazado 3354" class="cls-48" d="M807.53,318a5.8,5.8,0,0,0-4.92-1.37c-.24,0-.46-.89-.16-.95a6.7,6.7,0,0,1,5.68,1.59C808.35,317.51,807.72,318.21,807.53,318Z"/><path id="Trazado_3355" data-name="Trazado 3355" class="cls-48" d="M796.29,314.21a5.81,5.81,0,0,0-4.92,1.37c-.19.17-.82-.53-.59-.73a6.68,6.68,0,0,1,5.68-1.59C796.75,313.31,796.53,314.25,796.29,314.21Z"/><path id="Trazado_3356" data-name="Trazado 3356" class="cls-44" d="M807.09,321a3,3,0,0,0-5.87,0c-.08.15.3.43.49.28a4.14,4.14,0,0,1,4.89,0C806.79,321.42,807.17,321.14,807.09,321Z"/><path id="Trazado_3357" data-name="Trazado 3357" class="cls-44" d="M804.55,324.48c-2.92,1.6-6.88,1.27-8,1.27-.31,0-.5.14-.42.41.84,3.06,7.16,3.06,8.89-1.2C805.17,324.49,804.82,324.33,804.55,324.48Z"/></g><g id="Grupo_329" data-name="Grupo 329"><path id="Trazado_3358" data-name="Trazado 3358" class="cls-43" d="M824.93,279.55a13.19,13.19,0,1,1-12.62,13.17A12.9,12.9,0,0,1,824.93,279.55Z"/><g id="Grupo_327" data-name="Grupo 327" class="cls-49"><path id="Trazado_3359" data-name="Trazado 3359" class="cls-46" d="M832.85,291a3.51,3.51,0,1,1-3.37,3.51A3.44,3.44,0,0,1,832.85,291Z"/></g><g id="Grupo_328" data-name="Grupo 328" class="cls-49"><ellipse id="Elipse_66" data-name="Elipse 66" class="cls-46" cx="817.02" cy="294.48" rx="3.37" ry="3.51"/></g><path id="Trazado_3360" data-name="Trazado 3360" class="cls-44" d="M830.23,296.36a8.47,8.47,0,0,1-10.59,0c-.41-.3-.78.22-.5.69a6.69,6.69,0,0,0,11.6,0C831,296.58,830.64,296.06,830.23,296.36Z"/><path id="Trazado_3361" data-name="Trazado 3361" class="cls-44" d="M823.47,290.46c-.78-2.24-2-3.36-3.14-3.36s-2.36,1.12-3.14,3.36c-.08.23.33.64.53.42a3.5,3.5,0,0,1,5.22,0C823.14,291.1,823.55,290.69,823.47,290.46Z"/><path id="Trazado_3362" data-name="Trazado 3362" class="cls-44" d="M832.67,290.46c-.78-2.24-2-3.36-3.14-3.36s-2.35,1.12-3.14,3.36c-.07.23.33.64.53.42a3.51,3.51,0,0,1,5.23,0C832.35,291.1,832.75,290.69,832.67,290.46Z"/></g><g id="Grupo_330" data-name="Grupo 330"><path id="Trazado_3363" data-name="Trazado 3363" class="cls-43" d="M784.7,347.52a12.64,12.64,0,1,1-12.63-13.17A12.92,12.92,0,0,1,784.7,347.52Z"/><path id="Trazado_3364" data-name="Trazado 3364" class="cls-50" d="M784.63,339.27a2.9,2.9,0,0,0-1.87-2.44,3.06,3.06,0,0,0-3.13,1.19,5.4,5.4,0,0,0-2.75-3.38,2.79,2.79,0,0,0-3.54.9c-.88,1.16-1.23,2.93-.29,5.26s4.8,6.59,4.92,6.72c.15-.1,4.52-2.95,5.6-4.35A5,5,0,0,0,784.63,339.27Z"/><path id="Trazado_3365" data-name="Trazado 3365" class="cls-50" d="M770.81,335.54a2.8,2.8,0,0,0-3.55-.9,5.31,5.31,0,0,0-2.74,3.38,3.07,3.07,0,0,0-3.13-1.19,2.89,2.89,0,0,0-1.88,2.44,4.9,4.9,0,0,0,1.07,3.9c1.07,1.4,5.45,4.25,5.6,4.35.11-.12,4-4.54,4.92-6.72S771.68,336.7,770.81,335.54Z"/><path id="Trazado_3366" data-name="Trazado 3366" class="cls-44" d="M779.23,350.18a.91.91,0,0,0-.77-.91,33.4,33.4,0,0,0-6.39-.59h0a33.47,33.47,0,0,0-6.39.59.91.91,0,0,0-.76.91c0,3.19,2.36,6.41,7.15,6.41h0C776.87,356.59,779.23,353.37,779.23,350.18Z"/><path id="Trazado_3367" data-name="Trazado 3367" class="cls-47" d="M777.41,350.28a32.62,32.62,0,0,0-10.68,0c-.54.1-.58.33-.54.65s.06.43.11.68.11.42.54.36c.8-.1,9.66-.1,10.47,0,.42.06.47-.07.53-.36a5,5,0,0,0,.11-.68C778,350.61,778,350.38,777.41,350.28Z"/></g><g id="Grupo_331" data-name="Grupo 331"><path id="Trazado_3368" data-name="Trazado 3368" class="cls-43" d="M737.67,243.32A13.19,13.19,0,1,1,725,256.49,12.9,12.9,0,0,1,737.67,243.32Z"/><path id="Trazado_3369" data-name="Trazado 3369" class="cls-44" d="M732.82,251.92a2.2,2.2,0,1,1-2.1,2.2A2.15,2.15,0,0,1,732.82,251.92Z"/><path id="Trazado_3370" data-name="Trazado 3370" class="cls-44" d="M742.5,251.92a2.15,2.15,0,0,1,2.1,2.2h0a2.1,2.1,0,1,1-2.1-2.2Z"/><path id="Trazado_3371" data-name="Trazado 3371" class="cls-44" d="M743,260.13a8.49,8.49,0,0,1-10.59,0c-.41-.3-.78.22-.5.69a6.69,6.69,0,0,0,11.6,0C743.74,260.35,743.37,259.83,743,260.13Z"/></g><g id="Grupo_332" data-name="Grupo 332"><path id="Trazado_3372" data-name="Trazado 3372" class="cls-43" d="M689.77,347a11.8,11.8,0,1,0,11.78-12.3A12,12,0,0,0,689.77,347Z"/><path id="Trazado_3373" data-name="Trazado 3373" class="cls-48" d="M694.05,339a5.39,5.39,0,0,1,4.74-.43c.22.09.56-.74.3-.84a6.18,6.18,0,0,0-5.47.5C693.38,338.41,693.86,339.16,694.05,339Z"/><path id="Trazado_3374" data-name="Trazado 3374" class="cls-48" d="M704.16,340.35a5.37,5.37,0,0,1,4.73-.43c.22.08.56-.74.3-.85a6.22,6.22,0,0,0-5.46.5C703.48,339.72,704,340.47,704.16,340.35Z"/><path id="Trazado_3375" data-name="Trazado 3375" class="cls-44" d="M698.25,349a7.58,7.58,0,0,1,6.33,1.13c.45.33-.4,1.52-.84,1.19a6.26,6.26,0,0,0-5.11-.92C698.09,350.57,697.68,349.19,698.25,349Z"/><path id="Trazado_3376" data-name="Trazado 3376" class="cls-47" d="M706.1,346.57a3.22,3.22,0,0,1-3.16-3.3,3.3,3.3,0,0,1,.64-2,8.43,8.43,0,0,1,2.34-.33,8.14,8.14,0,0,1,2.81.48,3.4,3.4,0,0,1,.54,1.83A3.23,3.23,0,0,1,706.1,346.57Z"/><path id="Trazado_3377" data-name="Trazado 3377" class="cls-44" d="M706.54,341a1.75,1.75,0,0,1,.28.94,1.58,1.58,0,1,1-3.16,0,1.69,1.69,0,0,1,.15-.7,8.83,8.83,0,0,1,2.11-.26Z"/><path id="Trazado_3378" data-name="Trazado 3378" class="cls-47" d="M697,346.57a3.22,3.22,0,0,1-3.16-3.3,3.37,3.37,0,0,1,.64-2,8.43,8.43,0,0,1,2.34-.33,8.14,8.14,0,0,1,2.81.48,3.4,3.4,0,0,1,.54,1.83A3.23,3.23,0,0,1,697,346.57Z"/><path id="Trazado_3379" data-name="Trazado 3379" class="cls-44" d="M697.44,341a1.75,1.75,0,0,1,.28.94,1.58,1.58,0,1,1-3.16,0,1.69,1.69,0,0,1,.15-.7,8.83,8.83,0,0,1,2.11-.26Z"/><path id="Trazado_3380" data-name="Trazado 3380" class="cls-47" d="M701.82,353.11c-1.77.45-6.25,1-7.08.14-.37-.39-.3-1-.18-2a2.2,2.2,0,0,0-1.48-2.17c-.81-.1-1.28.52-1,1.41.63,1.95-.57,2.58-.63,4a5.66,5.66,0,0,0,.94,4,5.23,5.23,0,0,0,4.61,2c1,0,1.39-.08,1.62-.54s.14-.64.24-.83c.23-.4.35-.35.45-.81s-.22-.78-.14-1c.17-.51.6-.44.17-1.65a8.7,8.7,0,0,0,3.22-1C704.1,353.9,702.76,352.88,701.82,353.11Z"/><path id="Trazado_3381" data-name="Trazado 3381" class="cls-51" d="M692.23,350.1a4,4,0,0,1-.14,3.14c-.73,1.61-1,6.08,3.48,6.93,2.75.51,3.16-.19,3-.94-.08-.48.31-.67.4-.83.29-.55-.14-.78-.15-1,0-.41.38-.4.45-.79.11-.72-.71-1,0-1a5.71,5.71,0,0,0,3.13-.93c.75-.54.23-1.62-.79-1.39-2.36.52-5.87,1.16-7.08,0-.55-.52-.11-1.12-.16-2.31C694.36,349.37,692,348.77,692.23,350.1Zm3.2,10.79h0a5,5,0,0,1-3.35-2.1,5.74,5.74,0,0,1-1-4,2.3,2.3,0,0,1,0-.28,4.09,4.09,0,0,1,.43-1.57,2.86,2.86,0,0,0,.21-2.34,1.53,1.53,0,0,1,.19-1.49,1.3,1.3,0,0,1,1.21-.41h.06a2.57,2.57,0,0,1,1.77,2.6c-.11,1-.16,1.42.08,1.66a1.19,1.19,0,0,0,.63.24,19.31,19.31,0,0,0,6.06-.49,1.88,1.88,0,0,1,.71,0,1.45,1.45,0,0,1,1.21,1c.06.3,0,.87-.86,1.4a8.4,8.4,0,0,1-2.92.94c.32.87-.47,1.2-.31,1.53a1,1,0,0,1-.31,1.34c-.34.33.07.7-.25,1.3s-1,.71-2,.75a7.88,7.88,0,0,1-1.61-.11Z"/></g><g id="Grupo_333" data-name="Grupo 333"><path id="Trazado_3382" data-name="Trazado 3382" class="cls-43" d="M676.29,437a13.19,13.19,0,1,1-12.63,13.18A12.92,12.92,0,0,1,676.29,437Z"/><path id="Trazado_3383" data-name="Trazado 3383" class="cls-44" d="M671.45,446a2.2,2.2,0,1,1-2.1,2.2A2.16,2.16,0,0,1,671.45,446Z"/><path id="Trazado_3384" data-name="Trazado 3384" class="cls-44" d="M681.13,446a2.2,2.2,0,1,1-2.1,2.2A2.16,2.16,0,0,1,681.13,446Z"/><path id="Trazado_3385" data-name="Trazado 3385" class="cls-44" d="M679.18,457.19h-5.79c-.63,0-.63-1.76,0-1.76h5.79C679.81,455.43,679.81,457.19,679.18,457.19Z"/></g><g id="Grupo_334" data-name="Grupo 334"><path id="Trazado_3386" data-name="Trazado 3386" class="cls-43" d="M823.71,463.56a13.19,13.19,0,1,1-12.63,13.18A12.92,12.92,0,0,1,823.71,463.56Z"/><path id="Trazado_3387" data-name="Trazado 3387" class="cls-44" d="M818.86,473a2.2,2.2,0,1,1-2.1,2.2A2.15,2.15,0,0,1,818.86,473Z"/><path id="Trazado_3388" data-name="Trazado 3388" class="cls-44" d="M828.54,473a2.2,2.2,0,1,1-2.1,2.2A2.17,2.17,0,0,1,828.54,473Z"/></g><g id="Grupo_335" data-name="Grupo 335"><path id="Trazado_3389" data-name="Trazado 3389" class="cls-43" d="M648.33,462.41a13.19,13.19,0,1,1-12.62,13.17A12.9,12.9,0,0,1,648.33,462.41Z"/><path id="Trazado_3390" data-name="Trazado 3390" class="cls-47" d="M654,479.09a4.74,4.74,0,0,0,4.63-4.83,5,5,0,0,0-.43-2,10.25,10.25,0,0,0-8.4,0,5,5,0,0,0-.43,2A4.74,4.74,0,0,0,654,479.09Z"/><path id="Trazado_3391" data-name="Trazado 3391" class="cls-44" d="M654.23,471.36a2,2,0,0,0-.33,1.1,1.9,1.9,0,1,0,3.8,0h0a1.76,1.76,0,0,0-.06-.46A10,10,0,0,0,654.23,471.36Z"/><path id="Trazado_3392" data-name="Trazado 3392" class="cls-47" d="M642.65,479.09a4.73,4.73,0,0,0,4.63-4.83,5,5,0,0,0-.42-2,10.27,10.27,0,0,0-8.41,0,5,5,0,0,0-.42,2A4.73,4.73,0,0,0,642.65,479.09Z"/><path id="Trazado_3393" data-name="Trazado 3393" class="cls-44" d="M642.86,471.36a2,2,0,0,0-.32,1.1,1.9,1.9,0,1,0,3.79,0,1.76,1.76,0,0,0-.06-.46A9.91,9.91,0,0,0,642.86,471.36Z"/><path id="Trazado_3394" data-name="Trazado 3394" class="cls-44" d="M652,482.31a8.25,8.25,0,0,0-7.24,0c-.56.28.14,1.82.7,1.54a6.79,6.79,0,0,1,5.84,0C651.81,484.12,652.54,482.61,652,482.31Z"/></g><g id="Grupo_336" data-name="Grupo 336"><path id="Trazado_3395" data-name="Trazado 3395" class="cls-43" d="M847.61,384a12.64,12.64,0,1,0,12.62-13.18A12.92,12.92,0,0,0,847.61,384Z"/><path id="Trazado_3396" data-name="Trazado 3396" class="cls-52" d="M866.84,386.46c0,3.77,4.9,3.77,4.9,0,0-2.75-2.46-5.43-2.46-5.43S866.84,383.71,866.84,386.46Z"/><path id="Trazado_3397" data-name="Trazado 3397" class="cls-44" d="M863,383.12a2.2,2.2,0,1,1-2.1,2.2A2.16,2.16,0,0,1,863,383.12Z"/><path id="Trazado_3398" data-name="Trazado 3398" class="cls-44" d="M853.29,383.12a2.2,2.2,0,1,1-2.1,2.2A2.15,2.15,0,0,1,853.29,383.12Z"/><path id="Trazado_3399" data-name="Trazado 3399" class="cls-48" d="M855.43,378.69a5.82,5.82,0,0,1-4.93,1.37c-.24-.05-.45.89-.16.95a6.69,6.69,0,0,0,5.68-1.59C856.25,379.22,855.61,378.52,855.43,378.69Z"/><path id="Trazado_3400" data-name="Trazado 3400" class="cls-48" d="M865.75,380a5.81,5.81,0,0,1-4.92-1.38c-.18-.17-.82.53-.59.74a6.71,6.71,0,0,0,5.68,1.58C866.21,380.89,866,380,865.75,380Z"/><path id="Trazado_3401" data-name="Trazado 3401" class="cls-44" d="M862.79,390.73a8.3,8.3,0,0,0-7.12,1.33c-.51.38.44,1.76.94,1.38a6.85,6.85,0,0,1,5.75-1.07C863,392.54,863.43,390.92,862.79,390.73Z"/></g><g id="Grupo_337" data-name="Grupo 337"><path id="Trazado_3402" data-name="Trazado 3402" class="cls-43" d="M772.07,407.31a13.19,13.19,0,1,1-12.63,13.17A12.9,12.9,0,0,1,772.07,407.31Z"/><path id="Trazado_3403" data-name="Trazado 3403" class="cls-44" d="M772.07,423.17a3.08,3.08,0,1,1-2.94,3.08A3,3,0,0,1,772.07,423.17Z"/><path id="Trazado_3404" data-name="Trazado 3404" class="cls-44" d="M767.13,415.45a2,2,0,1,1-1.9,2A1.93,1.93,0,0,1,767.13,415.45Z"/><path id="Trazado_3405" data-name="Trazado 3405" class="cls-44" d="M776.6,415.45a2,2,0,1,1-1.9,2A1.93,1.93,0,0,1,776.6,415.45Z"/></g><g id="Grupo_339" data-name="Grupo 339"><path id="Trazado_3406" data-name="Trazado 3406" class="cls-43" d="M648.24,281.74a13.19,13.19,0,1,1-12.63,13.18A12.92,12.92,0,0,1,648.24,281.74Z"/><ellipse id="Elipse_67" data-name="Elipse 67" class="cls-47" cx="641.93" cy="294.04" rx="4.63" ry="4.83"/><path id="Trazado_3408" data-name="Trazado 3408" class="cls-47" d="M654.56,289.21a4.83,4.83,0,1,1-4.63,4.83A4.73,4.73,0,0,1,654.56,289.21Z"/><path id="Trazado_3409" data-name="Trazado 3409" class="cls-53" d="M649.93,292.72a3.48,3.48,0,0,0-3.37,0c-.48-.45-.36-.9-.84-1.36a4.25,4.25,0,0,1,5,0C650.28,291.82,650.41,292.27,649.93,292.72Z"/><path id="Trazado_3410" data-name="Trazado 3410" class="cls-53" d="M654.56,298.43a4.29,4.29,0,0,1-4.21-4.39h0a4.3,4.3,0,0,1,4.2-4.39h0a4.3,4.3,0,0,1,4.2,4.39h0a4.29,4.29,0,0,1-4.2,4.39Zm0-10.1A5.72,5.72,0,1,0,660,294a5.6,5.6,0,0,0-5.47-5.71Z"/><path id="Trazado_3411" data-name="Trazado 3411" class="cls-53" d="M641.93,298.43a4.29,4.29,0,0,1-4.21-4.39h0a4.3,4.3,0,0,1,4.21-4.39h0a4.3,4.3,0,0,1,4.21,4.39h0a4.29,4.29,0,0,1-4.21,4.39Zm0-10.1A5.72,5.72,0,1,0,647.4,294a5.59,5.59,0,0,0-5.47-5.71Z"/><path id="Trazado_3412" data-name="Trazado 3412" class="cls-44" d="M643.19,292.06a2.28,2.28,0,0,1,0,4.4,2.28,2.28,0,0,1,0-4.4Z"/><path id="Trazado_3413" data-name="Trazado 3413" class="cls-44" d="M653.29,292.06a2.28,2.28,0,1,1-1.68,2.2A2,2,0,0,1,653.29,292.06Z"/><path id="Trazado_3414" data-name="Trazado 3414" class="cls-44" d="M646,303.41a8.32,8.32,0,0,0,7.13-1.33c.5-.38-.45-1.77-.95-1.38a6.85,6.85,0,0,1-5.75,1.07C645.85,301.6,645.38,303.22,646,303.41Z"/><path id="Trazado_3415" data-name="Trazado 3415" class="cls-48" d="M657.17,287.76a5.85,5.85,0,0,0-4.92-1.38c-.25.05-.46-.88-.17-.94a6.68,6.68,0,0,1,5.68,1.59C658,287.23,657.35,287.93,657.17,287.76Z"/><path id="Trazado_3416" data-name="Trazado 3416" class="cls-48" d="M644.24,286.32a5.8,5.8,0,0,0-4.92,1.37c-.19.17-.83-.53-.6-.73a6.73,6.73,0,0,1,5.68-1.59C644.7,285.43,644.48,286.37,644.24,286.32Z"/></g><g id="Grupo_340" data-name="Grupo 340"><path id="Trazado_3417" data-name="Trazado 3417" class="cls-43" d="M703.92,407a13.19,13.19,0,1,1-12.62,13.17A12.9,12.9,0,0,1,703.92,407Z"/><path id="Trazado_3418" data-name="Trazado 3418" class="cls-48" d="M700,414.11a5.81,5.81,0,0,1-4.92,1.37c-.25-.05-.46.89-.16.95a6.67,6.67,0,0,0,5.67-1.59C700.78,414.64,700.14,413.94,700,414.11Z"/><path id="Trazado_3419" data-name="Trazado 3419" class="cls-48" d="M712.81,415.42a5.85,5.85,0,0,1-4.92-1.38c-.19-.17-.82.53-.6.74a6.72,6.72,0,0,0,5.68,1.58C713.27,416.31,713.05,415.37,712.81,415.42Z"/><path id="Trazado_3420" data-name="Trazado 3420" class="cls-44" d="M710.05,424.74a.7.7,0,0,0-.93-.14l-1.79,1.25a.86.86,0,0,1-1-.06l-1.93-1.74a.74.74,0,0,0-.95,0l-1.92,1.73a.84.84,0,0,1-1,.06l-1.8-1.25a.71.71,0,0,0-.93.14L695.92,427c-.23.27-.16.36.14.18l1.59-.91a.86.86,0,0,1,1,.14l2,2a.72.72,0,0,0,.95.06l1.88-1.5a.84.84,0,0,1,1,0l1.87,1.49a.73.73,0,0,0,1-.06l1.93-2a.88.88,0,0,1,1-.14l1.59.91c.3.18.37.09.14-.18Z"/><path id="Trazado_3421" data-name="Trazado 3421" class="cls-44" d="M712.2,418.46a.26.26,0,0,1,.11.35.3.3,0,0,1-.18.13,9.6,9.6,0,0,0-3.47,1,6.38,6.38,0,0,1,3.79,2.12c.16.21,0,.49-.23.42a13.82,13.82,0,0,0-6.67-.89c-.21,0-.38-.1-.34-.3a4.78,4.78,0,0,1,5.86-3.34A4.52,4.52,0,0,1,712.2,418.46Z"/><path id="Trazado_3422" data-name="Trazado 3422" class="cls-44" d="M695.65,418.46a.25.25,0,0,0-.11.35.31.31,0,0,0,.17.13,9.6,9.6,0,0,1,3.48,1,6.35,6.35,0,0,0-3.79,2.12c-.17.21,0,.49.23.42a13.8,13.8,0,0,1,6.67-.89c.2,0,.38-.1.34-.3a4.78,4.78,0,0,0-5.86-3.34A4.52,4.52,0,0,0,695.65,418.46Z"/></g><g id="Grupo_341" data-name="Grupo 341"><path id="Trazado_3423" data-name="Trazado 3423" class="cls-43" d="M662.5,384a12.64,12.64,0,1,1-12.63-13.18A12.93,12.93,0,0,1,662.5,384Z"/><path id="Trazado_3424" data-name="Trazado 3424" class="cls-48" d="M656.78,375.62a6,6,0,0,0-4.42,2.66c-.14.21-.92-.29-.75-.55a6.81,6.81,0,0,1,5.09-3.07C657,374.64,657,375.6,656.78,375.62Z"/><path id="Trazado_3425" data-name="Trazado 3425" class="cls-48" d="M647.38,378.28a6,6,0,0,0-4.42-2.66c-.24,0-.22-1,.08-1a6.81,6.81,0,0,1,5.09,3.07C648.3,378,647.51,378.49,647.38,378.28Z"/><path id="Trazado_3426" data-name="Trazado 3426" class="cls-44" d="M645.33,387.47a7.33,7.33,0,0,1,9.08,0c.35.26.67-.18.43-.58a5.76,5.76,0,0,0-9.94,0C644.66,387.29,645,387.73,645.33,387.47Z"/><path id="Trazado_3427" data-name="Trazado 3427" class="cls-44" d="M651.52,379.18c1.77,3.5,5.34,3.49,7.11,0,.09-.17-.14-.25-.42-.45a5.24,5.24,0,0,1-6.27,0C651.66,378.93,651.43,379,651.52,379.18Z"/><path id="Trazado_3428" data-name="Trazado 3428" class="cls-44" d="M641.1,379.18c1.78,3.5,5.35,3.49,7.12,0,.09-.17-.14-.25-.42-.45a5.24,5.24,0,0,1-6.27,0C641.25,378.93,641,379,641.1,379.18Z"/><path id="Trazado_3429" data-name="Trazado 3429" class="cls-54" d="M662.38,390.74a2.56,2.56,0,0,0-3.09-1.32,2.37,2.37,0,0,0-1.44,1.05c-3.3-.65-6.32-6.74-6.32-6.74s.08,5,2.47,7.88a3,3,0,0,0-1.62,0,2,2,0,0,0-1.64,2.33,2.68,2.68,0,0,0,.07.27,2.56,2.56,0,0,0,3.09,1.32l.26-.08a3.64,3.64,0,0,0,4.2,1.61,2.8,2.8,0,0,0,2.28-3.24,2.34,2.34,0,0,0-.09-.38h0l.26-.06a2,2,0,0,0,1.64-2.33A2.61,2.61,0,0,0,662.38,390.74Z"/><path id="Trazado_3430" data-name="Trazado 3430" class="cls-54" d="M637.36,390.74a2.56,2.56,0,0,1,3.09-1.32,2.37,2.37,0,0,1,1.44,1.05c3.3-.65,6.32-6.74,6.32-6.74s-.08,5-2.47,7.88a3,3,0,0,1,1.62,0,2,2,0,0,1,1.64,2.33,2.68,2.68,0,0,1-.07.27,2.56,2.56,0,0,1-3.09,1.32l-.26-.08a3.64,3.64,0,0,1-4.2,1.61,2.78,2.78,0,0,1-2.28-3.23,2.74,2.74,0,0,1,.09-.39h0l-.27-.06A2,2,0,0,1,637.3,391,2.61,2.61,0,0,1,637.36,390.74Z"/><path id="Trazado_3431" data-name="Trazado 3431" class="cls-47" d="M661.38,389.64a2.27,2.27,0,0,0-2.84-1.42,2.23,2.23,0,0,0-1.33,1.13c-3-.7-5.81-7.21-5.81-7.21s.07,5.32,2.27,8.43a2.24,2.24,0,0,0-1.49,0,2.2,2.2,0,0,0-1.46,2.74v0a2.26,2.26,0,0,0,2.84,1.41l.25-.1a3.15,3.15,0,0,0,3.86,1.73,3,3,0,0,0,2-3.82v-.05h0l.24-.07a2.21,2.21,0,0,0,1.46-2.75Z"/><path id="Trazado_3432" data-name="Trazado 3432" class="cls-47" d="M638.36,389.64a2.27,2.27,0,0,1,2.84-1.42,2.23,2.23,0,0,1,1.33,1.13c3-.7,5.81-7.21,5.81-7.21s-.07,5.32-2.27,8.43a2.24,2.24,0,0,1,1.49,0,2.2,2.2,0,0,1,1.46,2.74v0a2.26,2.26,0,0,1-2.85,1.41,1.22,1.22,0,0,1-.24-.1,3.17,3.17,0,0,1-3.87,1.73,3.06,3.06,0,0,1-2-3.82l0-.05h0l-.24-.07a2.19,2.19,0,0,1-1.46-2.75Z"/></g><g id="Grupo_342" data-name="Grupo 342"><path id="Trazado_3433" data-name="Trazado 3433" class="cls-43" d="M737.67,462.41A13.19,13.19,0,1,1,725,475.58,12.9,12.9,0,0,1,737.67,462.41Z"/><path id="Trazado_3434" data-name="Trazado 3434" class="cls-44" d="M741.28,481.92a8.25,8.25,0,0,0-7.24,0c-.56.28.14,1.82.7,1.54a6.79,6.79,0,0,1,5.84,0C741.14,483.72,741.87,482.22,741.28,481.92Z"/><ellipse id="Elipse_68" data-name="Elipse 68" class="cls-47" cx="743.14" cy="475.14" rx="3.79" ry="3.95"/><path id="Trazado_3435" data-name="Trazado 3435" class="cls-44" d="M743.14,472.51a2.64,2.64,0,1,1-2.53,2.63A2.58,2.58,0,0,1,743.14,472.51Z"/><path id="Trazado_3436" data-name="Trazado 3436" class="cls-47" d="M743.79,475.67a1.46,1.46,0,1,1-1.18,1.43A1.32,1.32,0,0,1,743.79,475.67Z"/><path id="Trazado_3437" data-name="Trazado 3437" class="cls-47" d="M742.2,474.31a.76.76,0,0,1,.69.83.7.7,0,1,1-1.38,0A.76.76,0,0,1,742.2,474.31Z"/><ellipse id="Elipse_69" data-name="Elipse 69" class="cls-47" cx="732.19" cy="475.14" rx="3.79" ry="3.95"/><path id="Trazado_3438" data-name="Trazado 3438" class="cls-44" d="M732.19,472.51a2.64,2.64,0,1,1-2.52,2.63A2.58,2.58,0,0,1,732.19,472.51Z"/><path id="Trazado_3439" data-name="Trazado 3439" class="cls-47" d="M732.85,475.67a1.45,1.45,0,1,1-1.19,1.43A1.33,1.33,0,0,1,732.85,475.67Z"/><path id="Trazado_3440" data-name="Trazado 3440" class="cls-47" d="M731.26,474.31a.76.76,0,0,1,.69.83.7.7,0,1,1-1.38,0A.76.76,0,0,1,731.26,474.31Z"/><path id="Trazado_3441" data-name="Trazado 3441" class="cls-52" d="M744,477.33c-2.14,3-3.37,5.71-3.37,8a3.41,3.41,0,0,0,3.37,3.46h0a3.42,3.42,0,0,0,3.37-3.46C747.34,483,746.08,480.26,744,477.33Z"/><path id="Trazado_3442" data-name="Trazado 3442" class="cls-48" d="M746.59,470.61a5.81,5.81,0,0,0-4.92-1.37c-.24.05-.46-.89-.16-.95a6.7,6.7,0,0,1,5.68,1.59C747.41,470.08,746.78,470.78,746.59,470.61Z"/><path id="Trazado_3443" data-name="Trazado 3443" class="cls-48" d="M733.66,469.17a5.81,5.81,0,0,0-4.92,1.38c-.19.17-.82-.53-.59-.74a6.73,6.73,0,0,1,5.67-1.59C734.12,468.29,733.9,469.22,733.66,469.17Z"/></g><g id="Grupo_343" data-name="Grupo 343"><path id="Trazado_3444" data-name="Trazado 3444" class="cls-52" d="M731.55,447.1c2.9,0,5.25.3,5.25.66s-2.35.66-5.25.66-5.25-.3-5.25-.66S728.65,447.1,731.55,447.1Z"/><path id="Trazado_3445" data-name="Trazado 3445" class="cls-52" d="M742.69,447.1c4.2,0,7.6.35,7.6.79s-3.4.79-7.6.79-7.6-.35-7.6-.79S738.5,447.1,742.69,447.1Z"/><path id="Trazado_3446" data-name="Trazado 3446" class="cls-43" d="M737.67,422.33A13.19,13.19,0,1,1,725,435.51,12.91,12.91,0,0,1,737.67,422.33Z"/><path id="Trazado_3447" data-name="Trazado 3447" class="cls-44" d="M743,441.66c-.58-1.58-2-2.64-5.36-2.64s-4.77,1.06-5.36,2.64a4.18,4.18,0,0,0,.14,2.19c.56,1.71.48,2.2,5.23,2.2s4.66-.49,5.22-2.2A4.08,4.08,0,0,0,743,441.66Z"/><path id="Trazado_3448" data-name="Trazado 3448" class="cls-47" d="M741.44,441.21a.43.43,0,0,0-.07-.35s-.85-1-3.71-1-3.7,1-3.7,1a.43.43,0,0,0-.07.35l.06.24a.28.28,0,0,0,.22.21h7a.28.28,0,0,0,.22-.21Z"/><path id="Trazado_3449" data-name="Trazado 3449" class="cls-52" d="M742.92,448h2.87c3.46-4.35-.65-8.79.38-13.09-1,0-1.92,1.12-2.88,1.12C742,440.21,746.37,443.66,742.92,448Z"/><path id="Trazado_3450" data-name="Trazado 3450" class="cls-52" d="M732.41,448h-2.87c-3.46-4.35.65-8.79-.38-13.09,1,0,1.92,1.12,2.87,1.12C733.36,440.21,729,443.66,732.41,448Z"/><path id="Trazado_3451" data-name="Trazado 3451" class="cls-48" d="M741.31,429.49a5.86,5.86,0,0,0,4.79,1.82c.25,0,.38.93.08,1a6.74,6.74,0,0,1-5.52-2.1C740.45,429.94,741.14,429.31,741.31,429.49Z"/><path id="Trazado_3452" data-name="Trazado 3452" class="cls-48" d="M729.23,431.31a5.87,5.87,0,0,0,4.79-1.82c.17-.19.86.45.65.68a6.78,6.78,0,0,1-5.53,2.1C728.84,432.24,729,431.28,729.23,431.31Z"/><path id="Trazado_3453" data-name="Trazado 3453" class="cls-44" d="M739.31,434.75c1.77,3.49,5.35,3.49,7.12,0,.09-.18-.14-.25-.43-.45a5.22,5.22,0,0,1-6.26,0C739.46,434.5,739.23,434.57,739.31,434.75Z"/><path id="Trazado_3454" data-name="Trazado 3454" class="cls-44" d="M728.9,434.75c1.77,3.49,5.34,3.49,7.12,0,.09-.18-.14-.25-.43-.45a5.22,5.22,0,0,1-6.26,0C729,434.5,728.81,434.57,728.9,434.75Z"/></g><g id="Grupo_344" data-name="Grupo 344"><path id="Trazado_3455" data-name="Trazado 3455" class="cls-43" d="M825.06,370.82A13.19,13.19,0,1,1,812.44,384,12.92,12.92,0,0,1,825.06,370.82Z"/><path id="Trazado_3456" data-name="Trazado 3456" class="cls-47" d="M819.8,376.44a4.3,4.3,0,0,1,4.21,4.39h0a4.29,4.29,0,0,1-4.21,4.39h0a4.3,4.3,0,0,1-4.21-4.39h0a4.3,4.3,0,0,1,4.21-4.39Z"/><path id="Trazado_3457" data-name="Trazado 3457" class="cls-44" d="M819.8,379.29a1.54,1.54,0,1,1-1.47,1.54A1.51,1.51,0,0,1,819.8,379.29Z"/><path id="Trazado_3458" data-name="Trazado 3458" class="cls-47" d="M830.32,376.44a4.29,4.29,0,0,1,4.21,4.39h0a4.29,4.29,0,0,1-4.21,4.39h0a4.3,4.3,0,0,1-4.21-4.39h0a4.3,4.3,0,0,1,4.21-4.39Z"/><path id="Trazado_3459" data-name="Trazado 3459" class="cls-44" d="M830.32,379.29a1.54,1.54,0,1,1-1.47,1.54A1.51,1.51,0,0,1,830.32,379.29Z"/><path id="Trazado_3460" data-name="Trazado 3460" class="cls-44" d="M831.66,389.27c-.72-1.58-2.48-2.64-6.6-2.64s-5.88,1.06-6.6,2.64a3.46,3.46,0,0,0,.16,2.2c.69,1.7.6,2.2,6.44,2.2s5.74-.49,6.43-2.2A3.4,3.4,0,0,0,831.66,389.27Z"/><path id="Trazado_3461" data-name="Trazado 3461" class="cls-47" d="M829.84,388.81a.36.36,0,0,0-.09-.35s-1.07-.95-4.69-.95-4.69.95-4.69.95a.36.36,0,0,0-.09.35l.08.25a.31.31,0,0,0,.28.21h8.84a.31.31,0,0,0,.28-.21Z"/><path id="Trazado_3462" data-name="Trazado 3462" class="cls-48" d="M832.72,375.85a5.8,5.8,0,0,0-4.92-1.37c-.24,0-.46-.89-.16-1a6.72,6.72,0,0,1,5.68,1.59C833.55,375.33,832.91,376,832.72,375.85Z"/><path id="Trazado_3463" data-name="Trazado 3463" class="cls-48" d="M822.32,374.41a5.85,5.85,0,0,0-4.92,1.38c-.19.17-.82-.53-.6-.74a6.73,6.73,0,0,1,5.68-1.58C822.78,373.53,822.56,374.46,822.32,374.41Z"/></g><g id="Grupo_345" data-name="Grupo 345"><path id="Trazado_3464" data-name="Trazado 3464" class="cls-43" d="M737.67,498.63c7.33,0,13.27,6.2,13.27,13.85s-5.94,13.86-13.27,13.86-13.28-6.2-13.28-13.86S730.33,498.63,737.67,498.63Z"/><path id="Trazado_3465" data-name="Trazado 3465" class="cls-48" d="M741,506.13a6.13,6.13,0,0,0,5.17,1.45c.26-.06.49.93.18,1a7,7,0,0,1-6-1.67C740.08,506.68,740.75,506,741,506.13Z"/><path id="Trazado_3466" data-name="Trazado 3466" class="cls-48" d="M729.21,507.51a6.13,6.13,0,0,0,5.17-1.45c.2-.18.87.56.62.77a7,7,0,0,1-6,1.67C728.72,508.44,729,507.45,729.21,507.51Z"/><path id="Trazado_3467" data-name="Trazado 3467" class="cls-44" d="M739.36,509.15c.89,4.05,4.52,5.07,7.23,2,.14-.15-.08-.3-.31-.58a5.53,5.53,0,0,1-6.37-1.78C739.58,508.93,739.32,509,739.36,509.15Z"/><path id="Trazado_3468" data-name="Trazado 3468" class="cls-44" d="M728.74,511.17c2.71,3.05,6.33,2,7.23-2,0-.2-.22-.22-.55-.34a5.53,5.53,0,0,1-6.37,1.78C728.81,510.88,728.6,511,728.74,511.17Z"/><path id="Trazado_3469" data-name="Trazado 3469" class="cls-44" d="M744.6,518c-.76-1.66-2.6-2.77-6.93-2.77s-6.18,1.11-6.94,2.77a3.56,3.56,0,0,0,.17,2.3c.73,1.8.62,2.31,6.77,2.31s6-.51,6.76-2.31A3.56,3.56,0,0,0,744.6,518Z"/><path id="Trazado_3470" data-name="Trazado 3470" class="cls-47" d="M742.69,517.55a.37.37,0,0,0-.1-.37s-1.13-1-4.93-1-4.94,1-4.94,1a.42.42,0,0,0-.1.37l.09.26a.35.35,0,0,0,.3.22h9.3a.35.35,0,0,0,.29-.22Z"/></g><g id="Grupo_346" data-name="Grupo 346"><ellipse id="Elipse_70" data-name="Elipse 70" class="cls-43" cx="675.17" cy="320" rx="12.63" ry="13.18"/><path id="Trazado_3471" data-name="Trazado 3471" class="cls-44" d="M683.8,323.51c-.94-1.58-3.24-2.64-8.63-2.64s-7.69,1.06-8.64,2.64c-.5.84.22,2.2.22,2.2.9,1.7.77,2.2,8.42,2.2s7.51-.5,8.42-2.2C683.59,325.71,684.31,324.35,683.8,323.51Z"/><path id="Trazado_3472" data-name="Trazado 3472" class="cls-44" d="M670.33,314.51a2.2,2.2,0,1,1-2.1,2.2A2.15,2.15,0,0,1,670.33,314.51Z"/><path id="Trazado_3473" data-name="Trazado 3473" class="cls-44" d="M680,314.51a2.2,2.2,0,1,1-2.1,2.2A2.15,2.15,0,0,1,680,314.51Z"/><path id="Trazado_3474" data-name="Trazado 3474" class="cls-47" d="M681.89,323.5a.68.68,0,0,0-.26-.65s-1.64-1.1-6.46-1.1-6.47,1.1-6.47,1.1a.68.68,0,0,0-.26.65l.08.46a.52.52,0,0,0,.47.43h12.35a.52.52,0,0,0,.47-.43Z"/><path id="Trazado_3475" data-name="Trazado 3475" class="cls-47" d="M675.17,327c2.64,0,6.41,0,6.31-.9a5.59,5.59,0,0,0-.12-.56c-.06-.23-.12-.29-.57-.29H669.55c-.46,0-.51.06-.57.29a2.8,2.8,0,0,0-.12.56C668.75,327,672.52,327,675.17,327Z"/></g><g id="Grupo_347" data-name="Grupo 347"><path id="Trazado_3476" data-name="Trazado 3476" class="cls-43" d="M787.47,370.82c-7,0-12.62,5.9-12.62,13.18,0,2.14,6.63,10,9.68,12.1a4.57,4.57,0,0,0,5.9,0c3.05-2.06,9.66-10,9.66-12.1a12.9,12.9,0,0,0-12.62-13.17Z"/><path id="Trazado_3477" data-name="Trazado 3477" class="cls-47" d="M786.86,380.79a4.21,4.21,0,1,1-8.42,0h0a4.29,4.29,0,0,1,4.18-4.39h0A4.32,4.32,0,0,1,786.86,380.79Z"/><path id="Trazado_3478" data-name="Trazado 3478" class="cls-44" d="M784.11,380.79a1.5,1.5,0,0,1-1.46,1.54h0a1.54,1.54,0,0,1,0-3.08,1.51,1.51,0,0,1,1.47,1.53Z"/><path id="Trazado_3479" data-name="Trazado 3479" class="cls-47" d="M796.52,380.79a4.21,4.21,0,1,1-4.2-4.39A4.31,4.31,0,0,1,796.52,380.79Z"/><path id="Trazado_3480" data-name="Trazado 3480" class="cls-44" d="M793.79,380.79a1.48,1.48,0,1,1-2.95,0h0a1.52,1.52,0,0,1,1.49-1.54h0A1.5,1.5,0,0,1,793.79,380.79Z"/><path id="Trazado_3481" data-name="Trazado 3481" class="cls-44" d="M791,390.18c0,2.91-1.58,5.28-3.52,5.28s-3.5-2.37-3.5-5.28,1.57-5.28,3.5-5.28S791,387.26,791,390.18Z"/><path id="Trazado_3482" data-name="Trazado 3482" class="cls-45" d="M788.31,388.11c-.27,0-.67.26-.52,1,.07.37.54.81.54,1.4a.85.85,0,1,1-1.7.12v-.12c0-.58.47-1,.54-1.4.15-.72-.27-1-.52-1a2.28,2.28,0,0,0-1.87,2.32,2.71,2.71,0,1,0,5.4,0A2.27,2.27,0,0,0,788.31,388.11Z"/><path id="Trazado_3483" data-name="Trazado 3483" class="cls-46" d="M787.47,392.72c-1.63,0-2.07.5-2.07.5a2.17,2.17,0,0,0,4.17,0S789.09,392.72,787.47,392.72Z"/><path id="Trazado_3484" data-name="Trazado 3484" class="cls-48" d="M783.55,373.33a5.94,5.94,0,0,1-4.41,2.66c-.25,0-.23,1,.1,1a6.83,6.83,0,0,0,5.07-3.07C784.48,373.62,783.7,373.11,783.55,373.33Z"/><path id="Trazado_3485" data-name="Trazado 3485" class="cls-48" d="M795.8,375.92a6,6,0,0,1-4.41-2.66c-.13-.21-.91.29-.74.55a6.8,6.8,0,0,0,5.08,3.07C796,376.91,796.05,375.94,795.8,375.92Z"/><path id="Trazado_3486" data-name="Trazado 3486" class="cls-55" d="M794.35,390c1.7-1.27,2-3.95,4.19-4.79,2.71-1.06,1.13.52.83,3-.41,3.4-2.9,5.36-3.27,8.15a7.23,7.23,0,0,0,0,.82h-5.77a10.55,10.55,0,0,0,0-1.59C790.16,394.34,791,392.49,794.35,390Z"/><path id="Trazado_3487" data-name="Trazado 3487" class="cls-55" d="M780.61,390c-1.7-1.27-2-3.95-4.19-4.79-2.71-1.06-1.13.52-.83,3,.41,3.4,2.91,5.36,3.27,8.15a7.23,7.23,0,0,1,0,.82h5.75s-.05-1.2,0-1.59C784.81,394.34,783.92,392.49,780.61,390Z"/></g><g id="Grupo_348" data-name="Grupo 348"><path id="Trazado_3488" data-name="Trazado 3488" class="cls-43" d="M798.4,438.24a13.19,13.19,0,1,1-12.63,13.18A12.91,12.91,0,0,1,798.4,438.24Z"/><path id="Trazado_3489" data-name="Trazado 3489" class="cls-46" d="M807.16,450.16a3.52,3.52,0,1,1-3.37,3.51A3.43,3.43,0,0,1,807.16,450.16Z"/><path id="Trazado_3490" data-name="Trazado 3490" class="cls-46" d="M789.64,450.16a3.52,3.52,0,1,1-3.37,3.51A3.43,3.43,0,0,1,789.64,450.16Z"/><path id="Trazado_3491" data-name="Trazado 3491" class="cls-48" d="M807.93,446.42a5.91,5.91,0,0,0-4.62-2.24c-.25,0-.3-1,0-1a6.81,6.81,0,0,1,5.33,2.6C808.82,446.05,808.08,446.62,807.93,446.42Z"/><path id="Trazado_3492" data-name="Trazado 3492" class="cls-48" d="M793.48,444.11a5.91,5.91,0,0,0-4.62,2.24c-.15.2-.9-.37-.7-.61a6.79,6.79,0,0,1,5.32-2.6C793.79,443.15,793.73,444.11,793.48,444.11Z"/><path id="Trazado_3493" data-name="Trazado 3493" class="cls-44" d="M798.4,457.11a2,2,0,1,1-1.9,2h0a1.93,1.93,0,0,1,1.89-2Z"/><path id="Trazado_3494" data-name="Trazado 3494" class="cls-47" d="M797.34,450.16a3.79,3.79,0,1,1-3.78-4A3.86,3.86,0,0,1,797.34,450.16Z"/><path id="Trazado_3495" data-name="Trazado 3495" class="cls-44" d="M793.56,448.18a2,2,0,1,1-1.9,2h0a1.93,1.93,0,0,1,1.89-2Z"/><path id="Trazado_3496" data-name="Trazado 3496" class="cls-47" d="M807,450.16a3.79,3.79,0,1,1-3.78-4A3.86,3.86,0,0,1,807,450.16Z"/><path id="Trazado_3497" data-name="Trazado 3497" class="cls-44" d="M803.24,448.18a2,2,0,1,1-1.9,2A1.94,1.94,0,0,1,803.24,448.18Z"/></g><g id="Grupo_349" data-name="Grupo 349"><ellipse id="Elipse_71" data-name="Elipse 71" class="cls-56" cx="689.67" cy="384" rx="12.63" ry="13.18"/><path id="Trazado_3498" data-name="Trazado 3498" class="cls-57" d="M693.45,391.76a5.31,5.31,0,0,0-7.53,0l0,0c-.29.25-.56-.19-.36-.59a4.43,4.43,0,0,1,8.28,0C694,391.57,693.75,392,693.45,391.76Z"/><path id="Trazado_3499" data-name="Trazado 3499" class="cls-47" d="M680.48,380.9a4.44,4.44,0,0,0,2.22,5.32,4.1,4.1,0,0,0,5.33-1.64l-2.9-3.39Z"/><path id="Trazado_3500" data-name="Trazado 3500" class="cls-57" d="M682.19,381.27a2.61,2.61,0,0,0,1.19,3.4,2.41,2.41,0,0,0,3.21-1.14l0-.1C687,382.62,682.56,380.45,682.19,381.27Z"/><path id="Trazado_3501" data-name="Trazado 3501" class="cls-57" d="M680.48,380.9a4,4,0,0,1,2.27-.64,5.49,5.49,0,0,1,2.35.56,5.72,5.72,0,0,1,1.94,1.51,4.37,4.37,0,0,1,1,2.25,11.79,11.79,0,0,0-1.67-1.49,12,12,0,0,0-1.79-1.08,12.26,12.26,0,0,0-1.94-.73A12.11,12.11,0,0,0,680.48,380.9Z"/><path id="Trazado_3502" data-name="Trazado 3502" class="cls-47" d="M698.86,380.9a4.44,4.44,0,0,1-2.22,5.32,4.09,4.09,0,0,1-5.33-1.64l2.9-3.39Z"/><path id="Trazado_3503" data-name="Trazado 3503" class="cls-57" d="M697.15,381.27a2.62,2.62,0,0,1-1.19,3.4,2.42,2.42,0,0,1-3.22-1.15l0-.09C692.34,382.62,696.78,380.45,697.15,381.27Z"/><path id="Trazado_3504" data-name="Trazado 3504" class="cls-57" d="M698.86,380.9a4,4,0,0,0-2.27-.64,5.49,5.49,0,0,0-2.35.56,5.72,5.72,0,0,0-1.94,1.51,4.37,4.37,0,0,0-1,2.25,11.79,11.79,0,0,1,1.67-1.49,11.39,11.39,0,0,1,3.73-1.81A12.11,12.11,0,0,1,698.86,380.9Z"/></g><g id="Grupo_350" data-name="Grupo 350"><path id="Trazado_3505" data-name="Trazado 3505" class="cls-43" d="M612.76,370.82A13.19,13.19,0,1,1,600.13,384,12.92,12.92,0,0,1,612.76,370.82Z"/><path id="Trazado_3506" data-name="Trazado 3506" class="cls-44" d="M616.54,391.76a5.31,5.31,0,0,0-7.53,0l0,0c-.29.25-.56-.19-.36-.59a4.43,4.43,0,0,1,8.28,0C617.1,391.57,616.84,392,616.54,391.76Z"/><path id="Trazado_3507" data-name="Trazado 3507" class="cls-47" d="M603.57,380.9a4.44,4.44,0,0,0,2.22,5.32,4.1,4.1,0,0,0,5.33-1.64l-2.9-3.39Z"/><path id="Trazado_3508" data-name="Trazado 3508" class="cls-44" d="M605.29,381.27a2.61,2.61,0,0,0,1.19,3.4,2.41,2.41,0,0,0,3.21-1.14l0-.1C610.09,382.62,605.65,380.45,605.29,381.27Z"/><path id="Trazado_3509" data-name="Trazado 3509" class="cls-44" d="M603.57,380.9a4,4,0,0,1,2.27-.64,5.45,5.45,0,0,1,2.35.56,5.72,5.72,0,0,1,1.94,1.51,4.39,4.39,0,0,1,1,2.25,12.44,12.44,0,0,0-1.67-1.49,13.09,13.09,0,0,0-1.79-1.08,12.37,12.37,0,0,0-1.95-.73A12,12,0,0,0,603.57,380.9Z"/><path id="Trazado_3510" data-name="Trazado 3510" class="cls-47" d="M622,380.9a4.44,4.44,0,0,1-2.22,5.32,4.09,4.09,0,0,1-5.33-1.64l2.9-3.39Z"/><path id="Trazado_3511" data-name="Trazado 3511" class="cls-44" d="M620.24,381.27a2.62,2.62,0,0,1-1.19,3.4,2.41,2.41,0,0,1-3.21-1.14l-.05-.1C615.43,382.62,619.87,380.45,620.24,381.27Z"/><path id="Trazado_3512" data-name="Trazado 3512" class="cls-44" d="M622,380.9a4,4,0,0,0-2.27-.64,5.49,5.49,0,0,0-2.35.56,5.59,5.59,0,0,0-1.93,1.51,4.31,4.31,0,0,0-1,2.25,12.44,12.44,0,0,1,1.67-1.49,11.39,11.39,0,0,1,3.73-1.81A12.27,12.27,0,0,1,622,380.9Z"/></g></g></g></g></g></g></g></svg>